<svg xmlns="http://www.w3.org/2000/svg" xmlns:xlink="http://www.w3.org/1999/xlink" width="1920" zoomAndPan="magnify" viewBox="0 0 1440 809.999993" height="1080" preserveAspectRatio="xMidYMid meet" version="1.0"><defs><clipPath id="a07d9df97a"><path d="M 555 21 L 1130.972656 21 L 1130.972656 131 L 555 131 Z M 555 21 " clip-rule="nonzero"/></clipPath><clipPath id="2df10d905e"><path d="M 555 0 L 1130.972656 0 L 1130.972656 110 L 555 110 Z M 555 0 " clip-rule="nonzero"/></clipPath></defs><rect x="-144" width="1728" fill="#ffffff" y="-80.999999" height="971.999992" fill-opacity="1"/><rect x="-144" width="1728" fill="#9c865c" y="-80.999999" height="971.999992" fill-opacity="1"/><path fill="#ebde70" d="M 574.984375 700.445312 L 574.984375 788.273438 L 0.953125 788.273438 L 0.953125 706.144531 C 17.925781 698.234375 41.253906 694.5625 68.433594 708.15625 C 123.578125 735.730469 168.699219 692.28125 207.96875 683.089844 C 247.238281 673.898438 270.632812 680.585938 325.777344 707.320312 C 380.921875 734.058594 437.742188 771.65625 489.542969 748.261719 C 530.640625 729.699219 547.03125 704.308594 574.984375 700.445312 " fill-opacity="1" fill-rule="evenodd"/><path fill="#ebde70" d="M 574.984375 722.167969 L 574.984375 809.996094 L 0.953125 809.996094 L 0.953125 727.871094 C 17.925781 719.957031 41.253906 716.285156 68.433594 729.878906 C 123.578125 757.453125 168.699219 714.003906 207.96875 704.816406 C 247.238281 695.625 270.632812 702.308594 325.777344 729.046875 C 380.921875 755.78125 437.742188 793.382812 489.542969 769.988281 C 530.640625 751.421875 547.03125 726.035156 574.984375 722.167969 " fill-opacity="1" fill-rule="evenodd"/><path fill="#ebde70" d="M 1129.960938 700.445312 L 1129.960938 788.273438 L 555.929688 788.273438 L 555.929688 706.144531 C 572.902344 698.234375 596.226562 694.5625 623.40625 708.15625 C 678.554688 735.730469 723.671875 692.28125 762.941406 683.089844 C 802.210938 673.898438 825.605469 680.585938 880.753906 707.320312 C 935.898438 734.058594 992.714844 771.65625 1044.519531 748.261719 C 1085.617188 729.699219 1102.003906 704.308594 1129.960938 700.445312 " fill-opacity="1" fill-rule="evenodd"/><path fill="#ebde70" d="M 1129.960938 722.167969 L 1129.960938 809.996094 L 555.929688 809.996094 L 555.929688 727.871094 C 572.902344 719.957031 596.226562 716.285156 623.40625 729.878906 C 678.554688 757.453125 723.671875 714.003906 762.941406 704.816406 C 802.210938 695.625 825.605469 702.308594 880.753906 729.046875 C 935.898438 755.78125 992.714844 793.382812 1044.519531 769.988281 C 1085.617188 751.421875 1102.003906 726.035156 1129.960938 722.167969 " fill-opacity="1" fill-rule="evenodd"/><path fill="#ebde70" d="M 1685.160156 700.445312 L 1685.160156 788.273438 L 1111.128906 788.273438 L 1111.128906 706.144531 C 1128.101562 698.234375 1151.425781 694.5625 1178.605469 708.15625 C 1233.75 735.730469 1278.871094 692.28125 1318.140625 683.089844 C 1357.410156 673.898438 1380.804688 680.585938 1435.953125 707.320312 C 1491.097656 734.058594 1547.914062 771.65625 1599.714844 748.261719 C 1640.8125 729.699219 1657.203125 704.308594 1685.160156 700.445312 " fill-opacity="1" fill-rule="evenodd"/><path fill="#ebde70" d="M 1685.160156 722.167969 L 1685.160156 809.996094 L 1111.128906 809.996094 L 1111.128906 727.871094 C 1128.101562 719.957031 1151.425781 716.285156 1178.605469 729.878906 C 1233.75 757.453125 1278.871094 714.003906 1318.140625 704.816406 C 1357.410156 695.625 1380.804688 702.308594 1435.953125 729.046875 C 1491.097656 755.78125 1547.914062 793.382812 1599.714844 769.988281 C 1640.8125 751.421875 1657.203125 726.035156 1685.160156 722.167969 " fill-opacity="1" fill-rule="evenodd"/><path fill="#ebde70" d="M 1.015625 109.546875 L 1.015625 21.71875 L 575.046875 21.71875 L 575.046875 103.84375 C 558.074219 111.757812 534.746094 115.429688 507.566406 101.835938 C 452.421875 74.261719 407.300781 117.710938 368.03125 126.902344 C 328.761719 136.089844 305.367188 129.40625 250.222656 102.671875 C 195.078125 75.933594 138.257812 38.332031 86.457031 61.730469 C 45.359375 80.292969 28.96875 105.679688 1.015625 109.546875 " fill-opacity="1" fill-rule="evenodd"/><path fill="#ebde70" d="M 1.015625 87.820312 L 1.015625 -0.00390625 L 575.046875 -0.00390625 L 575.046875 82.121094 C 558.074219 90.03125 534.746094 93.707031 507.566406 80.109375 C 452.421875 52.539062 407.300781 95.984375 368.03125 105.175781 C 328.761719 114.367188 305.367188 107.683594 250.222656 80.945312 C 195.078125 54.207031 138.257812 16.609375 86.457031 40.003906 C 45.359375 58.570312 28.96875 83.957031 1.015625 87.820312 " fill-opacity="1" fill-rule="evenodd"/><g clip-path="url(#a07d9df97a)"><path fill="#ebde70" d="M 555.988281 109.546875 L 555.988281 21.71875 L 1130.019531 21.71875 L 1130.019531 103.84375 C 1113.046875 111.757812 1089.722656 115.429688 1062.539062 101.835938 C 1007.394531 74.261719 962.277344 117.710938 923.007812 126.902344 C 883.734375 136.089844 860.339844 129.40625 805.195312 102.671875 C 750.050781 75.933594 693.234375 38.332031 641.429688 61.730469 C 600.332031 80.292969 583.945312 105.679688 555.988281 109.546875 " fill-opacity="1" fill-rule="evenodd"/></g><g clip-path="url(#2df10d905e)"><path fill="#ebde70" d="M 555.988281 87.820312 L 555.988281 -0.00390625 L 1130.019531 -0.00390625 L 1130.019531 82.121094 C 1113.046875 90.03125 1089.722656 93.707031 1062.539062 80.109375 C 1007.394531 52.539062 962.277344 95.984375 923.007812 105.175781 C 883.734375 114.367188 860.339844 107.683594 805.195312 80.945312 C 750.050781 54.207031 693.234375 16.609375 641.429688 40.003906 C 600.332031 58.570312 583.945312 83.957031 555.988281 87.820312 " fill-opacity="1" fill-rule="evenodd"/></g><path fill="#ebde70" d="M 1111.1875 109.546875 L 1111.1875 21.71875 L 1685.21875 21.71875 L 1685.21875 103.84375 C 1668.246094 111.757812 1644.921875 115.429688 1617.738281 101.835938 C 1562.59375 74.261719 1517.476562 117.710938 1478.203125 126.902344 C 1438.933594 136.089844 1415.539062 129.40625 1360.394531 102.671875 C 1305.25 75.933594 1248.433594 38.332031 1196.628906 61.730469 C 1155.53125 80.292969 1139.140625 105.679688 1111.1875 109.546875 " fill-opacity="1" fill-rule="evenodd"/><path fill="#ebde70" d="M 1111.1875 87.820312 L 1111.1875 -0.00390625 L 1685.21875 -0.00390625 L 1685.21875 82.121094 C 1668.246094 90.03125 1644.921875 93.707031 1617.738281 80.109375 C 1562.59375 52.539062 1517.476562 95.984375 1478.203125 105.175781 C 1438.933594 114.367188 1415.539062 107.683594 1360.394531 80.945312 C 1305.25 54.207031 1248.433594 16.609375 1196.628906 40.003906 C 1155.53125 58.570312 1139.140625 83.957031 1111.1875 87.820312 " fill-opacity="1" fill-rule="evenodd"/></svg>