<svg xmlns="http://www.w3.org/2000/svg" xmlns:xlink="http://www.w3.org/1999/xlink" width="1920" zoomAndPan="magnify" viewBox="0 0 1440 809.999993" height="1080" preserveAspectRatio="xMidYMid meet" version="1.0"><defs><clipPath id="30d713701e"><path d="M 0 166 L 304 166 L 304 810 L 0 810 Z M 0 166 " clip-rule="nonzero"/></clipPath><clipPath id="7bd3f2873a"><path d="M -309.957031 169.589844 L 289.847656 154.339844 L 310.207031 955.078125 L -289.597656 970.328125 Z M -309.957031 169.589844 " clip-rule="nonzero"/></clipPath><clipPath id="70a795ff15"><path d="M 289.601562 154.34375 L -310.203125 169.59375 L -289.84375 970.335938 L 309.960938 955.085938 Z M 289.601562 154.34375 " clip-rule="nonzero"/></clipPath><clipPath id="d6af13f3bf"><path d="M 1142 0 L 1440 0 L 1440 529 L 1142 529 Z M 1142 0 " clip-rule="nonzero"/></clipPath><clipPath id="12f815bcd2"><path d="M 961.820312 128.359375 L 1286.582031 -223.054688 L 1755.871094 210.636719 L 1431.109375 562.050781 Z M 961.820312 128.359375 " clip-rule="nonzero"/></clipPath><clipPath id="32c1b85110"><path d="M 961.820312 128.359375 L 1286.582031 -223.054688 L 1755.871094 210.636719 L 1431.109375 562.050781 Z M 961.820312 128.359375 " clip-rule="nonzero"/></clipPath></defs><rect x="-144" width="1728" fill="#ffffff" y="-80.999999" height="971.999992" fill-opacity="1"/><rect x="-144" width="1728" fill="#fffdfc" y="-80.999999" height="971.999992" fill-opacity="1"/><g clip-path="url(#30d713701e)"><g clip-path="url(#7bd3f2873a)"><g clip-path="url(#70a795ff15)"><path fill="#9c865c" d="M -268.933594 685.101562 C -224.390625 683.355469 -122.773438 699.152344 -98.246094 710.171875 C -76.523438 719.933594 -50.320312 713.417969 -27.519531 720.308594 C -21.566406 722.121094 -5.015625 727.476562 14.839844 723.226562 C 19.070312 722.292969 23.183594 720.988281 27.179688 719.3125 C 33.941406 733.792969 41.066406 747.753906 48.546875 761.199219 C 39.890625 754.320312 30.660156 748.328125 20.855469 743.21875 C -9.023438 727.667969 -36.828125 724.378906 -62.367188 723.050781 C -139.230469 718.722656 -229.613281 729.246094 -247.828125 731.363281 C -242.140625 739.960938 -235.015625 747.128906 -226.457031 752.871094 C -210.546875 763.410156 -193.605469 765.589844 -171.59375 765.570312 C -116.226562 765.53125 -108.570312 751.621094 -62.839844 753.320312 C -54.785156 753.617188 -38.726562 755.929688 -6.589844 760.457031 C 17.871094 763.921875 38.40625 767.269531 53.445312 769.855469 C 58.933594 779.316406 64.566406 788.546875 70.351562 797.542969 C 61.15625 792.140625 51.617188 787.441406 41.734375 783.4375 C 28.019531 777.882812 0.34375 768.292969 -69.265625 768.261719 C -158.261719 768.058594 -176.320312 783.582031 -182.625 789.71875 C -189.300781 796.363281 -194.542969 803.988281 -198.351562 812.601562 C -198.351562 812.601562 -160.992188 802.957031 -122.132812 809.960938 C -113.851562 811.445312 -102.1875 811.363281 -83.929688 811.691406 C -72.242188 811.914062 -66.414062 811.730469 -42.734375 811.308594 C -0.867188 810.550781 6.550781 810.6875 12.261719 810.199219 C 13.433594 810.167969 12.820312 810.183594 15.746094 809.820312 C 31.363281 808.148438 45.6875 806.648438 62.445312 805.878906 C 65.378906 805.804688 69.925781 805.546875 75.554688 805.4375 C 85.398438 820.019531 95.957031 834.058594 107.226562 847.566406 C 97.695312 841.132812 87.585938 835.792969 76.902344 831.542969 C 76.902344 831.542969 25.992188 811.414062 -126.414062 848.355469 C -103.917969 856.953125 -80.695312 862.488281 -56.742188 864.964844 C -20.054688 868.675781 1.691406 863.101562 87.707031 858.539062 C 99.570312 857.910156 109.28125 857.484375 115.484375 857.21875 C 125.566406 868.679688 135.492188 878.851562 145.0625 887.914062 C 136.589844 886.632812 128.394531 877.195312 125.964844 877.183594 C 91.363281 855.113281 53.015625 868.941406 25.332031 878.214844 C -3.152344 887.8125 -33.113281 886.109375 -33.113281 886.109375 C -22.355469 892.464844 -11.105469 897.761719 0.648438 902.003906 C 12.398438 906.246094 24.441406 909.355469 36.777344 911.332031 C 84.648438 918.84375 123.25 906.46875 130.742188 901.578125 C 133.328125 899.875 136.078125 898.488281 138.988281 897.429688 C 143.480469 895.800781 148.113281 894.972656 152.894531 894.949219 C 205.351562 941.945312 246.964844 955.164062 249.121094 955.828125 C 249.585938 955.972656 250.0625 956.039062 250.550781 956.027344 C 251.082031 956.011719 251.597656 955.90625 252.09375 955.707031 C 252.585938 955.511719 253.03125 955.234375 253.429688 954.875 C 253.828125 954.519531 254.148438 954.105469 254.398438 953.636719 C 254.648438 953.164062 254.808594 952.664062 254.882812 952.136719 C 254.953125 951.609375 254.933594 951.082031 254.820312 950.5625 C 254.703125 950.042969 254.503906 949.554688 254.214844 949.105469 C 253.929688 948.65625 253.574219 948.273438 253.148438 947.949219 C 252.722656 947.625 252.257812 947.386719 251.746094 947.230469 C 251.023438 946.996094 208.082031 933.183594 155.078125 884.652344 C 239 838.777344 246.449219 758.613281 246.449219 758.613281 C 246.449219 758.613281 221.773438 779.3125 171.855469 813.195312 C 138.75 835.640625 140.308594 860.800781 145.082031 875.203125 C 138.289062 868.5625 131.390625 861.339844 124.390625 853.535156 C 126.589844 850.90625 130.222656 846.546875 134.730469 841.105469 C 141.398438 833.015625 146.21875 827.0625 146.757812 826.398438 C 177.914062 788.113281 249.636719 727.589844 249.636719 727.570312 C 272.667969 708.160156 303.058594 683.644531 303.058594 683.644531 C 253.773438 672.945312 215.480469 708.082031 204.480469 722.90625 C 202.539062 725.617188 200.316406 728.074219 197.8125 730.277344 C 178.71875 746.855469 166.222656 748 150.832031 757.949219 C 128.910156 772.1875 116.972656 798.25 115.039062 819.863281 C 114.300781 828.351562 114.949219 836.738281 116.992188 845.011719 C 116.210938 844.097656 115.433594 843.253906 114.652344 842.28125 C 105.632812 831.496094 96.285156 819.347656 86.847656 805.691406 C 92 798.363281 97.519531 791.320312 103.410156 784.570312 C 142.46875 739.820312 173.433594 735.792969 201.65625 697.472656 C 215.855469 678.210938 210.269531 682.3125 223.332031 656.527344 C 239.667969 624.394531 291.785156 587.828125 288.203125 569.394531 C 284.621094 550.964844 224.316406 593.359375 198.210938 620.734375 C 155.792969 665.011719 126.582031 678.554688 109.40625 706.640625 C 101.359375 719.910156 94.742188 733.859375 89.5625 748.488281 C 84.378906 763.117188 80.738281 778.121094 78.636719 793.5 C 69.066406 778.839844 59.472656 762.628906 50.054688 744.707031 C 55.328125 739.765625 63.214844 732.097656 72.726562 722.53125 C 88.105469 707.128906 135.511719 658.816406 192.980469 583.425781 L 248.359375 508.21875 C 210.480469 505.039062 160.019531 558.578125 147.84375 580.328125 C 133.917969 605.25 103.445312 617.347656 81.09375 645.132812 C 62.199219 668.707031 50.484375 689.433594 46.703125 714.949219 C 45.652344 721.957031 45.234375 729.007812 45.441406 736.09375 C 38.429688 722.230469 31.519531 707.394531 24.835938 691.617188 C 27.566406 689.261719 31.878906 685.445312 37.15625 680.648438 C 109.652344 614.382812 119.445312 570.554688 192.089844 483.980469 L 242.664062 425.09375 C 189.324219 423.390625 139.203125 483.183594 124.703125 508.984375 C 121.875 513.988281 86.214844 544.328125 53.855469 590.457031 C 39.210938 611.3125 25.957031 633.753906 22.023438 663.878906 C 21.226562 669.957031 20.84375 676.0625 20.871094 682.195312 C 14.839844 667.398438 9.042969 651.703125 3.472656 635.117188 L 13.964844 623.023438 C 93.8125 530.992188 94.964844 533.808594 102.617188 519.050781 C 120.996094 483.664062 108.394531 463.015625 138.835938 436.933594 C 150.972656 426.507812 166.941406 409.558594 166.941406 409.558594 C 119.4375 415.210938 86.144531 467.234375 79.390625 484.703125 C 69.261719 511.117188 45.1875 522.222656 32.125 542.28125 C 14.355469 569.625 7.972656 588.382812 4.691406 601.660156 C 2.757812 609.691406 1.421875 617.820312 0.6875 626.042969 C -3.402344 613.390625 -7.339844 600.238281 -11.117188 586.582031 C -7.496094 581.828125 -1.90625 574.414062 4.8125 565.296875 C 15.546875 550.714844 53.515625 498.574219 101.445312 419.757812 C 110.203125 405.347656 122.171875 385.425781 135.8125 361.28125 C 119.921875 372.59375 104.933594 385 90.851562 398.496094 C 76.769531 411.996094 63.742188 426.445312 51.765625 441.84375 C 36.21875 461.878906 8.578125 498.203125 -7.910156 552.75 C -10.785156 562.203125 -12.703125 570.242188 -13.960938 575.960938 C -17.75 561.441406 -21.332031 546.335938 -24.707031 530.640625 C -21.585938 526.78125 -17.046875 521.121094 -11.660156 514.234375 C 13.726562 481.890625 26.105469 463.324219 58.785156 416.25 C 58.785156 416.25 110.417969 341.621094 106.703125 312.988281 C 106.703125 312.867188 106.652344 312.773438 106.550781 312.703125 C 103.453125 310.515625 53.878906 355.75 18.929688 415.410156 C -1.777344 450.660156 -14.929688 486.941406 -19.804688 501.121094 C -22.738281 509.65625 -24.96875 516.878906 -26.476562 522.046875 C -29.695312 506.347656 -32.660156 490.050781 -35.367188 473.148438 C -13.605469 448.414062 5.542969 421.796875 22.074219 393.296875 C 46.542969 351.078125 74.300781 289.511719 67.117188 285.214844 C 59.238281 280.515625 4.007812 341.773438 -24.542969 421.753906 C -29.519531 435.695312 -33.582031 449.898438 -36.726562 464.363281 C -38.925781 450.019531 -40.917969 435.238281 -42.695312 420.019531 C -25.023438 397.230469 12.195312 345.957031 12.019531 311.4375 C 11.957031 296.335938 11.039062 281.402344 11.039062 281.402344 C 9.921875 263.644531 8.214844 253.859375 8.070312 240.453125 C 7.933594 226.542969 9.695312 218.613281 7.597656 217.496094 C 6.027344 216.65625 3.742188 218.765625 2.945312 219.414062 C -6.984375 228.039062 -32.386719 356.847656 -43.367188 414.148438 C -44.59375 403.128906 -45.714844 391.890625 -46.726562 380.429688 C -40.847656 364.566406 -29.988281 330.8125 -31.128906 301.464844 C -32.757812 261.527344 -43.398438 222.429688 -41.671875 199.707031 C -39.945312 176.980469 -34.347656 162.925781 -41.894531 166.953125 C -49.441406 170.976562 -60.605469 189.945312 -63.886719 254.21875 C -66.640625 308.667969 -65.382812 348.9375 -56.121094 376.152344 C -55.058594 388.761719 -53.839844 401.214844 -52.472656 413.519531 C -59.710938 393.707031 -65.332031 373.453125 -69.335938 352.746094 C -75.554688 320.503906 -70.488281 315.261719 -79.433594 293.257812 C -86.460938 275.976562 -108.316406 229.949219 -108.316406 229.949219 C -108.929688 255.957031 -108.894531 277.898438 -108.476562 294.304688 C -107.035156 373.648438 -95.792969 390.355469 -86.640625 399.949219 C -81.839844 404.757812 -76.480469 408.828125 -70.558594 412.160156 C -64.640625 415.488281 -58.378906 417.960938 -51.777344 419.566406 C -50.996094 425.316406 -50.277344 431.203125 -49.621094 437.222656 C -48.726562 445.503906 -47.980469 453.578125 -47.382812 461.449219 C -65.464844 434.910156 -86.140625 406.847656 -109.714844 378.019531 C -131.0625 351.902344 -152.238281 328.265625 -172.722656 307.007812 C -175.152344 343.179688 -165.628906 361.621094 -155.898438 371.832031 C -149.925781 378.105469 -146.125 378.910156 -132.90625 390.542969 C -116.464844 404.921875 -107.820312 416.402344 -100.289062 425.210938 C -92.277344 434.339844 -83.625 442.816406 -74.335938 450.640625 C -65.046875 458.464844 -55.226562 465.550781 -44.867188 471.898438 C -44.167969 475.886719 -43.464844 479.882812 -42.761719 483.886719 C -41.367188 491.636719 -39.96875 499.367188 -38.574219 507.070312 C -41.828125 502.789062 -45.773438 499.289062 -50.414062 496.574219 C -72.117188 468.929688 -96.605469 444.027344 -123.882812 421.867188 C -172.367188 382.492188 -200.839844 383.378906 -200.839844 383.378906 C -200.839844 383.378906 -178.929688 416.769531 -165.726562 429.914062 C -152.523438 443.0625 -138.183594 446.980469 -128.992188 453.191406 C -110.347656 465.75 -106.140625 473.960938 -91.675781 486.550781 C -74.773438 501.121094 -56.132812 512.941406 -35.746094 522.011719 C -33.300781 534.140625 -30.6875 546.074219 -27.90625 557.8125 C -30.324219 556.183594 -34.078125 553.597656 -38.535156 550.308594 C -92.464844 510.65625 -94.859375 483.679688 -133.34375 462.5 C -145.007812 456.082031 -165.492188 446.902344 -190.898438 447.277344 C -216.308594 447.652344 -233.363281 457.085938 -233.363281 457.085938 C -149.507812 493.691406 -116.351562 514.179688 -102.613281 526.375 C -94.382812 533.433594 -85.8125 540.058594 -76.90625 546.242188 C -61.867188 557.253906 -53.40625 562.277344 -42.425781 565.167969 C -36.855469 566.613281 -31.199219 567.375 -25.445312 567.453125 C -21.621094 582.957031 -17.492188 598.074219 -13.0625 612.804688 C -19.355469 605.246094 -26.011719 598.023438 -33.035156 591.136719 C -48.523438 575.921875 -91.035156 535.007812 -153.890625 518.824219 C -199.695312 506.992188 -252.796875 509.082031 -252.796875 509.082031 C -252.796875 509.082031 -197.191406 563.738281 -176.980469 562.953125 C -156.765625 562.167969 -136.667969 576.023438 -123.496094 581.519531 C -90.382812 595.328125 -84.4375 589.183594 -68.550781 598.121094 C -57.902344 604.132812 -49.789062 611.128906 -33.464844 615.898438 C -26.117188 618.066406 -18.617188 619.414062 -10.972656 619.933594 C -6.324219 634.671875 -1.421875 649.03125 3.730469 663.011719 C 0.429688 660.574219 -4.757812 656.835938 -11.226562 652.449219 C -53.753906 623.613281 -120.058594 578.714844 -197.703125 582.488281 C -215.683594 583.339844 -244.238281 587.273438 -278.335938 604.140625 C -185.003906 632.367188 -134.988281 644.253906 -106.175781 649.695312 C -98.035156 651.289062 -59.367188 658.386719 -7.617188 670.484375 C -1.003906 672.113281 4.410156 673.328125 7.976562 674.191406 C 12.855469 686.75 17.96875 698.992188 23.308594 710.917969 C 19.191406 708.160156 12.328125 703.691406 3.488281 698.695312 C -95.320312 642.542969 -196.914062 653.910156 -237.046875 661.304688 C -258.566406 665.179688 -296.808594 686.097656 -268.933594 685.101562 Z M -268.933594 685.101562 " fill-opacity="1" fill-rule="nonzero"/></g></g></g><g clip-path="url(#d6af13f3bf)"><g clip-path="url(#12f815bcd2)"><g clip-path="url(#32c1b85110)"><path fill="#9c865c" d="M 1574.398438 72.882812 C 1549.890625 98.683594 1505.839844 167.957031 1499.53125 188.476562 C 1493.945312 206.648438 1476.234375 218.9375 1468.355469 236.242188 C 1466.308594 240.765625 1460.804688 253.515625 1447.796875 263.1875 C 1445.007812 265.234375 1442.058594 267.011719 1438.949219 268.527344 C 1444.074219 280.214844 1448.695312 291.839844 1452.820312 303.410156 C 1453.253906 294.59375 1454.519531 285.898438 1456.617188 277.328125 C 1463.03125 251.214844 1475.703125 232.800781 1488.359375 216.78125 C 1526.246094 168.394531 1580.167969 119.722656 1591.035156 109.910156 C 1593.195312 117.851562 1593.742188 125.898438 1592.675781 134.058594 C 1590.617188 149.15625 1583.003906 160.464844 1571.394531 173.660156 C 1542.207031 206.851562 1529.832031 204.117188 1506.765625 232.441406 C 1502.703125 237.429688 1495.628906 248.28125 1481.417969 269.945312 C 1470.609375 286.441406 1461.804688 300.523438 1455.433594 310.910156 C 1458.21875 319.183594 1460.785156 327.421875 1463.136719 335.632812 C 1464.738281 327.273438 1466.945312 319.074219 1469.75 311.035156 C 1473.640625 299.882812 1482.464844 278.230469 1519.109375 236.457031 C 1565.867188 182.964844 1584.691406 180.3125 1591.695312 179.761719 C 1599.195312 179.253906 1606.53125 180.128906 1613.703125 182.378906 C 1613.703125 182.378906 1588.242188 199.710938 1571.972656 226.710938 C 1568.5 232.457031 1562.308594 239.410156 1552.886719 250.539062 C 1546.863281 257.667969 1543.683594 261.066406 1530.960938 275.046875 C 1508.453125 299.761719 1504.625 304.285156 1501.324219 307.453125 C 1500.691406 308.140625 1501.023438 307.78125 1499.265625 309.34375 C 1490.035156 317.828125 1481.589844 325.632812 1472.300781 335.28125 C 1470.710938 337 1468.160156 339.59375 1465.128906 342.914062 C 1468.691406 356.496094 1471.554688 370.226562 1473.71875 384.101562 C 1474.878906 374.996094 1477 366.117188 1480.078125 357.472656 C 1480.078125 357.472656 1494.824219 316.328125 1597.257812 244.367188 C 1590.566406 262.386719 1581.65625 279.234375 1570.523438 294.90625 C 1553.425781 318.867188 1538.625 328.976562 1490.582031 378.171875 C 1483.957031 384.957031 1478.585938 390.558594 1475.160156 394.136719 C 1476.722656 406.222656 1477.597656 417.535156 1477.992188 428.050781 C 1481.6875 422.292969 1480.34375 412.402344 1481.617188 410.941406 C 1486.601562 378.5625 1515.097656 362.839844 1535.238281 351.117188 C 1556 339.085938 1570.757812 320.21875 1570.757812 320.21875 C 1568.90625 330.019531 1566.160156 339.558594 1562.511719 348.84375 C 1558.867188 358.125 1554.390625 366.988281 1549.078125 375.425781 C 1528.367188 408.101562 1500.609375 424.738281 1493.734375 426.65625 C 1491.347656 427.308594 1489.070312 428.230469 1486.898438 429.417969 C 1483.554688 431.253906 1480.621094 433.597656 1478.089844 436.453125 C 1478.648438 492.675781 1464.65625 524.597656 1463.921875 526.242188 C 1463.761719 526.597656 1463.550781 526.917969 1463.285156 527.203125 C 1462.996094 527.515625 1462.664062 527.769531 1462.285156 527.960938 C 1461.902344 528.152344 1461.503906 528.277344 1461.082031 528.324219 C 1460.65625 528.375 1460.238281 528.351562 1459.824219 528.253906 C 1459.410156 528.15625 1459.027344 527.988281 1458.671875 527.753906 C 1458.316406 527.519531 1458.011719 527.230469 1457.761719 526.886719 C 1457.507812 526.542969 1457.324219 526.167969 1457.207031 525.757812 C 1457.085938 525.351562 1457.042969 524.933594 1457.074219 524.507812 C 1457.101562 524.082031 1457.203125 523.675781 1457.378906 523.289062 C 1457.621094 522.730469 1471.953125 489.695312 1470.761719 432.339844 C 1399.039062 458.515625 1347.027344 420.757812 1347.027344 420.757812 C 1347.027344 420.757812 1372.441406 416.859375 1419.058594 404.765625 C 1449.960938 396.726562 1464.234375 410.914062 1470.359375 421.367188 C 1469.949219 413.792969 1469.25 405.851562 1468.261719 397.539062 C 1465.523438 397.476562 1460.996094 397.359375 1455.355469 397.195312 C 1446.992188 396.9375 1440.882812 396.6875 1440.199219 396.664062 C 1400.820312 395.1875 1326.738281 406.332031 1326.726562 406.320312 C 1302.949219 409.914062 1272.238281 415.230469 1272.238281 415.230469 C 1291.78125 380.03125 1333.027344 375.566406 1347.714844 376.777344 C 1350.363281 377.039062 1353.007812 377 1355.648438 376.65625 C 1375.648438 373.9375 1382.917969 367.042969 1396.992188 363.054688 C 1417.082031 357.402344 1439.003906 363.96875 1452.984375 374.195312 C 1458.46875 378.222656 1463.15625 383.03125 1467.042969 388.613281 C 1466.90625 387.664062 1466.808594 386.75 1466.636719 385.773438 C 1464.917969 374.679688 1462.554688 362.675781 1459.335938 349.820312 C 1452.222656 349.050781 1445.09375 348.652344 1437.941406 348.632812 C 1390.523438 348.488281 1371.796875 364.941406 1333.945312 361.6875 C 1314.910156 360.058594 1320.3125 358.867188 1297.96875 353.121094 C 1270.085938 345.996094 1220.699219 357.996094 1211.53125 346.140625 C 1202.359375 334.28125 1259.554688 320.441406 1289.726562 319.199219 C 1338.628906 317.078125 1362.140625 306.6875 1388.035156 311.175781 C 1400.234375 313.339844 1412.085938 316.71875 1423.59375 321.316406 C 1435.097656 325.914062 1446.015625 331.632812 1456.34375 338.472656 C 1452.59375 325.007812 1447.921875 310.71875 1442.132812 295.625 C 1436.390625 296.1875 1427.636719 296.878906 1416.886719 297.546875 C 1399.546875 298.65625 1345.597656 301.648438 1270.105469 296.410156 L 1195.816406 290.015625 C 1213.867188 265.621094 1272.558594 263.550781 1292.019531 267.703125 C 1314.304688 272.476562 1337.613281 260.570312 1366.054688 261.796875 C 1390.148438 262.878906 1408.75 266.769531 1426.046875 277.941406 C 1430.804688 281.003906 1435.253906 284.464844 1439.394531 288.324219 C 1434.773438 276.816406 1429.515625 264.855469 1423.570312 252.535156 C 1420.71875 252.933594 1416.15625 253.507812 1410.5 254.148438 C 1332.566406 262.730469 1301.117188 245.519531 1210.917969 243.492188 L 1148.957031 242.816406 C 1176.03125 209.921875 1238.296875 211.347656 1261.414062 216.242188 C 1265.902344 217.183594 1302.886719 211.769531 1347.601562 216.65625 C 1367.828125 218.859375 1388.269531 222.730469 1408.410156 236.238281 C 1412.476562 238.960938 1416.34375 241.945312 1420.007812 245.195312 C 1414.304688 233.78125 1407.945312 222.039062 1400.929688 209.960938 L 1388.148438 209.882812 C 1290.886719 209.304688 1291.964844 211.480469 1279.082031 208.296875 C 1248.175781 200.683594 1242.425781 182.246094 1210.746094 186.765625 C 1198.101562 188.558594 1179.523438 189.207031 1179.523438 189.207031 C 1207.9375 163.691406 1256.675781 171.121094 1270.714844 176.269531 C 1291.894531 184.105469 1311.234375 175.519531 1330.148438 178.25 C 1355.914062 181.992188 1370.527344 188.042969 1380.21875 193.066406 C 1386.054688 196.136719 1391.632812 199.617188 1396.957031 203.507812 C 1391.519531 194.390625 1385.703125 185.101562 1379.5 175.640625 C 1374.742188 175.3125 1367.347656 174.757812 1358.34375 173.984375 C 1343.941406 172.746094 1292.664062 168.054688 1220.140625 155.289062 C 1206.882812 152.957031 1188.628906 149.640625 1166.960938 145.109375 C 1182.117188 141.53125 1197.453125 139.074219 1212.964844 137.738281 C 1228.480469 136.402344 1244.011719 136.199219 1259.554688 137.128906 C 1279.761719 138.351562 1316.113281 140.90625 1357.515625 159.746094 C 1364.699219 163 1370.535156 166.085938 1374.628906 168.34375 C 1367.914062 158.421875 1360.738281 148.316406 1353.101562 138.023438 C 1349.140625 137.863281 1343.359375 137.605469 1336.390625 137.207031 C 1303.617188 135.398438 1285.957031 133.046875 1240.507812 127.855469 C 1240.507812 127.855469 1168.542969 119.519531 1153.324219 102.207031 C 1153.25 102.144531 1153.21875 102.0625 1153.234375 101.96875 C 1153.550781 98.957031 1206.796875 93.046875 1260.996094 103.503906 C 1293.046875 109.652344 1321.738281 120.871094 1332.8125 125.414062 C 1339.480469 128.152344 1344.984375 130.617188 1348.878906 132.4375 C 1341.15625 122.238281 1332.941406 111.875 1324.230469 101.347656 C 1297.929688 101.371094 1271.878906 98.839844 1246.074219 93.742188 C 1207.859375 86.183594 1156.308594 70.40625 1157.515625 63.832031 C 1158.847656 56.632812 1224.683594 55.765625 1287.699219 80.769531 C 1298.683594 85.125 1309.34375 90.171875 1319.675781 95.90625 C 1312.230469 87.03125 1304.410156 78.050781 1296.21875 68.964844 C 1273.242188 67.566406 1222.878906 62.882812 1202.265625 44.59375 C 1193.238281 36.601562 1184.765625 28.183594 1184.765625 28.183594 C 1174.703125 18.160156 1169.730469 11.984375 1161.765625 4.835938 C 1153.492188 -2.574219 1147.808594 -5.695312 1148.246094 -7.539062 C 1148.566406 -8.925781 1151.039062 -9.183594 1151.84375 -9.320312 C 1162.25 -10.734375 1252.894531 41.875 1293.054688 65.472656 C 1287.089844 58.929688 1280.9375 52.339844 1274.59375 45.695312 C 1261.984375 40.867188 1236.015625 29.601562 1219.011719 13.457031 C 1195.910156 -8.554688 1178.066406 -35.53125 1163.523438 -46.464844 C 1148.984375 -57.398438 1137.601562 -61.445312 1143.992188 -63.851562 C 1150.382812 -66.257812 1167.640625 -62.964844 1207.925781 -31.078125 C 1242.035156 -4.050781 1265.53125 17.914062 1276.976562 37.804688 C 1283.980469 45.085938 1290.8125 52.375 1297.46875 59.675781 C 1289.398438 44.902344 1280.207031 30.859375 1269.898438 17.550781 C 1253.832031 -3.164062 1248.019531 -2.882812 1239.535156 -19.839844 C 1232.867188 -33.160156 1216.769531 -70.511719 1216.769531 -70.511719 C 1232.695312 -57.183594 1245.835938 -45.605469 1255.457031 -36.710938 C 1302.292969 5.945312 1306.394531 21.488281 1307.328125 32.035156 C 1307.683594 37.445312 1307.300781 42.804688 1306.183594 48.109375 C 1305.0625 53.417969 1303.246094 58.472656 1300.734375 63.277344 C 1303.769531 66.777344 1306.921875 70.308594 1310.1875 73.875 C 1314.683594 78.773438 1319.136719 83.472656 1323.542969 87.976562 C 1317.144531 63.148438 1311.203125 35.96875 1306.328125 6.640625 C 1301.90625 -19.921875 1298.882812 -45.070312 1296.917969 -68.558594 C 1319.894531 -50.964844 1325.941406 -35.535156 1326.941406 -24.324219 C 1327.558594 -17.433594 1326.039062 -14.730469 1326.054688 -0.671875 C 1326.019531 16.761719 1328.355469 27.992188 1329.671875 37.152344 C 1332.195312 56.492188 1331.800781 75.769531 1328.484375 94.988281 C 1330.507812 97.511719 1332.535156 100.035156 1334.566406 102.566406 C 1338.480469 107.488281 1342.382812 112.394531 1346.269531 117.292969 C 1345.414062 113.085938 1345.394531 108.875 1346.207031 104.660156 C 1341.054688 77.082031 1339.015625 49.273438 1340.09375 21.238281 C 1342.011719 -28.585938 1357.539062 -45.199219 1357.539062 -45.199219 C 1357.539062 -45.199219 1366.03125 -14.46875 1366.960938 0.378906 C 1367.890625 15.222656 1362.691406 25.886719 1361.574219 34.675781 C 1359.285156 52.472656 1361.996094 59.320312 1361.929688 74.628906 C 1361.765625 92.441406 1359.035156 109.851562 1353.742188 126.859375 C 1359.730469 134.714844 1365.511719 142.566406 1371.085938 150.417969 C 1371.382812 148.109375 1371.808594 144.492188 1372.183594 140.085938 C 1376.804688 86.851562 1361.886719 71.207031 1369.449219 36.964844 C 1371.746094 26.589844 1377.027344 9.464844 1390.636719 -5.578125 C 1404.242188 -20.621094 1418.886719 -25.882812 1418.886719 -25.882812 C 1396.675781 43.699219 1391.5 74.378906 1391.578125 89.046875 C 1391.480469 97.699219 1390.9375 106.328125 1389.957031 114.929688 C 1388.640625 129.75 1387.195312 137.472656 1383.144531 145.582031 C 1381.078125 149.683594 1378.554688 153.480469 1375.574219 156.972656 C 1382.859375 167.433594 1389.75 177.871094 1396.253906 188.289062 C 1395.035156 180.53125 1394.207031 172.734375 1393.777344 164.894531 C 1392.808594 147.589844 1390.660156 100.539062 1414.058594 54.308594 C 1431.089844 20.597656 1460.3125 -10.152344 1460.3125 -10.152344 C 1460.3125 -10.152344 1463.808594 51.992188 1452.691406 63.703125 C 1441.574219 75.414062 1439.296875 94.769531 1435.65625 105.566406 C 1426.5 132.703125 1419.683594 133.03125 1416.675781 147.269531 C 1414.671875 156.824219 1414.59375 165.375 1408.859375 177.675781 C 1406.289062 183.230469 1403.144531 188.4375 1399.429688 193.296875 C 1405.824219 203.847656 1411.855469 214.351562 1417.527344 224.808594 C 1417.804688 221.542969 1418.296875 216.460938 1419.066406 210.273438 C 1424.171875 169.570312 1432.164062 106.148438 1475.328125 61.5625 C 1485.308594 51.226562 1502.707031 36.164062 1530.785156 24.597656 C 1498.558594 95.453125 1479.34375 131.714844 1467.429688 151.867188 C 1464.097656 157.589844 1447.988281 184.519531 1427.984375 221.9375 C 1425.480469 226.761719 1423.359375 230.648438 1421.996094 233.242188 C 1426.960938 242.785156 1431.613281 252.300781 1435.949219 261.785156 C 1436.464844 257.859375 1437.402344 251.390625 1439.058594 243.457031 C 1457.421875 154.609375 1517.753906 99.65625 1543.328125 79.476562 C 1556.988281 68.609375 1589.679688 56.6875 1574.398438 72.882812 Z M 1574.398438 72.882812 " fill-opacity="1" fill-rule="nonzero"/></g></g></g></svg>