<svg xmlns="http://www.w3.org/2000/svg" xmlns:xlink="http://www.w3.org/1999/xlink" width="1920" zoomAndPan="magnify" viewBox="0 0 1440 809.999993" height="1080" preserveAspectRatio="xMidYMid meet" version="1.0"><defs><g/><clipPath id="8726ce51e1"><path d="M 81 66 L 1370 66 L 1370 759.835938 L 81 759.835938 Z M 81 66 " clip-rule="nonzero"/></clipPath><clipPath id="fdea442c91"><path d="M 1369.488281 759.816406 L 81.949219 757.980469 L 81.949219 309.96875 L 86.230469 70.816406 L 723.515625 66.226562 L 1364.898438 67.453125 Z M 1369.488281 759.816406 " clip-rule="nonzero"/></clipPath><clipPath id="7c7de0bb5e"><path d="M 79 62.25 L 1373 62.25 L 1373 762.570312 L 79 762.570312 Z M 79 62.25 " clip-rule="nonzero"/></clipPath><clipPath id="ba68678d24"><path d="M 1364.898438 67.453125 C 1365.207031 70.511719 1365.207031 72.960938 1365.511719 75.40625 C 1366.125 88.113281 1366.429688 103.117188 1367.042969 117.585938 C 1367.042969 138.488281 1370.101562 550.582031 1371.632812 571.480469 C 1373.160156 603.097656 1372.242188 635.25 1372.242188 666.867188 C 1372.242188 694.734375 1372.550781 720.457031 1372.855469 747.578125 C 1372.855469 752.78125 1372.855469 756.144531 1372.855469 761.960938 C 1367.347656 761.960938 1362.453125 762.265625 1354.695312 761.960938 C 1289.367188 760.734375 1223.03125 762.265625 1157.703125 761.042969 C 1118.507812 760.125 1080.3125 760.734375 1041.117188 760.125 C 1023.023438 759.816406 1004.933594 759.511719 986.84375 759.207031 C 975.785156 759.207031 965.734375 759.511719 954.679688 759.511719 C 926.539062 759.207031 849.148438 759.511719 821.007812 759.207031 C 800.90625 758.898438 398.878906 761.042969 378.777344 760.734375 C 373.75 760.734375 367.722656 761.042969 362.695312 761.042969 C 350.636719 761.042969 339.578125 761.347656 327.519531 761.347656 C 297.367188 761.347656 268.21875 761.042969 238.066406 760.734375 C 219.976562 760.429688 201.886719 760.125 184.796875 759.816406 C 152.636719 759.511719 120.472656 759.207031 90.210938 759.207031 C 87.761719 759.207031 85.621094 759.207031 83.171875 758.898438 C 81.03125 758.59375 79.804688 757.0625 80.417969 754.921875 C 82.558594 747.25 81.640625 733.855469 81.335938 719.921875 C 81.03125 691.519531 80.113281 663.652344 80.417969 635.25 C 79.804688 599.882812 78.582031 162.066406 80.417969 126.160156 C 80.722656 119.195312 80.417969 111.691406 80.722656 104.726562 C 81.03125 93.472656 81.640625 81.148438 81.949219 72.960938 C 81.949219 72.347656 82.253906 71.734375 82.558594 71.429688 C 87.761719 70.816406 95.347656 69.59375 111.429688 69.289062 C 138.566406 68.371094 165.703125 67.757812 193.84375 67.144531 C 212.941406 66.535156 232.035156 66.226562 250.128906 65.617188 C 268.21875 65.003906 287.316406 64.390625 305.40625 64.390625 C 325.507812 64.085938 345.609375 64.699219 365.710938 64.390625 C 390.835938 64.390625 846.132812 63.78125 871.257812 63.472656 C 895.382812 63.167969 919.503906 62.863281 944.628906 62.863281 C 985.835938 62.554688 1026.039062 62.25 1067.246094 62.25 C 1084.332031 62.25 1102.425781 62.863281 1119.511719 62.863281 C 1166.75 63.167969 1214.992188 63.472656 1262.230469 64.085938 C 1287.359375 64.390625 1312.484375 65.308594 1337.609375 66.226562 C 1343.640625 66.226562 1349.671875 66.226562 1354.695312 66.226562 C 1360.308594 66.535156 1362.453125 67.144531 1364.898438 67.453125 Z M 1367.347656 757.980469 C 1367.652344 754.003906 1367.960938 750.945312 1367.960938 747.882812 C 1367.652344 717.777344 1367.347656 689.375 1367.347656 658.832031 C 1367.347656 644.898438 1367.960938 630.964844 1367.652344 617.03125 C 1367.652344 604.171875 1367.347656 590.773438 1367.042969 577.914062 C 1365.816406 558.085938 1363.0625 147.597656 1363.0625 127.769531 C 1362.453125 111.15625 1361.839844 94.007812 1361.226562 77.550781 C 1360.921875 72.960938 1360.617188 72.652344 1351.683594 72.347656 C 1348.667969 72.347656 1346.65625 72.347656 1343.640625 72.042969 C 1318.515625 71.125 1292.382812 69.898438 1267.257812 69.59375 C 1205.945312 68.675781 1143.632812 68.371094 1082.324219 67.757812 C 1073.277344 67.757812 1063.226562 67.757812 1054.183594 67.757812 C 1039.105469 67.757812 1024.03125 67.757812 1009.957031 67.757812 C 977.796875 67.757812 945.632812 67.757812 914.476562 68.0625 C 887.339844 68.371094 430.035156 69.289062 402.898438 69.289062 C 358.675781 69.289062 314.453125 68.675781 270.230469 70.207031 C 247.113281 71.125 225 71.125 202.890625 71.429688 C 164.699219 72.347656 126.503906 73.265625 90.515625 74.488281 C 87.457031 74.488281 86.84375 75.101562 86.539062 79.539062 C 86.230469 89.1875 86.230469 98.832031 85.925781 108.476562 C 85.621094 124.554688 85.007812 140.09375 84.703125 156.171875 C 83.476562 173.320312 85.007812 592.382812 85.621094 609.53125 C 85.621094 627.75 85.621094 646.503906 85.925781 664.726562 C 85.925781 678.121094 86.539062 691.519531 86.539062 704.917969 C 86.539062 719.386719 86.539062 733.855469 86.230469 747.882812 C 86.230469 748.800781 86.230469 749.414062 86.230469 750.332031 C 86.230469 752.78125 87.148438 753.699219 89.292969 753.699219 C 97.359375 753.699219 111.429688 754.003906 124.496094 754.003906 C 143.589844 754.003906 163.691406 753.390625 182.789062 754.003906 C 213.945312 754.921875 245.101562 755.535156 276.261719 755.226562 C 296.359375 754.921875 315.457031 755.535156 335.558594 755.535156 C 364.707031 755.535156 393.851562 755.226562 423 755.535156 C 466.21875 755.839844 940.609375 753.390625 984.832031 754.003906 C 1003.929688 754.308594 1023.023438 754.617188 1041.117188 754.617188 C 1074.28125 755.226562 1106.445312 754.308594 1139.613281 755.226562 C 1166.75 755.839844 1193.886719 755.839844 1221.023438 756.453125 C 1261.226562 757.371094 1301.429688 757.980469 1341.632812 758.289062 C 1356.707031 758.289062 1362.453125 757.980469 1367.347656 757.980469 Z M 1367.347656 757.980469 " clip-rule="nonzero"/></clipPath><clipPath id="237c186cf6"><path d="M 1106 438.574219 L 1434 438.574219 L 1434 762 L 1106 762 Z M 1106 438.574219 " clip-rule="nonzero"/></clipPath><clipPath id="7950378f6a"><path d="M 167.273438 553.800781 L 345 553.800781 L 345 729 L 167.273438 729 Z M 167.273438 553.800781 " clip-rule="nonzero"/></clipPath></defs><rect x="-144" width="1728" fill="#ffffff" y="-80.999999" height="971.999992" fill-opacity="1"/><rect x="-144" width="1728" fill="#ebde70" y="-80.999999" height="971.999992" fill-opacity="1"/><g clip-path="url(#8726ce51e1)"><g clip-path="url(#fdea442c91)"><path fill="#ffffff" d="M 79.5 62.25 L 1373.453125 62.25 L 1373.453125 762.574219 L 79.5 762.574219 Z M 79.5 62.25 " fill-opacity="1" fill-rule="nonzero"/></g></g><g clip-path="url(#7c7de0bb5e)"><g clip-path="url(#ba68678d24)"><path fill="#000000" d="M 79.5 62.25 L 1373.453125 62.25 L 1373.453125 762.574219 L 79.5 762.574219 Z M 79.5 62.25 " fill-opacity="1" fill-rule="nonzero"/></g></g><path fill="#d2b1a2" d="M 36.246094 288.898438 C 34.585938 289.429688 32.941406 289.972656 31.332031 290.507812 C 13.109375 296.582031 -3.988281 313.074219 -11.203125 331.992188 C -20.519531 356.40625 -16.296875 382.960938 8.808594 400.890625 C 22.589844 410.730469 34.089844 412.386719 50.105469 414.386719 C 61.898438 415.859375 72.398438 416.285156 82.699219 414.820312 C 82.613281 417.449219 82.574219 420.09375 82.574219 422.769531 C 82.574219 434.324219 84.199219 449 89.476562 459.550781 C 96.355469 473.304688 109.222656 482.933594 123.050781 487.957031 C 142.722656 495.109375 160.582031 493.339844 175.554688 486.0625 C 189.597656 479.238281 201.765625 466.984375 209.292969 448.925781 C 211.921875 442.621094 213.527344 436.21875 214.40625 429.75 C 220.75 431.511719 227.484375 432.46875 234.25 432.449219 C 252.15625 432.402344 269.316406 425.59375 280.40625 414.507812 C 286.484375 408.429688 291.621094 396.84375 293.789062 388.914062 C 302.007812 358.785156 292.425781 318.769531 261.566406 303.34375 C 260.050781 302.585938 258.507812 301.882812 256.9375 301.222656 C 261.09375 295.503906 264.875 289.328125 267.398438 283.015625 C 270.117188 276.226562 272.886719 269.652344 273.707031 262.238281 C 274.40625 255.964844 274.449219 249.644531 273.558594 243.398438 C 271.230469 227.125 263.8125 216.753906 255.09375 209.648438 C 246.589844 202.714844 235.9375 198.644531 223.714844 198.070312 C 208.535156 197.355469 188.398438 204.566406 178.101562 208.308594 C 172.609375 210.304688 167.722656 213.355469 162.695312 216.289062 C 157.183594 219.503906 152.070312 222.910156 147.464844 227.191406 C 143.628906 216.914062 138.054688 207.195312 129.453125 200.03125 C 95.375 171.644531 49.246094 191.335938 35.347656 228.386719 C 32.277344 236.570312 29.054688 252.300781 29.753906 264.933594 C 30.277344 274.339844 32.804688 282.601562 36.246094 288.898438 " fill-opacity="1" fill-rule="evenodd"/><path fill="#c06641" d="M 115.667969 363.703125 C 116.667969 364.765625 117.746094 365.773438 118.890625 366.730469 C 147.789062 390.8125 171.777344 363.453125 173.007812 361.984375 C 175.796875 358.667969 192.941406 336.96875 173.316406 312.972656 C 172.996094 312.578125 170.53125 309.925781 169.546875 308.941406 C 154.550781 293.953125 130.203125 293.953125 115.207031 308.941406 C 100.214844 323.929688 100.214844 348.265625 115.207031 363.253906 L 115.667969 363.703125 " fill-opacity="1" fill-rule="evenodd"/><g clip-path="url(#237c186cf6)"><path fill="#c78469" d="M 1206.351562 508.785156 C 1204.332031 506.792969 1202.4375 504.988281 1200.699219 503.386719 C 1192.03125 495.394531 1182.839844 492.421875 1173.792969 492.539062 C 1162.371094 492.691406 1150.453125 498.492188 1140.027344 508.664062 C 1126.15625 522.199219 1114.550781 543.609375 1109.613281 559.933594 C 1106.847656 569.074219 1106.191406 577.046875 1107.015625 582.371094 C 1108.054688 589.136719 1113.257812 597.578125 1122.675781 604.632812 C 1131.253906 611.058594 1143.683594 617.21875 1153.046875 621.335938 C 1148.828125 622.410156 1144.597656 623.804688 1140.804688 625.710938 C 1132.945312 629.664062 1126.679688 635.554688 1123.148438 643.785156 C 1120.539062 649.871094 1120 657.109375 1121.269531 664.578125 C 1122.433594 671.414062 1125.203125 678.539062 1127.0625 683.808594 C 1130.027344 692.203125 1133.722656 700.054688 1138.046875 707.835938 C 1145.511719 721.25 1150.992188 733.84375 1165.539062 741.113281 C 1173.871094 745.273438 1181.007812 745.386719 1187.1875 743.75 C 1192.894531 742.238281 1198.023438 738.949219 1202.476562 734.226562 C 1206.679688 729.769531 1210.089844 723.332031 1214 718.894531 L 1217.40625 714.972656 C 1216.054688 721.484375 1215.035156 727.578125 1214.679688 732.410156 C 1213.917969 742.691406 1216.617188 750.058594 1219.25 753.5625 C 1220.921875 755.789062 1227.375 761.304688 1238.84375 761.863281 C 1253.550781 762.578125 1287.308594 759.699219 1291.480469 758.984375 C 1298.085938 757.84375 1309.707031 756.441406 1318.410156 752.972656 C 1324.8125 750.421875 1330.003906 746.753906 1333.453125 742.449219 C 1336.898438 738.144531 1338.945312 732.046875 1338.363281 724.804688 C 1338.121094 721.761719 1337.234375 718.269531 1336.261719 715.058594 C 1346.230469 721.96875 1355.320312 727.523438 1361.496094 730.371094 C 1371.761719 735.105469 1382.75 733.558594 1393.125 724.714844 C 1404.644531 714.90625 1416.441406 691.519531 1423.558594 670.21875 C 1429.175781 653.402344 1431.808594 637.96875 1431.292969 631.800781 C 1430.421875 621.316406 1424.203125 616.671875 1419.925781 614.75 C 1406.867188 608.875 1389.695312 606.617188 1370.898438 605.808594 C 1379.273438 603.023438 1387.554688 599.835938 1395.695312 596.5 C 1420.640625 586.273438 1430.605469 574.371094 1432.894531 562.214844 C 1434.996094 551.03125 1430.25 536.183594 1416.292969 515.804688 C 1410.957031 508.015625 1405.742188 499.417969 1399.003906 492.683594 C 1388.964844 482.652344 1376.886719 480.59375 1364.667969 483.132812 C 1356.289062 484.875 1347.824219 489.15625 1340.988281 493.316406 C 1337.4375 495.472656 1334 497.804688 1330.667969 500.292969 C 1331.894531 495.582031 1332.921875 490.972656 1333.605469 486.742188 C 1335.949219 472.289062 1333.199219 460.707031 1328.753906 455.152344 C 1324.992188 450.457031 1315.273438 445.027344 1301.746094 442.554688 C 1281.851562 438.910156 1251.773438 438.550781 1242.222656 439.109375 C 1238.132812 439.351562 1229.628906 439.25 1223.589844 441.148438 C 1216.863281 443.265625 1211.898438 447.308594 1208.996094 452.386719 C 1204.992188 459.386719 1203.171875 468.277344 1203.144531 477.742188 C 1203.113281 487.769531 1205.082031 498.550781 1206.0625 506.402344 L 1206.351562 508.785156 " fill-opacity="1" fill-rule="evenodd"/></g><path fill="#a4421b" d="M 1228.996094 576.074219 C 1228.164062 577.050781 1227.378906 578.070312 1226.644531 579.128906 C 1216.496094 593.722656 1215.714844 612.992188 1231.8125 626.390625 C 1238.398438 631.875 1245.496094 634.289062 1252.453125 634.226562 C 1254.828125 634.851562 1257.199219 635.117188 1259.523438 635.109375 C 1268.222656 635.085938 1277.128906 630.65625 1283.660156 622.796875 C 1292.570312 612.0625 1295.746094 595.589844 1290.820312 584.113281 C 1290.183594 580.152344 1288.890625 576.398438 1286.886719 573.058594 C 1275.957031 554.863281 1256.324219 554.121094 1240.507812 564.625 C 1235.964844 567.640625 1232.039062 571.585938 1228.996094 576.074219 " fill-opacity="1" fill-rule="evenodd"/><g clip-path="url(#7950378f6a)"><path fill="#c78469" d="M 221.464844 591.832031 C 220.371094 590.753906 219.347656 589.777344 218.410156 588.90625 C 213.734375 584.578125 208.769531 582.96875 203.886719 583.03125 C 197.71875 583.113281 191.285156 586.257812 185.660156 591.765625 C 178.167969 599.097656 171.902344 610.695312 169.238281 619.539062 C 167.746094 624.488281 167.390625 628.804688 167.835938 631.691406 C 168.398438 635.355469 171.207031 639.929688 176.289062 643.75 C 180.921875 647.230469 187.632812 650.566406 192.6875 652.796875 C 190.410156 653.378906 188.125 654.132812 186.078125 655.167969 C 181.835938 657.308594 178.453125 660.5 176.546875 664.957031 C 175.136719 668.253906 174.84375 672.175781 175.53125 676.21875 C 176.160156 679.921875 177.65625 683.78125 178.660156 686.636719 C 180.257812 691.183594 182.253906 695.4375 184.589844 699.648438 C 188.617188 706.917969 191.574219 713.738281 199.429688 717.675781 C 203.925781 719.929688 207.78125 719.992188 211.117188 719.105469 C 214.199219 718.285156 216.96875 716.503906 219.371094 713.945312 C 221.640625 711.53125 223.480469 708.042969 225.589844 705.640625 L 227.429688 703.515625 C 226.699219 707.042969 226.152344 710.34375 225.957031 712.960938 C 225.546875 718.53125 227.003906 722.519531 228.425781 724.417969 C 229.328125 725.625 232.8125 728.613281 239.003906 728.914062 C 246.945312 729.300781 265.167969 727.746094 267.417969 727.355469 C 270.984375 726.738281 277.257812 725.980469 281.957031 724.101562 C 285.414062 722.71875 288.21875 720.730469 290.078125 718.398438 C 291.9375 716.066406 293.042969 712.765625 292.730469 708.84375 C 292.597656 707.195312 292.117188 705.300781 291.59375 703.5625 C 296.976562 707.304688 301.882812 710.316406 305.214844 711.859375 C 310.757812 714.421875 316.691406 713.582031 322.292969 708.792969 C 328.511719 703.480469 334.878906 690.8125 338.722656 679.277344 C 341.753906 670.164062 343.175781 661.804688 342.898438 658.464844 C 342.425781 652.785156 339.070312 650.269531 336.761719 649.230469 C 329.710938 646.046875 320.441406 644.824219 310.292969 644.386719 C 314.816406 642.878906 319.285156 641.152344 323.679688 639.34375 C 337.144531 633.804688 342.527344 627.355469 343.761719 620.773438 C 344.898438 614.714844 342.335938 606.671875 334.800781 595.632812 C 331.917969 591.414062 329.105469 586.757812 325.464844 583.109375 C 320.046875 577.675781 313.527344 576.5625 306.929688 577.9375 C 302.40625 578.882812 297.835938 581.199219 294.144531 583.453125 C 292.230469 584.621094 290.371094 585.886719 288.574219 587.230469 C 289.238281 584.679688 289.792969 582.183594 290.160156 579.890625 C 291.425781 572.0625 289.941406 565.789062 287.542969 562.78125 C 285.511719 560.238281 280.265625 557.296875 272.960938 555.957031 C 262.21875 553.980469 245.984375 553.789062 240.828125 554.09375 C 238.621094 554.222656 234.027344 554.164062 230.769531 555.195312 C 227.136719 556.34375 224.457031 558.53125 222.890625 561.285156 C 220.730469 565.074219 219.746094 569.890625 219.730469 575.015625 C 219.714844 580.449219 220.777344 586.289062 221.308594 590.542969 L 221.464844 591.832031 " fill-opacity="1" fill-rule="evenodd"/></g><path fill="#a4421b" d="M 233.6875 628.277344 C 233.238281 628.808594 232.8125 629.363281 232.417969 629.933594 C 226.9375 637.839844 226.519531 648.277344 235.207031 655.535156 C 238.765625 658.507812 242.59375 659.8125 246.351562 659.777344 C 247.632812 660.117188 248.910156 660.261719 250.167969 660.257812 C 254.863281 660.246094 259.671875 657.84375 263.195312 653.585938 C 268.007812 647.773438 269.722656 638.851562 267.0625 632.632812 C 266.71875 630.488281 266.023438 628.457031 264.941406 626.648438 C 259.039062 616.789062 248.441406 616.386719 239.902344 622.078125 C 237.449219 623.710938 235.328125 625.847656 233.6875 628.277344 " fill-opacity="1" fill-rule="evenodd"/><path fill="#d2b1a2" d="M 1290.0625 216.835938 C 1289.125 217.136719 1288.195312 217.441406 1287.285156 217.746094 C 1276.988281 221.175781 1267.328125 230.488281 1263.25 241.175781 C 1257.984375 254.964844 1260.371094 269.964844 1274.558594 280.089844 C 1282.347656 285.652344 1288.84375 286.585938 1297.894531 287.714844 C 1304.5625 288.546875 1310.496094 288.789062 1316.316406 287.960938 C 1316.265625 289.445312 1316.242188 290.9375 1316.242188 292.449219 C 1316.242188 298.976562 1317.160156 307.265625 1320.144531 313.226562 C 1324.03125 320.996094 1331.304688 326.433594 1339.117188 329.269531 C 1350.234375 333.308594 1360.328125 332.308594 1368.789062 328.199219 C 1376.726562 324.347656 1383.601562 317.421875 1387.855469 307.222656 C 1389.339844 303.664062 1390.246094 300.046875 1390.746094 296.390625 C 1394.328125 297.386719 1398.136719 297.925781 1401.960938 297.917969 C 1412.078125 297.890625 1421.773438 294.046875 1428.042969 287.78125 C 1431.476562 284.351562 1434.382812 277.804688 1435.605469 273.328125 C 1440.25 256.308594 1434.835938 233.707031 1417.394531 224.996094 C 1416.539062 224.566406 1415.667969 224.167969 1414.777344 223.796875 C 1417.128906 220.566406 1419.265625 217.078125 1420.691406 213.511719 C 1422.226562 209.679688 1423.792969 205.964844 1424.257812 201.777344 C 1424.652344 198.234375 1424.675781 194.664062 1424.171875 191.136719 C 1422.859375 181.945312 1418.664062 176.085938 1413.738281 172.070312 C 1408.929688 168.15625 1402.910156 165.855469 1396.003906 165.53125 C 1387.425781 165.128906 1376.046875 169.203125 1370.226562 171.316406 C 1367.125 172.441406 1364.363281 174.167969 1361.523438 175.824219 C 1358.40625 177.636719 1355.515625 179.5625 1352.914062 181.980469 C 1350.75 176.175781 1347.597656 170.6875 1342.738281 166.640625 C 1323.476562 150.605469 1297.410156 161.730469 1289.554688 182.65625 C 1287.820312 187.277344 1286 196.164062 1286.394531 203.296875 C 1286.691406 208.613281 1288.117188 213.277344 1290.0625 216.835938 " fill-opacity="1" fill-rule="evenodd"/><path fill="#c06641" d="M 1334.945312 259.089844 C 1335.511719 259.6875 1336.121094 260.257812 1336.765625 260.796875 C 1353.097656 274.402344 1366.65625 258.945312 1367.347656 258.117188 C 1368.925781 256.242188 1378.613281 243.988281 1367.523438 230.433594 C 1367.34375 230.210938 1365.949219 228.710938 1365.394531 228.15625 C 1356.917969 219.6875 1343.160156 219.6875 1334.6875 228.15625 C 1326.214844 236.621094 1326.214844 250.367188 1334.6875 258.835938 L 1334.945312 259.089844 " fill-opacity="1" fill-rule="evenodd"/><path fill="#000000" d="M 612.328125 355.441406 C 612.328125 356.152344 612.257812 356.855469 612.121094 357.550781 C 611.980469 358.25 611.777344 358.925781 611.503906 359.582031 C 611.230469 360.238281 610.898438 360.863281 610.503906 361.453125 C 610.109375 362.042969 609.660156 362.589844 609.15625 363.09375 C 608.65625 363.59375 608.109375 364.042969 607.519531 364.4375 C 606.925781 364.832031 606.304688 365.167969 605.648438 365.4375 C 604.992188 365.710938 604.3125 365.914062 603.617188 366.054688 C 602.921875 366.191406 602.214844 366.261719 601.503906 366.261719 C 600.796875 366.261719 600.089844 366.191406 599.394531 366.054688 C 598.699219 365.914062 598.019531 365.710938 597.363281 365.4375 C 596.707031 365.167969 596.082031 364.832031 595.492188 364.4375 C 594.902344 364.042969 594.355469 363.59375 593.851562 363.09375 C 593.351562 362.589844 592.902344 362.042969 592.507812 361.453125 C 592.113281 360.863281 591.777344 360.238281 591.507812 359.582031 C 591.234375 358.925781 591.03125 358.25 590.890625 357.550781 C 590.753906 356.855469 590.683594 356.152344 590.683594 355.441406 C 590.683594 354.730469 590.753906 354.027344 590.890625 353.328125 C 591.03125 352.632812 591.234375 351.957031 591.507812 351.296875 C 591.777344 350.640625 592.113281 350.019531 592.507812 349.425781 C 592.902344 348.835938 593.351562 348.289062 593.851562 347.789062 C 594.355469 347.285156 594.902344 346.835938 595.492188 346.441406 C 596.082031 346.046875 596.707031 345.714844 597.363281 345.441406 C 598.019531 345.167969 598.699219 344.964844 599.394531 344.824219 C 600.089844 344.6875 600.796875 344.617188 601.503906 344.617188 C 602.214844 344.617188 602.921875 344.6875 603.617188 344.824219 C 604.3125 344.964844 604.992188 345.167969 605.648438 345.441406 C 606.304688 345.714844 606.925781 346.046875 607.519531 346.441406 C 608.109375 346.835938 608.65625 347.285156 609.15625 347.789062 C 609.660156 348.289062 610.109375 348.835938 610.503906 349.425781 C 610.898438 350.019531 611.230469 350.640625 611.503906 351.296875 C 611.777344 351.957031 611.980469 352.632812 612.121094 353.328125 C 612.257812 354.027344 612.328125 354.730469 612.328125 355.441406 Z M 612.328125 355.441406 " fill-opacity="1" fill-rule="nonzero"/><g fill="#000000" fill-opacity="1"><g transform="translate(641.44652, 377.084681)"><g><path d="M 10.25 0.453125 C 18.683594 0.453125 20.175781 -7.785156 20.175781 -21.796875 L 20.238281 -34.445312 C 20.238281 -36.976562 20.5 -40.152344 20.5 -42.75 C 20.5 -44.433594 20.175781 -45.863281 16.734375 -45.863281 C 13.558594 -45.863281 13.429688 -44.046875 13.429688 -41.96875 C 13.429688 -39.570312 13.6875 -36.714844 13.6875 -34.445312 C 13.753906 -28.671875 13.816406 -23.742188 13.816406 -18.617188 C 13.816406 -9.988281 12.648438 -5.449219 10.445312 -5.449219 C 8.042969 -5.449219 6.8125 -8.367188 6.8125 -13.945312 C 6.8125 -16.476562 5.253906 -16.542969 3.632812 -16.542969 C 1.296875 -16.542969 0.648438 -15.050781 0.648438 -14.140625 C 0.648438 -4.996094 4.214844 0.453125 10.25 0.453125 Z M 10.25 0.453125 "/></g></g></g><g fill="#000000" fill-opacity="1"><g transform="translate(663.890147, 377.084681)"><g><path d="M 11.15625 0.648438 C 17.125 0.648438 22.445312 -2.074219 22.445312 -8.171875 C 22.445312 -15.570312 17.386719 -16.085938 11.9375 -21.277344 C 8.433594 -24.585938 7.65625 -28.476562 7.65625 -30.554688 C 7.65625 -36.910156 9.601562 -40.21875 11.871094 -40.21875 C 13.882812 -40.21875 15.570312 -37.105469 15.570312 -31.203125 C 15.570312 -29.191406 15.375 -27.113281 14.984375 -25.234375 C 14.984375 -22.832031 16.023438 -21.992188 18.035156 -21.992188 C 19.589844 -21.992188 20.5 -22.832031 20.824219 -24.390625 C 21.40625 -27.179688 21.796875 -30.230469 21.796875 -33.082031 C 21.796875 -41.710938 18.421875 -46.25 11.871094 -46.25 C 5.058594 -46.25 1.039062 -40.933594 1.039062 -29.582031 C 1.039062 -25.039062 2.464844 -18.164062 14.078125 -10.636719 C 14.660156 -10.25 15.632812 -9.472656 15.632812 -8.433594 C 15.632812 -6.746094 13.558594 -5.773438 11.480469 -5.773438 C 8.820312 -5.773438 6.875 -6.8125 5.96875 -8.496094 C 5.191406 -9.925781 4.085938 -10.636719 2.722656 -10.636719 C 1.816406 -10.636719 1.039062 -9.988281 1.039062 -8.171875 C 1.039062 -3.179688 5.839844 0.648438 11.15625 0.648438 Z M 11.15625 0.648438 "/></g></g></g><g fill="#000000" fill-opacity="1"><g transform="translate(688.279754, 377.084681)"><g/></g></g><g fill="#000000" fill-opacity="1"><g transform="translate(702.550269, 377.084681)"><g><path d="M 5.449219 0.582031 C 7.980469 0.582031 8.757812 -1.039062 8.757812 -3.242188 L 8.757812 -13.234375 C 8.757812 -15.375 9.730469 -15.308594 11.15625 -15.375 C 17.191406 -15.375 21.40625 -20.175781 21.40625 -28.089844 C 21.40625 -36.003906 18.941406 -46.511719 9.859375 -46.511719 C 4.929688 -46.511719 1.945312 -46.382812 1.945312 -42.292969 C 1.945312 -40.023438 2.207031 -36.519531 2.207031 -34.445312 C 2.269531 -28.671875 2.335938 -23.742188 2.335938 -18.617188 C 2.335938 -15.246094 2.269531 -11.742188 2.207031 -7.847656 C 2.140625 -6.164062 2.140625 -3.242188 2.140625 -3.242188 C 2.140625 -1.039062 2.917969 0.582031 5.449219 0.582031 Z M 11.417969 -22.769531 C 9.40625 -22.769531 8.628906 -24 8.628906 -25.753906 L 8.5625 -36.003906 C 8.5625 -39.179688 8.628906 -40.671875 10.183594 -40.671875 C 12.585938 -40.671875 14.984375 -36.066406 14.984375 -30.230469 C 14.984375 -25.753906 13.558594 -22.769531 11.417969 -22.769531 Z M 11.417969 -22.769531 "/></g></g></g><g fill="#000000" fill-opacity="1"><g transform="translate(726.485805, 377.084681)"><g><path d="M 20.109375 0.714844 C 21.34375 0.714844 23.222656 0.257812 23.222656 -1.296875 C 23.222656 -2.789062 22.183594 -3.242188 19.199219 -8.042969 C 17.644531 -10.507812 16.410156 -13.753906 15.761719 -16.671875 C 16.605469 -17.125 17.515625 -17.839844 18.550781 -18.746094 C 19.914062 -20.042969 21.40625 -23.15625 21.40625 -28.089844 C 21.40625 -33.210938 18.941406 -46.511719 9.859375 -46.511719 C 4.929688 -46.511719 1.945312 -45.40625 1.945312 -41.320312 C 1.945312 -39.050781 2.207031 -36.519531 2.207031 -34.445312 C 2.269531 -28.671875 2.335938 -23.742188 2.335938 -18.617188 C 2.335938 -15.246094 2.269531 -11.742188 2.207031 -7.847656 C 2.140625 -6.164062 2.140625 -3.242188 2.140625 -3.242188 C 2.140625 -1.039062 2.917969 0.582031 5.449219 0.582031 C 8.628906 0.582031 8.820312 -1.039062 8.820312 -3.242188 C 8.820312 -3.242188 8.820312 -6.164062 8.757812 -7.847656 C 8.691406 -9.015625 8.691406 -9.988281 8.691406 -10.769531 C 8.691406 -12.453125 8.757812 -13.492188 8.953125 -14.140625 C 9.015625 -14.402344 9.210938 -14.53125 9.40625 -14.53125 C 9.664062 -14.53125 9.988281 -14.269531 10.054688 -13.882812 C 10.832031 -10.574219 13.167969 -6.355469 14.789062 -3.699219 C 16.21875 -1.296875 17.386719 0 19.070312 0.582031 C 19.265625 0.648438 19.65625 0.714844 20.109375 0.714844 Z M 11.417969 -22.769531 C 9.40625 -22.769531 8.628906 -24 8.628906 -25.753906 L 8.628906 -36.003906 C 8.5625 -39.179688 8.628906 -40.671875 10.183594 -40.671875 C 12.585938 -40.671875 14.984375 -36.066406 14.984375 -30.230469 C 14.984375 -25.753906 13.558594 -22.769531 11.417969 -22.769531 Z M 11.417969 -22.769531 "/></g></g></g><g fill="#000000" fill-opacity="1"><g transform="translate(749.837556, 377.084681)"><g><path d="M 14.078125 0.453125 C 21.082031 0.453125 26.207031 -8.367188 26.207031 -23.222656 C 26.207031 -30.097656 24.972656 -35.808594 22.898438 -39.828125 C 20.757812 -43.917969 17.710938 -46.25 14.078125 -46.25 C 6.875 -46.25 1.945312 -37.039062 1.945312 -23.222656 C 1.945312 -8.367188 7.070312 0.453125 14.078125 0.453125 Z M 14.078125 -5.449219 C 10.574219 -5.449219 8.238281 -12.84375 8.238281 -23.808594 C 8.238281 -33.667969 10.574219 -40.347656 14.078125 -40.347656 C 15.503906 -40.347656 16.734375 -39.179688 17.710938 -37.167969 C 19.136719 -34.316406 19.914062 -29.582031 19.914062 -23.808594 C 19.914062 -12.84375 17.578125 -5.449219 14.078125 -5.449219 Z M 14.078125 -5.449219 "/></g></g></g><g fill="#000000" fill-opacity="1"><g transform="translate(777.989378, 377.084681)"><g><path d="M 3.242188 0.648438 C 5.644531 0.648438 6.550781 0.324219 7.199219 -1.558594 C 7.460938 -2.269531 7.71875 -3.699219 8.109375 -5.449219 C 8.5625 -7.394531 9.796875 -20.5 10.121094 -23.546875 C 10.183594 -24.195312 10.445312 -24.78125 10.636719 -24.78125 C 10.832031 -24.78125 11.027344 -24.324219 11.15625 -23.15625 C 11.417969 -20.5625 13.753906 -8.367188 14.140625 -6.355469 C 14.53125 -4.347656 16.867188 -3.4375 18.359375 -3.4375 C 19.851562 -3.4375 22.121094 -4.347656 22.507812 -6.355469 C 22.898438 -8.367188 25.234375 -20.5625 25.492188 -23.15625 C 25.625 -24.324219 25.816406 -24.78125 26.011719 -24.78125 C 26.207031 -24.78125 26.464844 -24.195312 26.53125 -23.546875 C 26.855469 -20.5 28.089844 -7.394531 28.542969 -5.449219 C 28.929688 -3.699219 29.191406 -2.269531 29.449219 -1.558594 C 30.097656 0.324219 31.007812 0.648438 33.40625 0.648438 C 35.289062 0.648438 36.003906 -0.390625 36.003906 -1.75 C 36.003906 -2.074219 35.9375 -2.464844 35.871094 -2.789062 C 35.679688 -3.566406 35.09375 -8.757812 34.511719 -14.078125 C 33.667969 -22.121094 32.5 -38.402344 31.980469 -41.96875 C 31.65625 -44.046875 31.136719 -45.992188 27.957031 -45.992188 C 24.519531 -45.992188 23.742188 -45.148438 23.222656 -42.75 C 22.507812 -39.308594 21.992188 -36.84375 21.601562 -34.445312 L 19.070312 -19.265625 C 19.007812 -18.683594 18.683594 -18.359375 18.359375 -18.359375 C 18.035156 -18.359375 17.710938 -18.683594 17.578125 -19.265625 L 15.050781 -34.445312 C 14.660156 -36.84375 14.140625 -39.308594 13.429688 -42.75 C 12.910156 -45.148438 12.128906 -45.992188 8.691406 -45.992188 C 5.515625 -45.992188 4.863281 -44.046875 4.671875 -41.96875 C 4.214844 -37.558594 3.632812 -22.121094 2.335938 -14.078125 C 1.492188 -8.820312 0.972656 -3.828125 0.777344 -2.789062 C 0.714844 -2.335938 0.648438 -1.882812 0.648438 -1.492188 C 0.648438 -0.0664062 1.363281 0.648438 3.242188 0.648438 Z M 3.242188 0.648438 "/></g></g></g><g fill="#000000" fill-opacity="1"><g transform="translate(307.669503, 211.161221)"><g><path d="M 42.359375 -31.3125 C 42.597656 -31.3125 42.71875 -31.394531 42.71875 -31.5625 C 42.5625 -33 42.5 -34.71875 42.53125 -36.71875 C 42.570312 -38.71875 42.632812 -40.695312 42.71875 -42.65625 C 42.800781 -44.613281 42.820312 -46.394531 42.78125 -48 C 42.738281 -49.601562 42.597656 -50.679688 42.359375 -51.234375 C 41.484375 -51.160156 40.40625 -51.082031 39.125 -51 C 37.84375 -50.914062 36.519531 -50.875 35.15625 -50.875 C 33.800781 -50.875 32.421875 -50.894531 31.015625 -50.9375 C 29.617188 -50.976562 28.359375 -51.078125 27.234375 -51.234375 C 27.160156 -51.234375 27.082031 -51.273438 27 -51.359375 C 26.28125 -52.640625 25.835938 -54.238281 25.671875 -56.15625 C 25.515625 -58.082031 25.878906 -60.082031 26.765625 -62.15625 C 29.242188 -62.394531 31.898438 -62.59375 34.734375 -62.75 C 37.578125 -62.914062 40.414062 -63.054688 43.25 -63.171875 C 46.09375 -63.296875 48.851562 -63.4375 51.53125 -63.59375 C 54.21875 -63.757812 56.640625 -63.921875 58.796875 -64.078125 C 58.878906 -65.117188 58.921875 -66.414062 58.921875 -67.96875 C 58.921875 -69.53125 58.921875 -71.171875 58.921875 -72.890625 C 58.921875 -74.617188 58.898438 -76.28125 58.859375 -77.875 C 58.816406 -79.476562 58.796875 -80.800781 58.796875 -81.84375 C 56.554688 -82.40625 53.875 -82.84375 50.75 -83.15625 C 47.632812 -83.476562 44.316406 -83.660156 40.796875 -83.703125 C 37.273438 -83.742188 33.691406 -83.703125 30.046875 -83.578125 C 26.410156 -83.460938 22.972656 -83.285156 19.734375 -83.046875 C 16.492188 -82.804688 13.59375 -82.5625 11.03125 -82.3125 C 8.476562 -82.070312 6.519531 -81.832031 5.15625 -81.59375 L 5.15625 -81.484375 C 5.15625 -75.242188 5.15625 -69.582031 5.15625 -64.5 C 5.15625 -59.414062 5.132812 -54.675781 5.09375 -50.28125 C 5.0625 -45.882812 5.046875 -41.703125 5.046875 -37.734375 C 5.046875 -33.773438 5.023438 -29.835938 4.984375 -25.921875 C 4.941406 -22.003906 4.921875 -17.941406 4.921875 -13.734375 C 4.921875 -9.535156 4.921875 -5.035156 4.921875 -0.234375 L 5.046875 -0.125 C 5.359375 0.0390625 6.332031 0.160156 7.96875 0.234375 C 9.613281 0.316406 11.515625 0.359375 13.671875 0.359375 C 15.835938 0.359375 18.019531 0.316406 20.21875 0.234375 C 22.414062 0.160156 24.316406 0.0390625 25.921875 -0.125 C 26.003906 -4.675781 26.082031 -9.453125 26.15625 -14.453125 C 26.238281 -19.453125 26.476562 -24.472656 26.875 -29.515625 L 27 -29.515625 C 29.394531 -29.921875 31.929688 -30.222656 34.609375 -30.421875 C 37.296875 -30.617188 39.878906 -30.914062 42.359375 -31.3125 Z M 42.359375 -31.3125 "/></g></g></g><g fill="#000000" fill-opacity="1"><g transform="translate(366.949529, 211.161221)"><g><path d="M 55.5625 -16.3125 C 50.125 -16.15625 44.84375 -16.21875 39.71875 -16.5 C 34.601562 -16.78125 29.40625 -16.921875 24.125 -16.921875 L 24 -17.046875 C 23.84375 -18.960938 23.703125 -21.359375 23.578125 -24.234375 C 23.460938 -27.117188 23.601562 -29.722656 24 -32.046875 C 24.394531 -32.359375 25.148438 -32.554688 26.265625 -32.640625 C 27.390625 -32.722656 28.648438 -32.765625 30.046875 -32.765625 C 31.453125 -32.765625 32.914062 -32.78125 34.4375 -32.8125 C 35.957031 -32.851562 37.316406 -33.035156 38.515625 -33.359375 C 38.441406 -36.316406 38.484375 -39.15625 38.640625 -41.875 C 38.796875 -44.59375 38.675781 -47.316406 38.28125 -50.046875 L 38.28125 -50.15625 C 35.800781 -50.238281 33.320312 -50.28125 30.84375 -50.28125 C 28.363281 -50.28125 25.921875 -50.359375 23.515625 -50.515625 L 23.40625 -50.640625 C 22.84375 -52.796875 22.703125 -55.09375 22.984375 -57.53125 C 23.265625 -59.976562 23.363281 -62.363281 23.28125 -64.6875 L 23.40625 -64.796875 L 23.765625 -64.796875 C 26.398438 -65.035156 29.035156 -65.15625 31.671875 -65.15625 C 34.316406 -65.15625 36.957031 -65.132812 39.59375 -65.09375 C 42.238281 -65.0625 44.859375 -65.101562 47.453125 -65.21875 C 50.054688 -65.34375 52.640625 -65.679688 55.203125 -66.234375 L 55.203125 -66.359375 C 55.203125 -69.160156 55.300781 -72 55.5 -74.875 C 55.695312 -77.757812 55.597656 -80.601562 55.203125 -83.40625 C 55.203125 -83.476562 54.398438 -83.554688 52.796875 -83.640625 C 51.203125 -83.722656 49.082031 -83.765625 46.4375 -83.765625 C 43.800781 -83.765625 40.757812 -83.722656 37.3125 -83.640625 C 33.875 -83.554688 30.316406 -83.472656 26.640625 -83.390625 C 22.960938 -83.316406 19.300781 -83.21875 15.65625 -83.09375 C 12.019531 -82.976562 8.640625 -82.84375 5.515625 -82.6875 C 5.117188 -75.800781 4.878906 -68.957031 4.796875 -62.15625 C 4.722656 -55.351562 4.722656 -48.550781 4.796875 -41.75 C 4.878906 -34.957031 5 -28.140625 5.15625 -21.296875 C 5.320312 -14.460938 5.40625 -7.5625 5.40625 -0.59375 C 13.164062 0.0390625 21.265625 0.21875 29.703125 -0.0625 C 38.140625 -0.34375 46.4375 -0.441406 54.59375 -0.359375 C 55.238281 -2.753906 55.597656 -5.332031 55.671875 -8.09375 C 55.753906 -10.851562 55.71875 -13.515625 55.5625 -16.078125 Z M 55.5625 -16.3125 "/></g></g></g><g fill="#000000" fill-opacity="1"><g transform="translate(424.669554, 211.161221)"><g><path d="M 47.40625 -39.71875 C 47 -40.195312 46.710938 -40.597656 46.546875 -40.921875 C 46.390625 -41.242188 46.472656 -41.679688 46.796875 -42.234375 C 48.398438 -44.953125 49.78125 -47.910156 50.9375 -51.109375 C 52.101562 -54.316406 52.6875 -57.597656 52.6875 -60.953125 C 52.6875 -65.441406 51.960938 -69.222656 50.515625 -72.296875 C 49.078125 -75.378906 47.117188 -77.898438 44.640625 -79.859375 C 42.160156 -81.816406 39.300781 -83.234375 36.0625 -84.109375 C 32.820312 -84.992188 29.441406 -85.515625 25.921875 -85.671875 C 22.398438 -85.835938 18.835938 -85.679688 15.234375 -85.203125 C 11.640625 -84.722656 8.242188 -84.039062 5.046875 -83.15625 L 4.921875 -83.046875 C 5.160156 -69.117188 5.160156 -55.332031 4.921875 -41.6875 C 4.679688 -28.050781 4.800781 -14.316406 5.28125 -0.484375 C 5.675781 -0.316406 6.09375 -0.234375 6.53125 -0.234375 C 6.976562 -0.234375 7.441406 -0.234375 7.921875 -0.234375 C 10.796875 -0.160156 13.894531 -0.00390625 17.21875 0.234375 C 20.539062 0.472656 23.859375 0.570312 27.171875 0.53125 C 30.492188 0.5 33.710938 0.265625 36.828125 -0.171875 C 39.953125 -0.617188 42.796875 -1.484375 45.359375 -2.765625 C 47.921875 -4.046875 50.097656 -5.863281 51.890625 -8.21875 C 53.691406 -10.582031 54.914062 -13.644531 55.5625 -17.40625 C 56.039062 -19.957031 56.117188 -22.273438 55.796875 -24.359375 C 55.472656 -26.441406 54.890625 -28.34375 54.046875 -30.0625 C 53.210938 -31.78125 52.210938 -33.414062 51.046875 -34.96875 C 49.890625 -36.53125 48.675781 -38.113281 47.40625 -39.71875 Z M 36.125 -19.796875 C 35.320312 -18.835938 34.378906 -18.140625 33.296875 -17.703125 C 32.222656 -17.265625 31.0625 -16.984375 29.8125 -16.859375 C 28.570312 -16.742188 27.332031 -16.703125 26.09375 -16.734375 C 24.851562 -16.773438 23.675781 -16.796875 22.5625 -16.796875 L 22.3125 -16.921875 C 21.675781 -17.878906 21.238281 -19.078125 21 -20.515625 C 20.757812 -21.960938 20.660156 -23.460938 20.703125 -25.015625 C 20.742188 -26.578125 20.882812 -28.117188 21.125 -29.640625 C 21.363281 -31.160156 21.640625 -32.519531 21.953125 -33.71875 C 23.472656 -33.5625 25.035156 -33.460938 26.640625 -33.421875 C 28.242188 -33.378906 29.800781 -33.160156 31.3125 -32.765625 C 32.351562 -32.523438 33.351562 -32.023438 34.3125 -31.265625 C 35.28125 -30.503906 36.003906 -29.644531 36.484375 -28.6875 C 37.035156 -27.320312 37.332031 -25.796875 37.375 -24.109375 C 37.414062 -22.429688 37 -20.992188 36.125 -19.796875 Z M 36 -54 C 35.363281 -52.800781 34.503906 -51.898438 33.421875 -51.296875 C 32.335938 -50.703125 31.15625 -50.320312 29.875 -50.15625 C 28.59375 -50 27.269531 -49.957031 25.90625 -50.03125 C 24.550781 -50.113281 23.273438 -50.238281 22.078125 -50.40625 C 21.359375 -53.195312 21.140625 -55.910156 21.421875 -58.546875 C 21.703125 -61.191406 21.757812 -63.4375 21.59375 -65.28125 C 22.800781 -65.914062 24.300781 -66.210938 26.09375 -66.171875 C 27.894531 -66.140625 29.597656 -65.960938 31.203125 -65.640625 C 32.484375 -65.316406 33.625 -64.816406 34.625 -64.140625 C 35.625 -63.460938 36.441406 -62.484375 37.078125 -61.203125 C 37.722656 -59.921875 37.84375 -58.640625 37.4375 -57.359375 C 37.039062 -56.078125 36.5625 -54.957031 36 -54 Z M 36 -54 "/></g></g></g><g fill="#000000" fill-opacity="1"><g transform="translate(481.90958, 211.161221)"><g><path d="M 61.921875 -0.359375 C 60.722656 -3.640625 59.242188 -6.816406 57.484375 -9.890625 C 55.722656 -12.972656 53.878906 -15.992188 51.953125 -18.953125 C 50.035156 -21.921875 48.078125 -24.863281 46.078125 -27.78125 C 44.078125 -30.695312 42.238281 -33.632812 40.5625 -36.59375 L 40.5625 -36.71875 L 41.15625 -36.71875 C 45 -36.957031 48.179688 -38.035156 50.703125 -39.953125 C 53.222656 -41.878906 55.242188 -44.28125 56.765625 -47.15625 C 59.242188 -51.320312 60.421875 -55.625 60.296875 -60.0625 C 60.179688 -64.5 59.082031 -68.554688 57 -72.234375 C 54.914062 -75.921875 51.992188 -79.003906 48.234375 -81.484375 C 44.472656 -83.960938 40.234375 -85.320312 35.515625 -85.5625 C 29.679688 -86.195312 24.082031 -86.234375 18.71875 -85.671875 C 13.363281 -85.117188 8.441406 -84.519531 3.953125 -83.875 C 4.117188 -82.832031 4.257812 -80.851562 4.375 -77.9375 C 4.5 -75.019531 4.597656 -71.5 4.671875 -67.375 C 4.753906 -63.257812 4.851562 -58.738281 4.96875 -53.8125 C 5.09375 -48.894531 5.175781 -43.9375 5.21875 -38.9375 C 5.257812 -33.9375 5.28125 -29.097656 5.28125 -24.421875 C 5.28125 -19.742188 5.28125 -15.601562 5.28125 -12 C 5.28125 -8.394531 5.238281 -5.492188 5.15625 -3.296875 C 5.082031 -1.097656 4.960938 0 4.796875 0 C 5.203125 -0.0820312 6.265625 -0.0820312 7.984375 0 C 9.703125 0.0820312 11.640625 0.101562 13.796875 0.0625 C 15.960938 0.0195312 18.144531 -0.078125 20.34375 -0.234375 C 22.539062 -0.398438 24.320312 -0.757812 25.6875 -1.3125 C 25.601562 -2.832031 25.476562 -4.875 25.3125 -7.4375 C 25.15625 -10 25.015625 -12.695312 24.890625 -15.53125 C 24.773438 -18.375 24.71875 -21.132812 24.71875 -23.8125 C 24.71875 -26.5 24.835938 -28.757812 25.078125 -30.59375 L 25.3125 -30.234375 C 27 -28.160156 28.679688 -25.757812 30.359375 -23.03125 C 32.035156 -20.3125 33.59375 -17.550781 35.03125 -14.75 C 36.476562 -11.957031 37.800781 -9.28125 39 -6.71875 C 40.195312 -4.15625 41.195312 -1.957031 42 -0.125 L 42.125 -0.125 C 45.71875 0.113281 49.234375 0.132812 52.671875 -0.0625 C 56.117188 -0.257812 59.242188 -0.359375 62.046875 -0.359375 Z M 21.484375 -67.078125 C 24.285156 -68.203125 27.046875 -68.820312 29.765625 -68.9375 C 32.484375 -69.0625 34.722656 -68.320312 36.484375 -66.71875 C 37.597656 -65.84375 38.394531 -64.660156 38.875 -63.171875 C 39.351562 -61.691406 39.515625 -60.210938 39.359375 -58.734375 C 39.203125 -57.253906 38.703125 -55.894531 37.859375 -54.65625 C 37.015625 -53.414062 35.832031 -52.632812 34.3125 -52.3125 C 32.394531 -52 30.351562 -51.878906 28.1875 -51.953125 C 26.03125 -52.035156 24.035156 -52.15625 22.203125 -52.3125 L 22.078125 -52.3125 C 21.921875 -53.195312 21.820312 -54.28125 21.78125 -55.5625 C 21.738281 -56.84375 21.71875 -58.160156 21.71875 -59.515625 C 21.71875 -60.878906 21.695312 -62.21875 21.65625 -63.53125 C 21.613281 -64.851562 21.554688 -66.035156 21.484375 -67.078125 Z M 21.484375 -67.078125 "/></g></g></g><g fill="#000000" fill-opacity="1"><g transform="translate(544.069615, 211.161221)"><g><path d="M 56.28125 -80.28125 C 55.320312 -80.84375 54.082031 -81.203125 52.5625 -81.359375 C 51.039062 -81.515625 49.4375 -81.550781 47.75 -81.46875 C 46.070312 -81.394531 44.410156 -81.257812 42.765625 -81.0625 C 41.128906 -80.863281 39.796875 -80.722656 38.765625 -80.640625 C 38.523438 -71.359375 38.382812 -61.753906 38.34375 -51.828125 C 38.300781 -41.910156 38.082031 -32.15625 37.6875 -22.5625 C 37.28125 -20.71875 36.394531 -19.273438 35.03125 -18.234375 C 33.675781 -17.203125 32.195312 -16.644531 30.59375 -16.5625 C 29 -16.476562 27.460938 -16.875 25.984375 -17.75 C 24.503906 -18.632812 23.484375 -20.035156 22.921875 -21.953125 C 21.316406 -41.878906 20.957031 -61.519531 21.84375 -80.875 L 21.84375 -81 C 20.644531 -81.320312 19.320312 -81.539062 17.875 -81.65625 C 16.4375 -81.78125 14.957031 -81.84375 13.4375 -81.84375 C 11.914062 -81.84375 10.414062 -81.800781 8.9375 -81.71875 C 7.457031 -81.632812 6.117188 -81.59375 4.921875 -81.59375 L 4.796875 -81.59375 L 4.921875 -81.484375 C 5.078125 -70.921875 5.035156 -60.28125 4.796875 -49.5625 C 4.554688 -38.84375 4.4375 -28.203125 4.4375 -17.640625 C 4.601562 -13.960938 5.664062 -10.820312 7.625 -8.21875 C 9.582031 -5.613281 12.019531 -3.53125 14.9375 -1.96875 C 17.851562 -0.414062 21.113281 0.65625 24.71875 1.25 C 28.320312 1.851562 31.800781 2 35.15625 1.6875 C 40.914062 1.125 45.472656 -0.992188 48.828125 -4.671875 C 52.191406 -8.359375 54.195312 -12.84375 54.84375 -18.125 C 55.957031 -28.4375 56.59375 -38.8125 56.75 -49.25 C 56.914062 -59.695312 56.757812 -70.039062 56.28125 -80.28125 Z M 56.28125 -80.28125 "/></g></g></g><g fill="#000000" fill-opacity="1"><g transform="translate(604.669649, 211.161221)"><g><path d="M 43.4375 -42.125 C 43.113281 -43.476562 42.671875 -45.316406 42.109375 -47.640625 C 41.554688 -49.960938 40.957031 -52.519531 40.3125 -55.3125 C 39.675781 -58.113281 39.015625 -61.035156 38.328125 -64.078125 C 37.648438 -67.117188 37.007812 -69.976562 36.40625 -72.65625 C 35.8125 -75.34375 35.253906 -77.742188 34.734375 -79.859375 C 34.210938 -81.984375 33.832031 -83.5625 33.59375 -84.59375 C 30.957031 -84.351562 28.816406 -84.210938 27.171875 -84.171875 C 25.535156 -84.140625 24.195312 -84.125 23.15625 -84.125 C 22.113281 -84.125 21.273438 -84.125 20.640625 -84.125 C 20.003906 -84.125 19.40625 -84.082031 18.84375 -84 C 16.914062 -77.601562 15.148438 -71.160156 13.546875 -64.671875 C 11.953125 -58.191406 10.472656 -51.953125 9.109375 -45.953125 C 7.753906 -39.953125 6.578125 -34.289062 5.578125 -28.96875 C 4.578125 -23.65625 3.71875 -18.957031 3 -14.875 C 2.28125 -10.800781 1.71875 -7.484375 1.3125 -4.921875 C 0.914062 -2.359375 0.640625 -0.796875 0.484375 -0.234375 C 0.554688 -0.160156 0.632812 -0.125 0.71875 -0.125 C 6.15625 -0.195312 10.15625 -0.15625 12.71875 0 C 15.28125 0.15625 16.878906 0.15625 17.515625 0 C 17.597656 0 17.660156 -0.0195312 17.703125 -0.0625 C 17.742188 -0.101562 17.800781 -0.125 17.875 -0.125 C 18.59375 -1.476562 19.148438 -3.035156 19.546875 -4.796875 C 19.953125 -6.554688 20.332031 -8.375 20.6875 -10.25 C 21.050781 -12.132812 21.410156 -13.9375 21.765625 -15.65625 C 22.128906 -17.375 22.59375 -18.875 23.15625 -20.15625 C 24.039062 -20.15625 24.742188 -20.175781 25.265625 -20.21875 C 25.785156 -20.257812 26.265625 -20.28125 26.703125 -20.28125 C 27.140625 -20.28125 27.640625 -20.28125 28.203125 -20.28125 C 28.765625 -20.28125 29.5625 -20.203125 30.59375 -20.046875 C 31.15625 -18.835938 31.675781 -17.394531 32.15625 -15.71875 C 32.632812 -14.039062 33.09375 -12.28125 33.53125 -10.4375 C 33.976562 -8.601562 34.421875 -6.804688 34.859375 -5.046875 C 35.296875 -3.285156 35.753906 -1.765625 36.234375 -0.484375 L 36.359375 -0.484375 C 38.921875 0.078125 41.640625 0.414062 44.515625 0.53125 C 47.398438 0.65625 50.039062 0.476562 52.4375 0 L 52.4375 -0.125 Z M 31.203125 -34.3125 C 29.679688 -34.3125 28.160156 -34.289062 26.640625 -34.25 C 25.117188 -34.21875 23.675781 -34.238281 22.3125 -34.3125 C 22.875 -38.394531 23.375 -42.195312 23.8125 -45.71875 C 24.257812 -49.238281 24.660156 -52.15625 25.015625 -54.46875 C 25.378906 -56.789062 25.78125 -58.332031 26.21875 -59.09375 C 26.65625 -59.851562 27.09375 -59.550781 27.53125 -58.1875 C 27.976562 -56.832031 28.5 -54.234375 29.09375 -50.390625 C 29.695312 -46.554688 30.398438 -41.195312 31.203125 -34.3125 Z M 31.203125 -34.3125 "/></g></g></g><g fill="#000000" fill-opacity="1"><g transform="translate(656.749671, 211.161221)"><g><path d="M 61.921875 -0.359375 C 60.722656 -3.640625 59.242188 -6.816406 57.484375 -9.890625 C 55.722656 -12.972656 53.878906 -15.992188 51.953125 -18.953125 C 50.035156 -21.921875 48.078125 -24.863281 46.078125 -27.78125 C 44.078125 -30.695312 42.238281 -33.632812 40.5625 -36.59375 L 40.5625 -36.71875 L 41.15625 -36.71875 C 45 -36.957031 48.179688 -38.035156 50.703125 -39.953125 C 53.222656 -41.878906 55.242188 -44.28125 56.765625 -47.15625 C 59.242188 -51.320312 60.421875 -55.625 60.296875 -60.0625 C 60.179688 -64.5 59.082031 -68.554688 57 -72.234375 C 54.914062 -75.921875 51.992188 -79.003906 48.234375 -81.484375 C 44.472656 -83.960938 40.234375 -85.320312 35.515625 -85.5625 C 29.679688 -86.195312 24.082031 -86.234375 18.71875 -85.671875 C 13.363281 -85.117188 8.441406 -84.519531 3.953125 -83.875 C 4.117188 -82.832031 4.257812 -80.851562 4.375 -77.9375 C 4.5 -75.019531 4.597656 -71.5 4.671875 -67.375 C 4.753906 -63.257812 4.851562 -58.738281 4.96875 -53.8125 C 5.09375 -48.894531 5.175781 -43.9375 5.21875 -38.9375 C 5.257812 -33.9375 5.28125 -29.097656 5.28125 -24.421875 C 5.28125 -19.742188 5.28125 -15.601562 5.28125 -12 C 5.28125 -8.394531 5.238281 -5.492188 5.15625 -3.296875 C 5.082031 -1.097656 4.960938 0 4.796875 0 C 5.203125 -0.0820312 6.265625 -0.0820312 7.984375 0 C 9.703125 0.0820312 11.640625 0.101562 13.796875 0.0625 C 15.960938 0.0195312 18.144531 -0.078125 20.34375 -0.234375 C 22.539062 -0.398438 24.320312 -0.757812 25.6875 -1.3125 C 25.601562 -2.832031 25.476562 -4.875 25.3125 -7.4375 C 25.15625 -10 25.015625 -12.695312 24.890625 -15.53125 C 24.773438 -18.375 24.71875 -21.132812 24.71875 -23.8125 C 24.71875 -26.5 24.835938 -28.757812 25.078125 -30.59375 L 25.3125 -30.234375 C 27 -28.160156 28.679688 -25.757812 30.359375 -23.03125 C 32.035156 -20.3125 33.59375 -17.550781 35.03125 -14.75 C 36.476562 -11.957031 37.800781 -9.28125 39 -6.71875 C 40.195312 -4.15625 41.195312 -1.957031 42 -0.125 L 42.125 -0.125 C 45.71875 0.113281 49.234375 0.132812 52.671875 -0.0625 C 56.117188 -0.257812 59.242188 -0.359375 62.046875 -0.359375 Z M 21.484375 -67.078125 C 24.285156 -68.203125 27.046875 -68.820312 29.765625 -68.9375 C 32.484375 -69.0625 34.722656 -68.320312 36.484375 -66.71875 C 37.597656 -65.84375 38.394531 -64.660156 38.875 -63.171875 C 39.351562 -61.691406 39.515625 -60.210938 39.359375 -58.734375 C 39.203125 -57.253906 38.703125 -55.894531 37.859375 -54.65625 C 37.015625 -53.414062 35.832031 -52.632812 34.3125 -52.3125 C 32.394531 -52 30.351562 -51.878906 28.1875 -51.953125 C 26.03125 -52.035156 24.035156 -52.15625 22.203125 -52.3125 L 22.078125 -52.3125 C 21.921875 -53.195312 21.820312 -54.28125 21.78125 -55.5625 C 21.738281 -56.84375 21.71875 -58.160156 21.71875 -59.515625 C 21.71875 -60.878906 21.695312 -62.21875 21.65625 -63.53125 C 21.613281 -64.851562 21.554688 -66.035156 21.484375 -67.078125 Z M 21.484375 -67.078125 "/></g></g></g><g fill="#000000" fill-opacity="1"><g transform="translate(718.909717, 211.161221)"><g><path d="M 54 -83.15625 C 53.519531 -83.238281 52.878906 -83.300781 52.078125 -83.34375 C 51.273438 -83.382812 50.394531 -83.40625 49.4375 -83.40625 C 47.351562 -83.40625 45.09375 -83.34375 42.65625 -83.21875 C 40.21875 -83.101562 38.28125 -82.882812 36.84375 -82.5625 C 36.125 -80.957031 35.363281 -78.953125 34.5625 -76.546875 C 33.757812 -74.148438 32.9375 -71.710938 32.09375 -69.234375 C 31.257812 -66.753906 30.421875 -64.375 29.578125 -62.09375 C 28.734375 -59.820312 27.914062 -57.960938 27.125 -56.515625 C 26.40625 -58.035156 25.582031 -59.914062 24.65625 -62.15625 C 23.738281 -64.394531 22.859375 -66.753906 22.015625 -69.234375 C 21.179688 -71.710938 20.382812 -74.148438 19.625 -76.546875 C 18.863281 -78.953125 18.28125 -81.035156 17.875 -82.796875 C 17 -83.203125 16.082031 -83.460938 15.125 -83.578125 C 14.164062 -83.703125 13.203125 -83.765625 12.234375 -83.765625 C 10.472656 -83.765625 8.710938 -83.644531 6.953125 -83.40625 C 5.191406 -83.164062 3.515625 -83.046875 1.921875 -83.046875 C 2.722656 -79.679688 3.800781 -76.28125 5.15625 -72.84375 C 6.519531 -69.40625 7.941406 -65.960938 9.421875 -62.515625 C 10.898438 -59.078125 12.316406 -55.617188 13.671875 -52.140625 C 15.035156 -48.660156 16.160156 -45.160156 17.046875 -41.640625 L 17.046875 -41.40625 C 14.242188 -34.363281 11.441406 -27.300781 8.640625 -20.21875 C 5.835938 -13.132812 3.394531 -6.351562 1.3125 0.125 L 1.5625 0.125 C 2.039062 0.195312 2.519531 0.234375 3 0.234375 C 3.476562 0.234375 3.957031 0.234375 4.4375 0.234375 C 6.28125 0.234375 8.203125 0.171875 10.203125 0.046875 C 12.203125 -0.0664062 14.039062 -0.125 15.71875 -0.125 C 16.28125 -0.125 16.800781 -0.125 17.28125 -0.125 C 17.757812 -0.125 18.238281 -0.0820312 18.71875 0 C 21.113281 -7.039062 23.875 -13.976562 27 -20.8125 C 30.125 -27.65625 33.320312 -34.492188 36.59375 -41.328125 C 39.875 -48.171875 43.035156 -55.03125 46.078125 -61.90625 C 49.117188 -68.789062 51.757812 -75.835938 54 -83.046875 Z M 54 -83.15625 "/></g></g></g><g fill="#000000" fill-opacity="1"><g transform="translate(771.109742, 211.161221)"><g/></g><g transform="translate(795.109741, 211.161221)"><g><path d="M 43.4375 -42.125 C 43.113281 -43.476562 42.671875 -45.316406 42.109375 -47.640625 C 41.554688 -49.960938 40.957031 -52.519531 40.3125 -55.3125 C 39.675781 -58.113281 39.015625 -61.035156 38.328125 -64.078125 C 37.648438 -67.117188 37.007812 -69.976562 36.40625 -72.65625 C 35.8125 -75.34375 35.253906 -77.742188 34.734375 -79.859375 C 34.210938 -81.984375 33.832031 -83.5625 33.59375 -84.59375 C 30.957031 -84.351562 28.816406 -84.210938 27.171875 -84.171875 C 25.535156 -84.140625 24.195312 -84.125 23.15625 -84.125 C 22.113281 -84.125 21.273438 -84.125 20.640625 -84.125 C 20.003906 -84.125 19.40625 -84.082031 18.84375 -84 C 16.914062 -77.601562 15.148438 -71.160156 13.546875 -64.671875 C 11.953125 -58.191406 10.472656 -51.953125 9.109375 -45.953125 C 7.753906 -39.953125 6.578125 -34.289062 5.578125 -28.96875 C 4.578125 -23.65625 3.71875 -18.957031 3 -14.875 C 2.28125 -10.800781 1.71875 -7.484375 1.3125 -4.921875 C 0.914062 -2.359375 0.640625 -0.796875 0.484375 -0.234375 C 0.554688 -0.160156 0.632812 -0.125 0.71875 -0.125 C 6.15625 -0.195312 10.15625 -0.15625 12.71875 0 C 15.28125 0.15625 16.878906 0.15625 17.515625 0 C 17.597656 0 17.660156 -0.0195312 17.703125 -0.0625 C 17.742188 -0.101562 17.800781 -0.125 17.875 -0.125 C 18.59375 -1.476562 19.148438 -3.035156 19.546875 -4.796875 C 19.953125 -6.554688 20.332031 -8.375 20.6875 -10.25 C 21.050781 -12.132812 21.410156 -13.9375 21.765625 -15.65625 C 22.128906 -17.375 22.59375 -18.875 23.15625 -20.15625 C 24.039062 -20.15625 24.742188 -20.175781 25.265625 -20.21875 C 25.785156 -20.257812 26.265625 -20.28125 26.703125 -20.28125 C 27.140625 -20.28125 27.640625 -20.28125 28.203125 -20.28125 C 28.765625 -20.28125 29.5625 -20.203125 30.59375 -20.046875 C 31.15625 -18.835938 31.675781 -17.394531 32.15625 -15.71875 C 32.632812 -14.039062 33.09375 -12.28125 33.53125 -10.4375 C 33.976562 -8.601562 34.421875 -6.804688 34.859375 -5.046875 C 35.296875 -3.285156 35.753906 -1.765625 36.234375 -0.484375 L 36.359375 -0.484375 C 38.921875 0.078125 41.640625 0.414062 44.515625 0.53125 C 47.398438 0.65625 50.039062 0.476562 52.4375 0 L 52.4375 -0.125 Z M 31.203125 -34.3125 C 29.679688 -34.3125 28.160156 -34.289062 26.640625 -34.25 C 25.117188 -34.21875 23.675781 -34.238281 22.3125 -34.3125 C 22.875 -38.394531 23.375 -42.195312 23.8125 -45.71875 C 24.257812 -49.238281 24.660156 -52.15625 25.015625 -54.46875 C 25.378906 -56.789062 25.78125 -58.332031 26.21875 -59.09375 C 26.65625 -59.851562 27.09375 -59.550781 27.53125 -58.1875 C 27.976562 -56.832031 28.5 -54.234375 29.09375 -50.390625 C 29.695312 -46.554688 30.398438 -41.195312 31.203125 -34.3125 Z M 31.203125 -34.3125 "/></g></g></g><g fill="#000000" fill-opacity="1"><g transform="translate(847.18974, 211.161221)"><g><path d="M 29.15625 -41.765625 C 29 -41.679688 28.921875 -41.640625 28.921875 -41.640625 C 28.835938 -41.640625 28.796875 -41.597656 28.796875 -41.515625 L 28.796875 -41.40625 C 28.960938 -39.957031 29.046875 -38.753906 29.046875 -37.796875 C 29.046875 -36.835938 29.023438 -35.894531 28.984375 -34.96875 C 28.941406 -34.050781 28.941406 -33.113281 28.984375 -32.15625 C 29.023438 -31.195312 29.125 -30.078125 29.28125 -28.796875 C 29.675781 -28.640625 30.253906 -28.539062 31.015625 -28.5 C 31.773438 -28.457031 32.613281 -28.457031 33.53125 -28.5 C 34.457031 -28.539062 35.335938 -28.582031 36.171875 -28.625 C 37.015625 -28.664062 37.675781 -28.644531 38.15625 -28.5625 C 38.394531 -28.476562 38.535156 -28.113281 38.578125 -27.46875 C 38.617188 -26.832031 38.617188 -26.113281 38.578125 -25.3125 C 38.535156 -24.519531 38.453125 -23.742188 38.328125 -22.984375 C 38.210938 -22.222656 38.117188 -21.679688 38.046875 -21.359375 C 37.722656 -20.242188 37.238281 -19.34375 36.59375 -18.65625 C 35.957031 -17.976562 35.195312 -17.441406 34.3125 -17.046875 C 33.195312 -16.640625 31.976562 -16.316406 30.65625 -16.078125 C 29.34375 -15.835938 28.082031 -15.796875 26.875 -15.953125 C 25.757812 -16.191406 24.84375 -16.554688 24.125 -17.046875 C 22.601562 -18.242188 21.601562 -19.878906 21.125 -21.953125 C 20.644531 -24.035156 20.320312 -25.957031 20.15625 -27.71875 C 19.914062 -30.675781 19.753906 -33.796875 19.671875 -37.078125 C 19.597656 -40.359375 19.640625 -43.535156 19.796875 -46.609375 C 19.960938 -49.691406 20.222656 -52.59375 20.578125 -55.3125 C 20.941406 -58.039062 21.398438 -60.363281 21.953125 -62.28125 C 22.117188 -62.914062 22.34375 -63.570312 22.625 -64.25 C 22.90625 -64.9375 23.125 -65.359375 23.28125 -65.515625 C 24.238281 -66.472656 25.359375 -66.953125 26.640625 -66.953125 C 27.921875 -66.953125 29.238281 -66.914062 30.59375 -66.84375 C 31.800781 -66.84375 32.84375 -66.460938 33.71875 -65.703125 C 34.601562 -64.941406 35.382812 -64.0625 36.0625 -63.0625 C 36.738281 -62.0625 37.296875 -60.976562 37.734375 -59.8125 C 38.179688 -58.65625 38.523438 -57.675781 38.765625 -56.875 C 39.960938 -56.71875 41 -56.597656 41.875 -56.515625 C 42.757812 -56.441406 43.617188 -56.40625 44.453125 -56.40625 C 45.296875 -56.40625 46.132812 -56.421875 46.96875 -56.453125 C 47.8125 -56.492188 48.835938 -56.515625 50.046875 -56.515625 C 51.316406 -56.597656 52.234375 -56.640625 52.796875 -56.640625 C 53.359375 -56.640625 53.71875 -56.757812 53.875 -57 L 54 -57.71875 C 54.5625 -62.601562 54.117188 -66.820312 52.671875 -70.375 C 51.234375 -73.9375 49.070312 -76.796875 46.1875 -78.953125 C 43.3125 -81.117188 39.875 -82.617188 35.875 -83.453125 C 31.875 -84.296875 27.675781 -84.4375 23.28125 -83.875 C 21.125 -83.5625 19.046875 -83.082031 17.046875 -82.4375 C 15.046875 -81.800781 13.242188 -80.800781 11.640625 -79.4375 C 9.316406 -77.84375 7.65625 -75.800781 6.65625 -73.3125 C 5.65625 -70.832031 4.957031 -68.273438 4.5625 -65.640625 C 4.15625 -63.078125 3.875 -60.457031 3.71875 -57.78125 C 3.5625 -55.101562 3.441406 -52.484375 3.359375 -49.921875 C 3.273438 -46.960938 3.253906 -44.34375 3.296875 -42.0625 C 3.335938 -39.78125 3.414062 -37.617188 3.53125 -35.578125 C 3.65625 -33.535156 3.796875 -31.472656 3.953125 -29.390625 C 4.117188 -27.316406 4.320312 -25 4.5625 -22.4375 C 4.71875 -20.84375 4.9375 -19.265625 5.21875 -17.703125 C 5.5 -16.140625 5.757812 -14.921875 6 -14.046875 C 6.957031 -10.597656 8.273438 -7.710938 9.953125 -5.390625 C 11.640625 -3.078125 14.082031 -1.238281 17.28125 0.125 C 19.195312 0.914062 21.210938 1.429688 23.328125 1.671875 C 25.453125 1.921875 27.632812 1.941406 29.875 1.734375 C 32.113281 1.535156 34.3125 1.21875 36.46875 0.78125 C 38.632812 0.34375 40.71875 -0.15625 42.71875 -0.71875 C 45.757812 -1.84375 48.316406 -3.484375 50.390625 -5.640625 C 52.472656 -7.796875 53.71875 -10.914062 54.125 -15 C 54.914062 -19.320312 55.234375 -23.863281 55.078125 -28.625 C 54.921875 -33.382812 54.601562 -37.882812 54.125 -42.125 L 54 -42.234375 L 53.765625 -42.234375 C 52.960938 -42.234375 51.421875 -42.332031 49.140625 -42.53125 C 46.859375 -42.738281 44.394531 -42.878906 41.75 -42.953125 C 39.113281 -43.035156 36.613281 -43.015625 34.25 -42.890625 C 31.894531 -42.773438 30.195312 -42.398438 29.15625 -41.765625 Z M 29.15625 -41.765625 "/></g></g></g><g fill="#000000" fill-opacity="1"><g transform="translate(904.909754, 211.161221)"><g><path d="M 55.5625 -16.3125 C 50.125 -16.15625 44.84375 -16.21875 39.71875 -16.5 C 34.601562 -16.78125 29.40625 -16.921875 24.125 -16.921875 L 24 -17.046875 C 23.84375 -18.960938 23.703125 -21.359375 23.578125 -24.234375 C 23.460938 -27.117188 23.601562 -29.722656 24 -32.046875 C 24.394531 -32.359375 25.148438 -32.554688 26.265625 -32.640625 C 27.390625 -32.722656 28.648438 -32.765625 30.046875 -32.765625 C 31.453125 -32.765625 32.914062 -32.78125 34.4375 -32.8125 C 35.957031 -32.851562 37.316406 -33.035156 38.515625 -33.359375 C 38.441406 -36.316406 38.484375 -39.15625 38.640625 -41.875 C 38.796875 -44.59375 38.675781 -47.316406 38.28125 -50.046875 L 38.28125 -50.15625 C 35.800781 -50.238281 33.320312 -50.28125 30.84375 -50.28125 C 28.363281 -50.28125 25.921875 -50.359375 23.515625 -50.515625 L 23.40625 -50.640625 C 22.84375 -52.796875 22.703125 -55.09375 22.984375 -57.53125 C 23.265625 -59.976562 23.363281 -62.363281 23.28125 -64.6875 L 23.40625 -64.796875 L 23.765625 -64.796875 C 26.398438 -65.035156 29.035156 -65.15625 31.671875 -65.15625 C 34.316406 -65.15625 36.957031 -65.132812 39.59375 -65.09375 C 42.238281 -65.0625 44.859375 -65.101562 47.453125 -65.21875 C 50.054688 -65.34375 52.640625 -65.679688 55.203125 -66.234375 L 55.203125 -66.359375 C 55.203125 -69.160156 55.300781 -72 55.5 -74.875 C 55.695312 -77.757812 55.597656 -80.601562 55.203125 -83.40625 C 55.203125 -83.476562 54.398438 -83.554688 52.796875 -83.640625 C 51.203125 -83.722656 49.082031 -83.765625 46.4375 -83.765625 C 43.800781 -83.765625 40.757812 -83.722656 37.3125 -83.640625 C 33.875 -83.554688 30.316406 -83.472656 26.640625 -83.390625 C 22.960938 -83.316406 19.300781 -83.21875 15.65625 -83.09375 C 12.019531 -82.976562 8.640625 -82.84375 5.515625 -82.6875 C 5.117188 -75.800781 4.878906 -68.957031 4.796875 -62.15625 C 4.722656 -55.351562 4.722656 -48.550781 4.796875 -41.75 C 4.878906 -34.957031 5 -28.140625 5.15625 -21.296875 C 5.320312 -14.460938 5.40625 -7.5625 5.40625 -0.59375 C 13.164062 0.0390625 21.265625 0.21875 29.703125 -0.0625 C 38.140625 -0.34375 46.4375 -0.441406 54.59375 -0.359375 C 55.238281 -2.753906 55.597656 -5.332031 55.671875 -8.09375 C 55.753906 -10.851562 55.71875 -13.515625 55.5625 -16.078125 Z M 55.5625 -16.3125 "/></g></g></g><g fill="#000000" fill-opacity="1"><g transform="translate(962.629767, 211.161221)"><g><path d="M 50.875 0.59375 C 52.238281 0.59375 53.195312 0.515625 53.75 0.359375 C 54.3125 0.203125 54.675781 0.0820312 54.84375 0 L 54.84375 -2.40625 C 54.84375 -4 54.820312 -5.59375 54.78125 -7.1875 C 54.738281 -8.789062 54.71875 -10.394531 54.71875 -12 C 54.71875 -14.238281 54.738281 -16.4375 54.78125 -18.59375 C 54.820312 -20.757812 54.84375 -23 54.84375 -25.3125 C 54.84375 -28.757812 54.84375 -32.203125 54.84375 -35.640625 C 54.84375 -39.078125 54.800781 -42.476562 54.71875 -45.84375 L 54.71875 -84.484375 C 52.394531 -84.960938 49.753906 -85.203125 46.796875 -85.203125 C 43.753906 -85.203125 40.875 -84.960938 38.15625 -84.484375 C 38.082031 -82.484375 38.023438 -80.617188 37.984375 -78.890625 C 37.941406 -77.171875 37.921875 -75.472656 37.921875 -73.796875 C 37.921875 -70.921875 37.976562 -68.101562 38.09375 -65.34375 C 38.21875 -62.582031 38.28125 -59.601562 38.28125 -56.40625 C 38.28125 -55.039062 38.195312 -53.640625 38.03125 -52.203125 C 37.875 -50.765625 37.675781 -49.960938 37.4375 -49.796875 C 37.351562 -49.796875 37.070312 -50.253906 36.59375 -51.171875 C 36.113281 -52.097656 35.535156 -53.21875 34.859375 -54.53125 C 34.179688 -55.851562 33.441406 -57.332031 32.640625 -58.96875 C 31.835938 -60.613281 31.078125 -62.175781 30.359375 -63.65625 C 29.640625 -65.132812 29 -66.429688 28.4375 -67.546875 C 27.875 -68.671875 27.515625 -69.4375 27.359375 -69.84375 C 26.640625 -71.519531 26.019531 -72.894531 25.5 -73.96875 C 24.976562 -75.050781 24.5 -76.03125 24.0625 -76.90625 C 23.625 -77.789062 23.160156 -78.710938 22.671875 -79.671875 C 22.191406 -80.640625 21.675781 -81.84375 21.125 -83.28125 C 21.125 -83.4375 20.703125 -83.59375 19.859375 -83.75 C 19.015625 -83.914062 18.03125 -84.054688 16.90625 -84.171875 C 15.789062 -84.296875 14.671875 -84.378906 13.546875 -84.421875 C 12.429688 -84.460938 11.632812 -84.484375 11.15625 -84.484375 C 10.195312 -84.484375 9.253906 -84.441406 8.328125 -84.359375 C 7.410156 -84.273438 6.554688 -84.15625 5.765625 -84 C 5.359375 -78.875 5.078125 -73.613281 4.921875 -68.21875 C 4.765625 -62.820312 4.6875 -57.363281 4.6875 -51.84375 C 4.6875 -44.320312 4.742188 -37.117188 4.859375 -30.234375 C 4.984375 -23.359375 5.046875 -16.117188 5.046875 -8.515625 L 5.046875 -0.125 C 6.878906 -0.125 8.773438 -0.00390625 10.734375 0.234375 C 12.703125 0.472656 14.644531 0.59375 16.5625 0.59375 C 17.4375 0.59375 18.3125 0.550781 19.1875 0.46875 C 20.070312 0.394531 20.957031 0.238281 21.84375 0 C 21.757812 -1.363281 21.71875 -2.90625 21.71875 -4.625 C 21.71875 -6.34375 21.71875 -8.117188 21.71875 -9.953125 C 21.71875 -13.316406 21.738281 -16.796875 21.78125 -20.390625 C 21.820312 -23.992188 21.878906 -27.273438 21.953125 -30.234375 C 22.035156 -33.203125 22.132812 -35.644531 22.25 -37.5625 C 22.375 -39.476562 22.476562 -40.4375 22.5625 -40.4375 C 22.71875 -40.4375 22.9375 -40.054688 23.21875 -39.296875 C 23.5 -38.535156 23.800781 -37.71875 24.125 -36.84375 L 25.3125 -33.234375 C 27.15625 -28.117188 29.375 -22.78125 31.96875 -17.21875 C 34.570312 -11.65625 37.195312 -5.914062 39.84375 0 C 41.4375 0 43.273438 0.0976562 45.359375 0.296875 C 47.441406 0.492188 49.28125 0.59375 50.875 0.59375 Z M 50.875 0.59375 "/></g></g></g><g fill="#000000" fill-opacity="1"><g transform="translate(1022.389805, 211.161221)"><g><path d="M 47.15625 -74.046875 C 45.71875 -76.359375 43.816406 -78.453125 41.453125 -80.328125 C 39.097656 -82.210938 36.640625 -83.476562 34.078125 -84.125 C 31.753906 -84.039062 29.375 -84.035156 26.9375 -84.109375 C 24.5 -84.191406 22.039062 -84.253906 19.5625 -84.296875 C 17.082031 -84.335938 14.617188 -84.257812 12.171875 -84.0625 C 9.734375 -83.863281 7.394531 -83.484375 5.15625 -82.921875 C 5.082031 -82.835938 5.023438 -82.753906 4.984375 -82.671875 C 4.941406 -82.597656 4.878906 -82.519531 4.796875 -82.4375 C 4.960938 -75.476562 4.984375 -68.457031 4.859375 -61.375 C 4.742188 -54.300781 4.6875 -47.28125 4.6875 -40.3125 C 4.6875 -33.351562 4.804688 -26.492188 5.046875 -19.734375 C 5.285156 -12.972656 5.84375 -6.4375 6.71875 -0.125 C 6.800781 -0.195312 6.84375 -0.234375 6.84375 -0.234375 C 11.882812 -0.234375 17.082031 -0.253906 22.4375 -0.296875 C 27.800781 -0.335938 33.125 -0.4375 38.40625 -0.59375 C 41.4375 -4.351562 44.332031 -8.351562 47.09375 -12.59375 C 49.851562 -16.832031 52.035156 -21.316406 53.640625 -26.046875 C 53.640625 -26.117188 53.660156 -26.15625 53.703125 -26.15625 C 53.742188 -26.15625 53.765625 -26.195312 53.765625 -26.28125 C 54.484375 -29.957031 54.898438 -33.695312 55.015625 -37.5 C 55.140625 -41.300781 55.28125 -45.082031 55.4375 -48.84375 C 55.351562 -50.125 55.25 -51.382812 55.125 -52.625 C 55.007812 -53.863281 54.753906 -55.125 54.359375 -56.40625 C 53.640625 -59.601562 52.695312 -62.660156 51.53125 -65.578125 C 50.375 -68.492188 48.914062 -71.316406 47.15625 -74.046875 Z M 36.125 -30.484375 C 35.644531 -29.765625 35.101562 -29.0625 34.5 -28.375 C 33.894531 -27.695312 33.195312 -27.117188 32.40625 -26.640625 C 32 -26.484375 31.632812 -26.300781 31.3125 -26.09375 C 31 -25.894531 30.640625 -25.835938 30.234375 -25.921875 C 28.796875 -25.765625 27.296875 -25.644531 25.734375 -25.5625 C 24.179688 -25.476562 22.960938 -25.835938 22.078125 -26.640625 C 21.921875 -29.359375 21.84375 -32.097656 21.84375 -34.859375 C 21.84375 -37.617188 21.878906 -40.335938 21.953125 -43.015625 C 22.035156 -45.703125 22.078125 -48.285156 22.078125 -50.765625 C 22.078125 -53.242188 22 -55.5625 21.84375 -57.71875 L 21.84375 -58.203125 L 22.203125 -58.203125 C 23.640625 -58.523438 25.15625 -58.664062 26.75 -58.625 C 28.351562 -58.582031 29.835938 -58.476562 31.203125 -58.3125 C 32.554688 -57.832031 33.671875 -57.132812 34.546875 -56.21875 C 35.429688 -55.300781 36.175781 -54.238281 36.78125 -53.03125 C 37.382812 -51.832031 37.84375 -50.570312 38.15625 -49.25 C 38.476562 -47.9375 38.757812 -46.679688 39 -45.484375 C 39.632812 -42.523438 39.648438 -39.800781 39.046875 -37.3125 C 38.453125 -34.832031 37.476562 -32.554688 36.125 -30.484375 Z M 36.125 -30.484375 "/></g></g><g transform="translate(1080.229802, 211.161221)"><g><path d="M 43.4375 -42.125 C 43.113281 -43.476562 42.671875 -45.316406 42.109375 -47.640625 C 41.554688 -49.960938 40.957031 -52.519531 40.3125 -55.3125 C 39.675781 -58.113281 39.015625 -61.035156 38.328125 -64.078125 C 37.648438 -67.117188 37.007812 -69.976562 36.40625 -72.65625 C 35.8125 -75.34375 35.253906 -77.742188 34.734375 -79.859375 C 34.210938 -81.984375 33.832031 -83.5625 33.59375 -84.59375 C 30.957031 -84.351562 28.816406 -84.210938 27.171875 -84.171875 C 25.535156 -84.140625 24.195312 -84.125 23.15625 -84.125 C 22.113281 -84.125 21.273438 -84.125 20.640625 -84.125 C 20.003906 -84.125 19.40625 -84.082031 18.84375 -84 C 16.914062 -77.601562 15.148438 -71.160156 13.546875 -64.671875 C 11.953125 -58.191406 10.472656 -51.953125 9.109375 -45.953125 C 7.753906 -39.953125 6.578125 -34.289062 5.578125 -28.96875 C 4.578125 -23.65625 3.71875 -18.957031 3 -14.875 C 2.28125 -10.800781 1.71875 -7.484375 1.3125 -4.921875 C 0.914062 -2.359375 0.640625 -0.796875 0.484375 -0.234375 C 0.554688 -0.160156 0.632812 -0.125 0.71875 -0.125 C 6.15625 -0.195312 10.15625 -0.15625 12.71875 0 C 15.28125 0.15625 16.878906 0.15625 17.515625 0 C 17.597656 0 17.660156 -0.0195312 17.703125 -0.0625 C 17.742188 -0.101562 17.800781 -0.125 17.875 -0.125 C 18.59375 -1.476562 19.148438 -3.035156 19.546875 -4.796875 C 19.953125 -6.554688 20.332031 -8.375 20.6875 -10.25 C 21.050781 -12.132812 21.410156 -13.9375 21.765625 -15.65625 C 22.128906 -17.375 22.59375 -18.875 23.15625 -20.15625 C 24.039062 -20.15625 24.742188 -20.175781 25.265625 -20.21875 C 25.785156 -20.257812 26.265625 -20.28125 26.703125 -20.28125 C 27.140625 -20.28125 27.640625 -20.28125 28.203125 -20.28125 C 28.765625 -20.28125 29.5625 -20.203125 30.59375 -20.046875 C 31.15625 -18.835938 31.675781 -17.394531 32.15625 -15.71875 C 32.632812 -14.039062 33.09375 -12.28125 33.53125 -10.4375 C 33.976562 -8.601562 34.421875 -6.804688 34.859375 -5.046875 C 35.296875 -3.285156 35.753906 -1.765625 36.234375 -0.484375 L 36.359375 -0.484375 C 38.921875 0.078125 41.640625 0.414062 44.515625 0.53125 C 47.398438 0.65625 50.039062 0.476562 52.4375 0 L 52.4375 -0.125 Z M 31.203125 -34.3125 C 29.679688 -34.3125 28.160156 -34.289062 26.640625 -34.25 C 25.117188 -34.21875 23.675781 -34.238281 22.3125 -34.3125 C 22.875 -38.394531 23.375 -42.195312 23.8125 -45.71875 C 24.257812 -49.238281 24.660156 -52.15625 25.015625 -54.46875 C 25.378906 -56.789062 25.78125 -58.332031 26.21875 -59.09375 C 26.65625 -59.851562 27.09375 -59.550781 27.53125 -58.1875 C 27.976562 -56.832031 28.5 -54.234375 29.09375 -50.390625 C 29.695312 -46.554688 30.398438 -41.195312 31.203125 -34.3125 Z M 31.203125 -34.3125 "/></g></g></g><path fill="#000000" d="M 597.578125 460.730469 C 597.578125 461.441406 597.507812 462.144531 597.367188 462.84375 C 597.230469 463.539062 597.023438 464.21875 596.753906 464.875 C 596.480469 465.53125 596.148438 466.152344 595.753906 466.746094 C 595.359375 467.335938 594.910156 467.882812 594.40625 468.382812 C 593.902344 468.886719 593.355469 469.335938 592.765625 469.730469 C 592.175781 470.125 591.550781 470.457031 590.894531 470.730469 C 590.238281 471.003906 589.5625 471.207031 588.867188 471.347656 C 588.167969 471.484375 587.464844 471.554688 586.753906 471.554688 C 586.042969 471.554688 585.339844 471.484375 584.644531 471.347656 C 583.945312 471.207031 583.269531 471.003906 582.613281 470.730469 C 581.957031 470.457031 581.332031 470.125 580.742188 469.730469 C 580.152344 469.335938 579.605469 468.886719 579.101562 468.382812 C 578.597656 467.882812 578.148438 467.335938 577.753906 466.746094 C 577.359375 466.152344 577.027344 465.53125 576.753906 464.875 C 576.484375 464.21875 576.277344 463.539062 576.140625 462.84375 C 576 462.144531 575.933594 461.441406 575.933594 460.730469 C 575.933594 460.019531 576 459.316406 576.140625 458.621094 C 576.277344 457.921875 576.484375 457.246094 576.753906 456.589844 C 577.027344 455.933594 577.359375 455.308594 577.753906 454.71875 C 578.148438 454.128906 578.597656 453.582031 579.101562 453.078125 C 579.605469 452.578125 580.152344 452.128906 580.742188 451.734375 C 581.332031 451.339844 581.957031 451.003906 582.613281 450.734375 C 583.269531 450.460938 583.945312 450.257812 584.644531 450.117188 C 585.339844 449.980469 586.042969 449.910156 586.753906 449.910156 C 587.464844 449.910156 588.167969 449.980469 588.867188 450.117188 C 589.5625 450.257812 590.238281 450.460938 590.894531 450.734375 C 591.550781 451.003906 592.175781 451.339844 592.765625 451.734375 C 593.355469 452.128906 593.902344 452.578125 594.40625 453.078125 C 594.910156 453.582031 595.359375 454.128906 595.753906 454.71875 C 596.148438 455.308594 596.480469 455.933594 596.753906 456.589844 C 597.023438 457.246094 597.230469 457.921875 597.367188 458.621094 C 597.507812 459.316406 597.578125 460.019531 597.578125 460.730469 Z M 597.578125 460.730469 " fill-opacity="1" fill-rule="nonzero"/><g fill="#000000" fill-opacity="1"><g transform="translate(626.694897, 482.376465)"><g><path d="M 11.15625 0.648438 C 17.125 0.648438 22.445312 -2.074219 22.445312 -8.171875 C 22.445312 -15.570312 17.386719 -16.085938 11.9375 -21.277344 C 8.433594 -24.585938 7.65625 -28.476562 7.65625 -30.554688 C 7.65625 -36.910156 9.601562 -40.21875 11.871094 -40.21875 C 13.882812 -40.21875 15.570312 -37.105469 15.570312 -31.203125 C 15.570312 -29.191406 15.375 -27.113281 14.984375 -25.234375 C 14.984375 -22.832031 16.023438 -21.992188 18.035156 -21.992188 C 19.589844 -21.992188 20.5 -22.832031 20.824219 -24.390625 C 21.40625 -27.179688 21.796875 -30.230469 21.796875 -33.082031 C 21.796875 -41.710938 18.421875 -46.25 11.871094 -46.25 C 5.058594 -46.25 1.039062 -40.933594 1.039062 -29.582031 C 1.039062 -25.039062 2.464844 -18.164062 14.078125 -10.636719 C 14.660156 -10.25 15.632812 -9.472656 15.632812 -8.433594 C 15.632812 -6.746094 13.558594 -5.773438 11.480469 -5.773438 C 8.820312 -5.773438 6.875 -6.8125 5.96875 -8.496094 C 5.191406 -9.925781 4.085938 -10.636719 2.722656 -10.636719 C 1.816406 -10.636719 1.039062 -9.988281 1.039062 -8.171875 C 1.039062 -3.179688 5.839844 0.648438 11.15625 0.648438 Z M 11.15625 0.648438 "/></g></g></g><g fill="#000000" fill-opacity="1"><g transform="translate(651.084504, 482.376465)"><g><path d="M 5.449219 0.582031 C 8.628906 0.582031 8.820312 -1.039062 8.820312 -3.242188 C 8.820312 -3.242188 8.820312 -6.164062 8.757812 -7.847656 C 8.691406 -10.054688 8.691406 -12.128906 8.628906 -14.140625 C 8.628906 -15.828125 9.535156 -16.734375 11.222656 -16.734375 L 15.503906 -16.734375 C 17.191406 -16.734375 18.097656 -15.828125 18.097656 -14.140625 C 18.035156 -12.128906 18.035156 -10.054688 17.96875 -7.847656 C 17.902344 -6.164062 17.902344 -3.242188 17.902344 -3.242188 C 17.902344 -1.039062 18.683594 0.582031 21.210938 0.582031 C 24.390625 0.582031 24.585938 -1.039062 24.585938 -3.242188 C 24.585938 -3.242188 24.585938 -6.164062 24.519531 -7.847656 C 24.457031 -11.742188 24.390625 -15.246094 24.390625 -18.617188 C 24.390625 -23.742188 24.457031 -28.671875 24.519531 -34.445312 C 24.519531 -36.976562 24.78125 -40.152344 24.78125 -42.75 C 24.78125 -44.433594 24.457031 -45.863281 21.015625 -45.863281 C 17.839844 -45.863281 17.710938 -44.046875 17.710938 -41.96875 C 17.710938 -39.570312 17.96875 -36.714844 17.96875 -34.445312 L 18.035156 -24.84375 C 18.097656 -23.15625 17.191406 -22.25 15.503906 -22.25 L 11.222656 -22.25 C 9.535156 -22.25 8.628906 -23.15625 8.691406 -24.84375 L 8.757812 -34.445312 C 8.757812 -36.976562 9.015625 -40.152344 9.015625 -42.75 C 9.015625 -44.433594 8.691406 -45.863281 5.253906 -45.863281 C 2.074219 -45.863281 1.945312 -44.046875 1.945312 -41.96875 C 1.945312 -39.570312 2.207031 -36.714844 2.207031 -34.445312 C 2.269531 -28.671875 2.335938 -23.742188 2.335938 -18.617188 C 2.335938 -15.246094 2.269531 -11.742188 2.207031 -7.847656 C 2.140625 -6.164062 2.140625 -3.242188 2.140625 -3.242188 C 2.140625 -1.039062 2.917969 0.582031 5.449219 0.582031 Z M 5.449219 0.582031 "/></g></g></g><g fill="#000000" fill-opacity="1"><g transform="translate(677.809281, 482.376465)"><g><path d="M 11.15625 0.648438 C 17.125 0.648438 22.445312 -2.074219 22.445312 -8.171875 C 22.445312 -15.570312 17.386719 -16.085938 11.9375 -21.277344 C 8.433594 -24.585938 7.65625 -28.476562 7.65625 -30.554688 C 7.65625 -36.910156 9.601562 -40.21875 11.871094 -40.21875 C 13.882812 -40.21875 15.570312 -37.105469 15.570312 -31.203125 C 15.570312 -29.191406 15.375 -27.113281 14.984375 -25.234375 C 14.984375 -22.832031 16.023438 -21.992188 18.035156 -21.992188 C 19.589844 -21.992188 20.5 -22.832031 20.824219 -24.390625 C 21.40625 -27.179688 21.796875 -30.230469 21.796875 -33.082031 C 21.796875 -41.710938 18.421875 -46.25 11.871094 -46.25 C 5.058594 -46.25 1.039062 -40.933594 1.039062 -29.582031 C 1.039062 -25.039062 2.464844 -18.164062 14.078125 -10.636719 C 14.660156 -10.25 15.632812 -9.472656 15.632812 -8.433594 C 15.632812 -6.746094 13.558594 -5.773438 11.480469 -5.773438 C 8.820312 -5.773438 6.875 -6.8125 5.96875 -8.496094 C 5.191406 -9.925781 4.085938 -10.636719 2.722656 -10.636719 C 1.816406 -10.636719 1.039062 -9.988281 1.039062 -8.171875 C 1.039062 -3.179688 5.839844 0.648438 11.15625 0.648438 Z M 11.15625 0.648438 "/></g></g></g><g fill="#000000" fill-opacity="1"><g transform="translate(702.198889, 482.376465)"><g/></g></g><g fill="#000000" fill-opacity="1"><g transform="translate(716.469403, 482.376465)"><g><path d="M 5.449219 0.582031 C 7.980469 0.582031 8.757812 -1.039062 8.757812 -3.242188 L 8.757812 -13.234375 C 8.757812 -15.375 9.730469 -15.308594 11.15625 -15.375 C 17.191406 -15.375 21.40625 -20.175781 21.40625 -28.089844 C 21.40625 -36.003906 18.941406 -46.511719 9.859375 -46.511719 C 4.929688 -46.511719 1.945312 -46.382812 1.945312 -42.292969 C 1.945312 -40.023438 2.207031 -36.519531 2.207031 -34.445312 C 2.269531 -28.671875 2.335938 -23.742188 2.335938 -18.617188 C 2.335938 -15.246094 2.269531 -11.742188 2.207031 -7.847656 C 2.140625 -6.164062 2.140625 -3.242188 2.140625 -3.242188 C 2.140625 -1.039062 2.917969 0.582031 5.449219 0.582031 Z M 11.417969 -22.769531 C 9.40625 -22.769531 8.628906 -24 8.628906 -25.753906 L 8.5625 -36.003906 C 8.5625 -39.179688 8.628906 -40.671875 10.183594 -40.671875 C 12.585938 -40.671875 14.984375 -36.066406 14.984375 -30.230469 C 14.984375 -25.753906 13.558594 -22.769531 11.417969 -22.769531 Z M 11.417969 -22.769531 "/></g></g></g><g fill="#000000" fill-opacity="1"><g transform="translate(740.404939, 482.376465)"><g><path d="M 20.109375 0.714844 C 21.34375 0.714844 23.222656 0.257812 23.222656 -1.296875 C 23.222656 -2.789062 22.183594 -3.242188 19.199219 -8.042969 C 17.644531 -10.507812 16.410156 -13.753906 15.761719 -16.671875 C 16.605469 -17.125 17.515625 -17.839844 18.550781 -18.746094 C 19.914062 -20.042969 21.40625 -23.15625 21.40625 -28.089844 C 21.40625 -33.210938 18.941406 -46.511719 9.859375 -46.511719 C 4.929688 -46.511719 1.945312 -45.40625 1.945312 -41.320312 C 1.945312 -39.050781 2.207031 -36.519531 2.207031 -34.445312 C 2.269531 -28.671875 2.335938 -23.742188 2.335938 -18.617188 C 2.335938 -15.246094 2.269531 -11.742188 2.207031 -7.847656 C 2.140625 -6.164062 2.140625 -3.242188 2.140625 -3.242188 C 2.140625 -1.039062 2.917969 0.582031 5.449219 0.582031 C 8.628906 0.582031 8.820312 -1.039062 8.820312 -3.242188 C 8.820312 -3.242188 8.820312 -6.164062 8.757812 -7.847656 C 8.691406 -9.015625 8.691406 -9.988281 8.691406 -10.769531 C 8.691406 -12.453125 8.757812 -13.492188 8.953125 -14.140625 C 9.015625 -14.402344 9.210938 -14.53125 9.40625 -14.53125 C 9.664062 -14.53125 9.988281 -14.269531 10.054688 -13.882812 C 10.832031 -10.574219 13.167969 -6.355469 14.789062 -3.699219 C 16.21875 -1.296875 17.386719 0 19.070312 0.582031 C 19.265625 0.648438 19.65625 0.714844 20.109375 0.714844 Z M 11.417969 -22.769531 C 9.40625 -22.769531 8.628906 -24 8.628906 -25.753906 L 8.628906 -36.003906 C 8.5625 -39.179688 8.628906 -40.671875 10.183594 -40.671875 C 12.585938 -40.671875 14.984375 -36.066406 14.984375 -30.230469 C 14.984375 -25.753906 13.558594 -22.769531 11.417969 -22.769531 Z M 11.417969 -22.769531 "/></g></g></g><g fill="#000000" fill-opacity="1"><g transform="translate(763.75669, 482.376465)"><g><path d="M 14.078125 0.453125 C 21.082031 0.453125 26.207031 -8.367188 26.207031 -23.222656 C 26.207031 -30.097656 24.972656 -35.808594 22.898438 -39.828125 C 20.757812 -43.917969 17.710938 -46.25 14.078125 -46.25 C 6.875 -46.25 1.945312 -37.039062 1.945312 -23.222656 C 1.945312 -8.367188 7.070312 0.453125 14.078125 0.453125 Z M 14.078125 -5.449219 C 10.574219 -5.449219 8.238281 -12.84375 8.238281 -23.808594 C 8.238281 -33.667969 10.574219 -40.347656 14.078125 -40.347656 C 15.503906 -40.347656 16.734375 -39.179688 17.710938 -37.167969 C 19.136719 -34.316406 19.914062 -29.582031 19.914062 -23.808594 C 19.914062 -12.84375 17.578125 -5.449219 14.078125 -5.449219 Z M 14.078125 -5.449219 "/></g></g></g><g fill="#000000" fill-opacity="1"><g transform="translate(791.908513, 482.376465)"><g><path d="M 3.242188 0.648438 C 5.644531 0.648438 6.550781 0.324219 7.199219 -1.558594 C 7.460938 -2.269531 7.71875 -3.699219 8.109375 -5.449219 C 8.5625 -7.394531 9.796875 -20.5 10.121094 -23.546875 C 10.183594 -24.195312 10.445312 -24.78125 10.636719 -24.78125 C 10.832031 -24.78125 11.027344 -24.324219 11.15625 -23.15625 C 11.417969 -20.5625 13.753906 -8.367188 14.140625 -6.355469 C 14.53125 -4.347656 16.867188 -3.4375 18.359375 -3.4375 C 19.851562 -3.4375 22.121094 -4.347656 22.507812 -6.355469 C 22.898438 -8.367188 25.234375 -20.5625 25.492188 -23.15625 C 25.625 -24.324219 25.816406 -24.78125 26.011719 -24.78125 C 26.207031 -24.78125 26.464844 -24.195312 26.53125 -23.546875 C 26.855469 -20.5 28.089844 -7.394531 28.542969 -5.449219 C 28.929688 -3.699219 29.191406 -2.269531 29.449219 -1.558594 C 30.097656 0.324219 31.007812 0.648438 33.40625 0.648438 C 35.289062 0.648438 36.003906 -0.390625 36.003906 -1.75 C 36.003906 -2.074219 35.9375 -2.464844 35.871094 -2.789062 C 35.679688 -3.566406 35.09375 -8.757812 34.511719 -14.078125 C 33.667969 -22.121094 32.5 -38.402344 31.980469 -41.96875 C 31.65625 -44.046875 31.136719 -45.992188 27.957031 -45.992188 C 24.519531 -45.992188 23.742188 -45.148438 23.222656 -42.75 C 22.507812 -39.308594 21.992188 -36.84375 21.601562 -34.445312 L 19.070312 -19.265625 C 19.007812 -18.683594 18.683594 -18.359375 18.359375 -18.359375 C 18.035156 -18.359375 17.710938 -18.683594 17.578125 -19.265625 L 15.050781 -34.445312 C 14.660156 -36.84375 14.140625 -39.308594 13.429688 -42.75 C 12.910156 -45.148438 12.128906 -45.992188 8.691406 -45.992188 C 5.515625 -45.992188 4.863281 -44.046875 4.671875 -41.96875 C 4.214844 -37.558594 3.632812 -22.121094 2.335938 -14.078125 C 1.492188 -8.820312 0.972656 -3.828125 0.777344 -2.789062 C 0.714844 -2.335938 0.648438 -1.882812 0.648438 -1.492188 C 0.648438 -0.0664062 1.363281 0.648438 3.242188 0.648438 Z M 3.242188 0.648438 "/></g></g></g></svg>