<svg xmlns="http://www.w3.org/2000/svg" xmlns:xlink="http://www.w3.org/1999/xlink" width="1920" zoomAndPan="magnify" viewBox="0 0 1440 809.999993" height="1080" preserveAspectRatio="xMidYMid meet" version="1.0"><defs><g/><clipPath id="828fd14a84"><path d="M 81 66 L 1370 66 L 1370 759.835938 L 81 759.835938 Z M 81 66 " clip-rule="nonzero"/></clipPath><clipPath id="2804b93571"><path d="M 1369.488281 759.816406 L 81.949219 757.980469 L 81.949219 309.96875 L 86.230469 70.816406 L 723.515625 66.226562 L 1364.898438 67.453125 Z M 1369.488281 759.816406 " clip-rule="nonzero"/></clipPath><clipPath id="3c4620e4f3"><path d="M 79 62.25 L 1373 62.25 L 1373 762.570312 L 79 762.570312 Z M 79 62.25 " clip-rule="nonzero"/></clipPath><clipPath id="1939ac68b1"><path d="M 1364.898438 67.453125 C 1365.207031 70.511719 1365.207031 72.960938 1365.511719 75.40625 C 1366.125 88.113281 1366.429688 103.117188 1367.042969 117.585938 C 1367.042969 138.488281 1370.101562 550.582031 1371.632812 571.480469 C 1373.160156 603.097656 1372.242188 635.25 1372.242188 666.867188 C 1372.242188 694.734375 1372.550781 720.457031 1372.855469 747.578125 C 1372.855469 752.78125 1372.855469 756.144531 1372.855469 761.960938 C 1367.347656 761.960938 1362.453125 762.265625 1354.695312 761.960938 C 1289.367188 760.734375 1223.03125 762.265625 1157.703125 761.042969 C 1118.507812 760.125 1080.3125 760.734375 1041.117188 760.125 C 1023.023438 759.816406 1004.933594 759.511719 986.84375 759.207031 C 975.785156 759.207031 965.734375 759.511719 954.679688 759.511719 C 926.539062 759.207031 849.148438 759.511719 821.007812 759.207031 C 800.90625 758.898438 398.878906 761.042969 378.777344 760.734375 C 373.75 760.734375 367.722656 761.042969 362.695312 761.042969 C 350.636719 761.042969 339.578125 761.347656 327.519531 761.347656 C 297.367188 761.347656 268.21875 761.042969 238.066406 760.734375 C 219.976562 760.429688 201.886719 760.125 184.796875 759.816406 C 152.636719 759.511719 120.472656 759.207031 90.210938 759.207031 C 87.761719 759.207031 85.621094 759.207031 83.171875 758.898438 C 81.03125 758.59375 79.804688 757.0625 80.417969 754.921875 C 82.558594 747.25 81.640625 733.855469 81.335938 719.921875 C 81.03125 691.519531 80.113281 663.652344 80.417969 635.25 C 79.804688 599.882812 78.582031 162.066406 80.417969 126.160156 C 80.722656 119.195312 80.417969 111.691406 80.722656 104.726562 C 81.03125 93.472656 81.640625 81.148438 81.949219 72.960938 C 81.949219 72.347656 82.253906 71.734375 82.558594 71.429688 C 87.761719 70.816406 95.347656 69.59375 111.429688 69.289062 C 138.566406 68.371094 165.703125 67.757812 193.84375 67.144531 C 212.941406 66.535156 232.035156 66.226562 250.128906 65.617188 C 268.21875 65.003906 287.316406 64.390625 305.40625 64.390625 C 325.507812 64.085938 345.609375 64.699219 365.710938 64.390625 C 390.835938 64.390625 846.132812 63.78125 871.257812 63.472656 C 895.382812 63.167969 919.503906 62.863281 944.628906 62.863281 C 985.835938 62.554688 1026.039062 62.25 1067.246094 62.25 C 1084.332031 62.25 1102.425781 62.863281 1119.511719 62.863281 C 1166.75 63.167969 1214.992188 63.472656 1262.230469 64.085938 C 1287.359375 64.390625 1312.484375 65.308594 1337.609375 66.226562 C 1343.640625 66.226562 1349.671875 66.226562 1354.695312 66.226562 C 1360.308594 66.535156 1362.453125 67.144531 1364.898438 67.453125 Z M 1367.347656 757.980469 C 1367.652344 754.003906 1367.960938 750.945312 1367.960938 747.882812 C 1367.652344 717.777344 1367.347656 689.375 1367.347656 658.832031 C 1367.347656 644.898438 1367.960938 630.964844 1367.652344 617.03125 C 1367.652344 604.171875 1367.347656 590.773438 1367.042969 577.914062 C 1365.816406 558.085938 1363.0625 147.597656 1363.0625 127.769531 C 1362.453125 111.15625 1361.839844 94.007812 1361.226562 77.550781 C 1360.921875 72.960938 1360.617188 72.652344 1351.683594 72.347656 C 1348.667969 72.347656 1346.65625 72.347656 1343.640625 72.042969 C 1318.515625 71.125 1292.382812 69.898438 1267.257812 69.59375 C 1205.945312 68.675781 1143.632812 68.371094 1082.324219 67.757812 C 1073.277344 67.757812 1063.226562 67.757812 1054.183594 67.757812 C 1039.105469 67.757812 1024.03125 67.757812 1009.957031 67.757812 C 977.796875 67.757812 945.632812 67.757812 914.476562 68.0625 C 887.339844 68.371094 430.035156 69.289062 402.898438 69.289062 C 358.675781 69.289062 314.453125 68.675781 270.230469 70.207031 C 247.113281 71.125 225 71.125 202.890625 71.429688 C 164.699219 72.347656 126.503906 73.265625 90.515625 74.488281 C 87.457031 74.488281 86.84375 75.101562 86.539062 79.539062 C 86.230469 89.1875 86.230469 98.832031 85.925781 108.476562 C 85.621094 124.554688 85.007812 140.09375 84.703125 156.171875 C 83.476562 173.320312 85.007812 592.382812 85.621094 609.53125 C 85.621094 627.75 85.621094 646.503906 85.925781 664.726562 C 85.925781 678.121094 86.539062 691.519531 86.539062 704.917969 C 86.539062 719.386719 86.539062 733.855469 86.230469 747.882812 C 86.230469 748.800781 86.230469 749.414062 86.230469 750.332031 C 86.230469 752.78125 87.148438 753.699219 89.292969 753.699219 C 97.359375 753.699219 111.429688 754.003906 124.496094 754.003906 C 143.589844 754.003906 163.691406 753.390625 182.789062 754.003906 C 213.945312 754.921875 245.101562 755.535156 276.261719 755.226562 C 296.359375 754.921875 315.457031 755.535156 335.558594 755.535156 C 364.707031 755.535156 393.851562 755.226562 423 755.535156 C 466.21875 755.839844 940.609375 753.390625 984.832031 754.003906 C 1003.929688 754.308594 1023.023438 754.617188 1041.117188 754.617188 C 1074.28125 755.226562 1106.445312 754.308594 1139.613281 755.226562 C 1166.75 755.839844 1193.886719 755.839844 1221.023438 756.453125 C 1261.226562 757.371094 1301.429688 757.980469 1341.632812 758.289062 C 1356.707031 758.289062 1362.453125 757.980469 1367.347656 757.980469 Z M 1367.347656 757.980469 " clip-rule="nonzero"/></clipPath><clipPath id="ac708e024a"><path d="M 1106 438.574219 L 1434 438.574219 L 1434 762 L 1106 762 Z M 1106 438.574219 " clip-rule="nonzero"/></clipPath><clipPath id="061f76d55d"><path d="M 167.273438 553.800781 L 345 553.800781 L 345 729 L 167.273438 729 Z M 167.273438 553.800781 " clip-rule="nonzero"/></clipPath></defs><rect x="-144" width="1728" fill="#ffffff" y="-80.999999" height="971.999992" fill-opacity="1"/><rect x="-144" width="1728" fill="#ebde70" y="-80.999999" height="971.999992" fill-opacity="1"/><g clip-path="url(#828fd14a84)"><g clip-path="url(#2804b93571)"><path fill="#ffffff" d="M 79.5 62.25 L 1373.453125 62.25 L 1373.453125 762.574219 L 79.5 762.574219 Z M 79.5 62.25 " fill-opacity="1" fill-rule="nonzero"/></g></g><g clip-path="url(#3c4620e4f3)"><g clip-path="url(#1939ac68b1)"><path fill="#000000" d="M 79.5 62.25 L 1373.453125 62.25 L 1373.453125 762.574219 L 79.5 762.574219 Z M 79.5 62.25 " fill-opacity="1" fill-rule="nonzero"/></g></g><path fill="#d2b1a2" d="M 36.246094 288.898438 C 34.585938 289.429688 32.941406 289.972656 31.332031 290.507812 C 13.109375 296.582031 -3.988281 313.074219 -11.203125 331.992188 C -20.519531 356.40625 -16.296875 382.960938 8.808594 400.890625 C 22.589844 410.730469 34.089844 412.386719 50.105469 414.386719 C 61.898438 415.859375 72.398438 416.285156 82.699219 414.820312 C 82.613281 417.449219 82.574219 420.09375 82.574219 422.769531 C 82.574219 434.324219 84.199219 449 89.476562 459.550781 C 96.355469 473.304688 109.222656 482.933594 123.050781 487.957031 C 142.722656 495.109375 160.582031 493.339844 175.554688 486.0625 C 189.597656 479.238281 201.765625 466.984375 209.292969 448.925781 C 211.921875 442.621094 213.527344 436.21875 214.40625 429.75 C 220.75 431.511719 227.484375 432.46875 234.25 432.449219 C 252.15625 432.402344 269.316406 425.59375 280.40625 414.507812 C 286.484375 408.429688 291.621094 396.84375 293.789062 388.914062 C 302.007812 358.785156 292.425781 318.769531 261.566406 303.34375 C 260.050781 302.585938 258.507812 301.882812 256.9375 301.222656 C 261.09375 295.503906 264.875 289.328125 267.398438 283.015625 C 270.117188 276.226562 272.886719 269.652344 273.707031 262.238281 C 274.40625 255.964844 274.449219 249.644531 273.558594 243.398438 C 271.230469 227.125 263.8125 216.753906 255.09375 209.648438 C 246.589844 202.714844 235.9375 198.644531 223.714844 198.070312 C 208.535156 197.355469 188.398438 204.566406 178.101562 208.308594 C 172.609375 210.304688 167.722656 213.355469 162.695312 216.289062 C 157.183594 219.503906 152.070312 222.910156 147.464844 227.191406 C 143.628906 216.914062 138.054688 207.195312 129.453125 200.03125 C 95.375 171.644531 49.246094 191.335938 35.347656 228.386719 C 32.277344 236.570312 29.054688 252.300781 29.753906 264.933594 C 30.277344 274.339844 32.804688 282.601562 36.246094 288.898438 " fill-opacity="1" fill-rule="evenodd"/><path fill="#c06641" d="M 115.667969 363.703125 C 116.667969 364.765625 117.746094 365.773438 118.890625 366.730469 C 147.789062 390.8125 171.777344 363.453125 173.007812 361.984375 C 175.796875 358.667969 192.941406 336.96875 173.316406 312.972656 C 172.996094 312.578125 170.53125 309.925781 169.546875 308.941406 C 154.550781 293.953125 130.203125 293.953125 115.207031 308.941406 C 100.214844 323.929688 100.214844 348.265625 115.207031 363.253906 L 115.667969 363.703125 " fill-opacity="1" fill-rule="evenodd"/><g clip-path="url(#ac708e024a)"><path fill="#c78469" d="M 1206.351562 508.785156 C 1204.332031 506.792969 1202.4375 504.988281 1200.699219 503.386719 C 1192.03125 495.394531 1182.839844 492.421875 1173.792969 492.539062 C 1162.371094 492.691406 1150.453125 498.492188 1140.027344 508.664062 C 1126.15625 522.199219 1114.550781 543.609375 1109.613281 559.933594 C 1106.847656 569.074219 1106.191406 577.046875 1107.015625 582.371094 C 1108.054688 589.136719 1113.257812 597.578125 1122.675781 604.632812 C 1131.253906 611.058594 1143.683594 617.21875 1153.046875 621.335938 C 1148.828125 622.410156 1144.597656 623.804688 1140.804688 625.710938 C 1132.945312 629.664062 1126.679688 635.554688 1123.148438 643.785156 C 1120.539062 649.871094 1120 657.109375 1121.269531 664.578125 C 1122.433594 671.414062 1125.203125 678.539062 1127.0625 683.808594 C 1130.027344 692.203125 1133.722656 700.054688 1138.046875 707.835938 C 1145.511719 721.25 1150.992188 733.84375 1165.539062 741.113281 C 1173.871094 745.273438 1181.007812 745.386719 1187.1875 743.75 C 1192.894531 742.238281 1198.023438 738.949219 1202.476562 734.226562 C 1206.679688 729.769531 1210.089844 723.332031 1214 718.894531 L 1217.40625 714.972656 C 1216.054688 721.484375 1215.035156 727.578125 1214.679688 732.410156 C 1213.917969 742.691406 1216.617188 750.058594 1219.25 753.5625 C 1220.921875 755.789062 1227.375 761.304688 1238.84375 761.863281 C 1253.550781 762.578125 1287.308594 759.699219 1291.480469 758.984375 C 1298.085938 757.84375 1309.707031 756.441406 1318.410156 752.972656 C 1324.8125 750.421875 1330.003906 746.753906 1333.453125 742.449219 C 1336.898438 738.144531 1338.945312 732.046875 1338.363281 724.804688 C 1338.121094 721.761719 1337.234375 718.269531 1336.261719 715.058594 C 1346.230469 721.96875 1355.320312 727.523438 1361.496094 730.371094 C 1371.761719 735.105469 1382.75 733.558594 1393.125 724.714844 C 1404.644531 714.90625 1416.441406 691.519531 1423.558594 670.21875 C 1429.175781 653.402344 1431.808594 637.96875 1431.292969 631.800781 C 1430.421875 621.316406 1424.203125 616.671875 1419.925781 614.75 C 1406.867188 608.875 1389.695312 606.617188 1370.898438 605.808594 C 1379.273438 603.023438 1387.554688 599.835938 1395.695312 596.5 C 1420.640625 586.273438 1430.605469 574.371094 1432.894531 562.214844 C 1434.996094 551.03125 1430.25 536.183594 1416.292969 515.804688 C 1410.957031 508.015625 1405.742188 499.417969 1399.003906 492.683594 C 1388.964844 482.652344 1376.886719 480.59375 1364.667969 483.132812 C 1356.289062 484.875 1347.824219 489.15625 1340.988281 493.316406 C 1337.4375 495.472656 1334 497.804688 1330.667969 500.292969 C 1331.894531 495.582031 1332.921875 490.972656 1333.605469 486.742188 C 1335.949219 472.289062 1333.199219 460.707031 1328.753906 455.152344 C 1324.992188 450.457031 1315.273438 445.027344 1301.746094 442.554688 C 1281.851562 438.910156 1251.773438 438.550781 1242.222656 439.109375 C 1238.132812 439.351562 1229.628906 439.25 1223.589844 441.148438 C 1216.863281 443.265625 1211.898438 447.308594 1208.996094 452.386719 C 1204.992188 459.386719 1203.171875 468.277344 1203.144531 477.742188 C 1203.113281 487.769531 1205.082031 498.550781 1206.0625 506.402344 L 1206.351562 508.785156 " fill-opacity="1" fill-rule="evenodd"/></g><path fill="#a4421b" d="M 1228.996094 576.074219 C 1228.164062 577.050781 1227.378906 578.070312 1226.644531 579.128906 C 1216.496094 593.722656 1215.714844 612.992188 1231.8125 626.390625 C 1238.398438 631.875 1245.496094 634.289062 1252.453125 634.226562 C 1254.828125 634.851562 1257.199219 635.117188 1259.523438 635.109375 C 1268.222656 635.085938 1277.128906 630.65625 1283.660156 622.796875 C 1292.570312 612.0625 1295.746094 595.589844 1290.820312 584.113281 C 1290.183594 580.152344 1288.890625 576.398438 1286.886719 573.058594 C 1275.957031 554.863281 1256.324219 554.121094 1240.507812 564.625 C 1235.964844 567.640625 1232.039062 571.585938 1228.996094 576.074219 " fill-opacity="1" fill-rule="evenodd"/><g clip-path="url(#061f76d55d)"><path fill="#c78469" d="M 221.464844 591.832031 C 220.371094 590.753906 219.347656 589.777344 218.410156 588.90625 C 213.734375 584.578125 208.769531 582.96875 203.886719 583.03125 C 197.71875 583.113281 191.285156 586.257812 185.660156 591.765625 C 178.167969 599.097656 171.902344 610.695312 169.238281 619.539062 C 167.746094 624.488281 167.390625 628.804688 167.835938 631.691406 C 168.398438 635.355469 171.207031 639.929688 176.289062 643.75 C 180.921875 647.230469 187.632812 650.566406 192.6875 652.796875 C 190.410156 653.378906 188.125 654.132812 186.078125 655.167969 C 181.835938 657.308594 178.453125 660.5 176.546875 664.957031 C 175.136719 668.253906 174.84375 672.175781 175.53125 676.21875 C 176.160156 679.921875 177.65625 683.78125 178.660156 686.636719 C 180.257812 691.183594 182.253906 695.4375 184.589844 699.648438 C 188.617188 706.917969 191.574219 713.738281 199.429688 717.675781 C 203.925781 719.929688 207.78125 719.992188 211.117188 719.105469 C 214.199219 718.285156 216.96875 716.503906 219.371094 713.945312 C 221.640625 711.53125 223.480469 708.042969 225.589844 705.640625 L 227.429688 703.515625 C 226.699219 707.042969 226.152344 710.34375 225.957031 712.960938 C 225.546875 718.53125 227.003906 722.519531 228.425781 724.417969 C 229.328125 725.625 232.8125 728.613281 239.003906 728.914062 C 246.945312 729.300781 265.167969 727.746094 267.417969 727.355469 C 270.984375 726.738281 277.257812 725.980469 281.957031 724.101562 C 285.414062 722.71875 288.21875 720.730469 290.078125 718.398438 C 291.9375 716.066406 293.042969 712.765625 292.730469 708.84375 C 292.597656 707.195312 292.117188 705.300781 291.59375 703.5625 C 296.976562 707.304688 301.882812 710.316406 305.214844 711.859375 C 310.757812 714.421875 316.691406 713.582031 322.292969 708.792969 C 328.511719 703.480469 334.878906 690.8125 338.722656 679.277344 C 341.753906 670.164062 343.175781 661.804688 342.898438 658.464844 C 342.425781 652.785156 339.070312 650.269531 336.761719 649.230469 C 329.710938 646.046875 320.441406 644.824219 310.292969 644.386719 C 314.816406 642.878906 319.285156 641.152344 323.679688 639.34375 C 337.144531 633.804688 342.527344 627.355469 343.761719 620.773438 C 344.898438 614.714844 342.335938 606.671875 334.800781 595.632812 C 331.917969 591.414062 329.105469 586.757812 325.464844 583.109375 C 320.046875 577.675781 313.527344 576.5625 306.929688 577.9375 C 302.40625 578.882812 297.835938 581.199219 294.144531 583.453125 C 292.230469 584.621094 290.371094 585.886719 288.574219 587.230469 C 289.238281 584.679688 289.792969 582.183594 290.160156 579.890625 C 291.425781 572.0625 289.941406 565.789062 287.542969 562.78125 C 285.511719 560.238281 280.265625 557.296875 272.960938 555.957031 C 262.21875 553.980469 245.984375 553.789062 240.828125 554.09375 C 238.621094 554.222656 234.027344 554.164062 230.769531 555.195312 C 227.136719 556.34375 224.457031 558.53125 222.890625 561.285156 C 220.730469 565.074219 219.746094 569.890625 219.730469 575.015625 C 219.714844 580.449219 220.777344 586.289062 221.308594 590.542969 L 221.464844 591.832031 " fill-opacity="1" fill-rule="evenodd"/></g><path fill="#a4421b" d="M 233.6875 628.277344 C 233.238281 628.808594 232.8125 629.363281 232.417969 629.933594 C 226.9375 637.839844 226.519531 648.277344 235.207031 655.535156 C 238.765625 658.507812 242.59375 659.8125 246.351562 659.777344 C 247.632812 660.117188 248.910156 660.261719 250.167969 660.257812 C 254.863281 660.246094 259.671875 657.84375 263.195312 653.585938 C 268.007812 647.773438 269.722656 638.851562 267.0625 632.632812 C 266.71875 630.488281 266.023438 628.457031 264.941406 626.648438 C 259.039062 616.789062 248.441406 616.386719 239.902344 622.078125 C 237.449219 623.710938 235.328125 625.847656 233.6875 628.277344 " fill-opacity="1" fill-rule="evenodd"/><path fill="#d2b1a2" d="M 1290.0625 216.835938 C 1289.125 217.136719 1288.195312 217.441406 1287.285156 217.746094 C 1276.988281 221.175781 1267.328125 230.488281 1263.25 241.175781 C 1257.984375 254.964844 1260.371094 269.964844 1274.558594 280.089844 C 1282.347656 285.652344 1288.84375 286.585938 1297.894531 287.714844 C 1304.5625 288.546875 1310.496094 288.789062 1316.316406 287.960938 C 1316.265625 289.445312 1316.242188 290.9375 1316.242188 292.449219 C 1316.242188 298.976562 1317.160156 307.265625 1320.144531 313.226562 C 1324.03125 320.996094 1331.304688 326.433594 1339.117188 329.269531 C 1350.234375 333.308594 1360.328125 332.308594 1368.789062 328.199219 C 1376.726562 324.347656 1383.601562 317.421875 1387.855469 307.222656 C 1389.339844 303.664062 1390.246094 300.046875 1390.746094 296.390625 C 1394.328125 297.386719 1398.136719 297.925781 1401.960938 297.917969 C 1412.078125 297.890625 1421.773438 294.046875 1428.042969 287.78125 C 1431.476562 284.351562 1434.382812 277.804688 1435.605469 273.328125 C 1440.25 256.308594 1434.835938 233.707031 1417.394531 224.996094 C 1416.539062 224.566406 1415.667969 224.167969 1414.777344 223.796875 C 1417.128906 220.566406 1419.265625 217.078125 1420.691406 213.511719 C 1422.226562 209.679688 1423.792969 205.964844 1424.257812 201.777344 C 1424.652344 198.234375 1424.675781 194.664062 1424.171875 191.136719 C 1422.859375 181.945312 1418.664062 176.085938 1413.738281 172.070312 C 1408.929688 168.15625 1402.910156 165.855469 1396.003906 165.53125 C 1387.425781 165.128906 1376.046875 169.203125 1370.226562 171.316406 C 1367.125 172.441406 1364.363281 174.167969 1361.523438 175.824219 C 1358.40625 177.636719 1355.515625 179.5625 1352.914062 181.980469 C 1350.75 176.175781 1347.597656 170.6875 1342.738281 166.640625 C 1323.476562 150.605469 1297.410156 161.730469 1289.554688 182.65625 C 1287.820312 187.277344 1286 196.164062 1286.394531 203.296875 C 1286.691406 208.613281 1288.117188 213.277344 1290.0625 216.835938 " fill-opacity="1" fill-rule="evenodd"/><path fill="#c06641" d="M 1334.945312 259.089844 C 1335.511719 259.6875 1336.121094 260.257812 1336.765625 260.796875 C 1353.097656 274.402344 1366.65625 258.945312 1367.347656 258.117188 C 1368.925781 256.242188 1378.613281 243.988281 1367.523438 230.433594 C 1367.34375 230.210938 1365.949219 228.710938 1365.394531 228.15625 C 1356.917969 219.6875 1343.160156 219.6875 1334.6875 228.15625 C 1326.214844 236.621094 1326.214844 250.367188 1334.6875 258.835938 L 1334.945312 259.089844 " fill-opacity="1" fill-rule="evenodd"/><path fill="#000000" d="M 542.59375 344.03125 C 542.59375 344.738281 542.523438 345.445312 542.386719 346.140625 C 542.246094 346.835938 542.039062 347.515625 541.769531 348.171875 C 541.496094 348.828125 541.164062 349.453125 540.769531 350.042969 C 540.375 350.632812 539.925781 351.179688 539.421875 351.683594 C 538.921875 352.183594 538.375 352.632812 537.78125 353.027344 C 537.191406 353.421875 536.570312 353.757812 535.910156 354.027344 C 535.253906 354.300781 534.578125 354.503906 533.882812 354.644531 C 533.183594 354.78125 532.480469 354.851562 531.769531 354.851562 C 531.058594 354.851562 530.355469 354.78125 529.660156 354.644531 C 528.960938 354.503906 528.285156 354.300781 527.628906 354.027344 C 526.972656 353.757812 526.347656 353.421875 525.757812 353.027344 C 525.167969 352.632812 524.621094 352.183594 524.117188 351.683594 C 523.617188 351.179688 523.167969 350.632812 522.773438 350.042969 C 522.378906 349.453125 522.042969 348.828125 521.773438 348.171875 C 521.5 347.515625 521.292969 346.835938 521.15625 346.140625 C 521.015625 345.445312 520.949219 344.738281 520.949219 344.03125 C 520.949219 343.320312 521.015625 342.613281 521.15625 341.917969 C 521.292969 341.222656 521.5 340.542969 521.773438 339.886719 C 522.042969 339.230469 522.378906 338.609375 522.773438 338.015625 C 523.167969 337.425781 523.617188 336.878906 524.117188 336.378906 C 524.621094 335.875 525.167969 335.425781 525.757812 335.03125 C 526.347656 334.636719 526.972656 334.304688 527.628906 334.03125 C 528.285156 333.757812 528.960938 333.554688 529.660156 333.414062 C 530.355469 333.277344 531.058594 333.207031 531.769531 333.207031 C 532.480469 333.207031 533.183594 333.277344 533.882812 333.414062 C 534.578125 333.554688 535.253906 333.757812 535.910156 334.03125 C 536.570312 334.304688 537.191406 334.636719 537.78125 335.03125 C 538.375 335.425781 538.921875 335.875 539.421875 336.378906 C 539.925781 336.878906 540.375 337.425781 540.769531 338.015625 C 541.164062 338.609375 541.496094 339.230469 541.769531 339.886719 C 542.039062 340.542969 542.246094 341.222656 542.386719 341.917969 C 542.523438 342.613281 542.59375 343.320312 542.59375 344.03125 Z M 542.59375 344.03125 " fill-opacity="1" fill-rule="nonzero"/><g fill="#000000" fill-opacity="1"><g transform="translate(571.711452, 365.674133)"><g><path d="M 13.363281 0.648438 C 15.503906 0.648438 16.152344 -0.519531 16.152344 -3.179688 L 15.957031 -24.648438 C 15.957031 -26.53125 16.152344 -34.445312 16.152344 -36.910156 C 16.152344 -38.402344 16.542969 -39.117188 18.226562 -39.375 C 19.460938 -39.570312 20.238281 -39.441406 22.445312 -39.894531 C 24.648438 -40.347656 25.429688 -42.292969 25.429688 -43.332031 C 25.429688 -44.371094 24.390625 -45.601562 22.769531 -45.601562 C 17.386719 -45.601562 10.25 -45.667969 3.179688 -45.667969 C 1.945312 -45.667969 0.648438 -44.5 0.648438 -42.878906 C 0.648438 -41.257812 0.257812 -39.765625 4.152344 -39.765625 C 8.042969 -39.765625 9.601562 -39.765625 9.601562 -36.195312 L 9.664062 -35.09375 C 9.988281 -29.320312 9.796875 -23.742188 9.796875 -18.617188 C 9.796875 -15.246094 9.730469 -11.289062 9.664062 -7.394531 C 9.601562 -5.707031 9.601562 -2.789062 9.601562 -2.789062 C 9.601562 0.128906 11.222656 0.648438 13.363281 0.648438 Z M 13.363281 0.648438 "/></g></g></g><g fill="#000000" fill-opacity="1"><g transform="translate(597.787564, 365.674133)"><g><path d="M 20.109375 0.714844 C 21.34375 0.714844 23.222656 0.257812 23.222656 -1.296875 C 23.222656 -2.789062 22.183594 -3.242188 19.199219 -8.042969 C 17.644531 -10.507812 16.410156 -13.753906 15.761719 -16.671875 C 16.605469 -17.125 17.515625 -17.839844 18.550781 -18.746094 C 19.914062 -20.042969 21.40625 -23.15625 21.40625 -28.089844 C 21.40625 -33.210938 18.941406 -46.511719 9.859375 -46.511719 C 4.929688 -46.511719 1.945312 -45.40625 1.945312 -41.320312 C 1.945312 -39.050781 2.207031 -36.519531 2.207031 -34.445312 C 2.269531 -28.671875 2.335938 -23.742188 2.335938 -18.617188 C 2.335938 -15.246094 2.269531 -11.742188 2.207031 -7.847656 C 2.140625 -6.164062 2.140625 -3.242188 2.140625 -3.242188 C 2.140625 -1.039062 2.917969 0.582031 5.449219 0.582031 C 8.628906 0.582031 8.820312 -1.039062 8.820312 -3.242188 C 8.820312 -3.242188 8.820312 -6.164062 8.757812 -7.847656 C 8.691406 -9.015625 8.691406 -9.988281 8.691406 -10.769531 C 8.691406 -12.453125 8.757812 -13.492188 8.953125 -14.140625 C 9.015625 -14.402344 9.210938 -14.53125 9.40625 -14.53125 C 9.664062 -14.53125 9.988281 -14.269531 10.054688 -13.882812 C 10.832031 -10.574219 13.167969 -6.355469 14.789062 -3.699219 C 16.21875 -1.296875 17.386719 0 19.070312 0.582031 C 19.265625 0.648438 19.65625 0.714844 20.109375 0.714844 Z M 11.417969 -22.769531 C 9.40625 -22.769531 8.628906 -24 8.628906 -25.753906 L 8.628906 -36.003906 C 8.5625 -39.179688 8.628906 -40.671875 10.183594 -40.671875 C 12.585938 -40.671875 14.984375 -36.066406 14.984375 -30.230469 C 14.984375 -25.753906 13.558594 -22.769531 11.417969 -22.769531 Z M 11.417969 -22.769531 "/></g></g></g><g fill="#000000" fill-opacity="1"><g transform="translate(621.139315, 365.674133)"><g><path d="M 5.902344 0.648438 C 6.617188 0.648438 8.953125 0.128906 11.546875 0 C 15.503906 -0.195312 19.980469 -0.257812 19.980469 -2.140625 C 19.980469 -5.644531 15.503906 -5.902344 12.714844 -5.902344 C 9.859375 -5.902344 8.304688 -5.707031 8.304688 -7.980469 L 8.304688 -14.855469 C 8.304688 -15.894531 9.082031 -16.734375 9.988281 -16.734375 C 11.351562 -16.734375 16.929688 -16.605469 16.929688 -19.070312 C 16.929688 -21.859375 13.101562 -22.378906 10.574219 -22.378906 C 9.339844 -22.378906 8.628906 -22.769531 8.628906 -24.648438 C 8.628906 -26.53125 8.496094 -34.703125 8.496094 -37.167969 C 8.496094 -40.285156 11.027344 -39.636719 14.078125 -39.636719 C 16.800781 -39.636719 19.914062 -40.21875 19.914062 -43.332031 C 19.914062 -44.371094 18.875 -45.601562 17.253906 -45.601562 C 15.632812 -45.601562 6.488281 -45.925781 4.410156 -45.863281 C 2.335938 -45.796875 1.945312 -43.589844 1.945312 -41.320312 C 1.945312 -39.050781 2.207031 -36.519531 2.207031 -34.445312 C 2.269531 -28.671875 2.335938 -23.742188 2.335938 -18.617188 C 2.335938 -15.246094 2.269531 -11.289062 2.207031 -7.394531 C 2.140625 -5.707031 2.140625 -2.789062 2.140625 -2.789062 C 2.140625 0.128906 4.28125 0.648438 5.902344 0.648438 Z M 5.902344 0.648438 "/></g></g></g><g fill="#000000" fill-opacity="1"><g transform="translate(643.064006, 365.674133)"><g><path d="M 5.902344 0.648438 C 6.617188 0.648438 8.953125 0.128906 11.546875 0 C 15.503906 -0.195312 19.980469 -0.257812 19.980469 -2.140625 C 19.980469 -5.644531 15.503906 -5.902344 12.714844 -5.902344 C 9.859375 -5.902344 8.304688 -5.707031 8.304688 -7.980469 L 8.304688 -14.855469 C 8.304688 -15.894531 9.082031 -16.734375 9.988281 -16.734375 C 11.351562 -16.734375 16.929688 -16.605469 16.929688 -19.070312 C 16.929688 -21.859375 13.101562 -22.378906 10.574219 -22.378906 C 9.339844 -22.378906 8.628906 -22.769531 8.628906 -24.648438 C 8.628906 -26.53125 8.496094 -34.703125 8.496094 -37.167969 C 8.496094 -40.285156 11.027344 -39.636719 14.078125 -39.636719 C 16.800781 -39.636719 19.914062 -40.21875 19.914062 -43.332031 C 19.914062 -44.371094 18.875 -45.601562 17.253906 -45.601562 C 15.632812 -45.601562 6.488281 -45.925781 4.410156 -45.863281 C 2.335938 -45.796875 1.945312 -43.589844 1.945312 -41.320312 C 1.945312 -39.050781 2.207031 -36.519531 2.207031 -34.445312 C 2.269531 -28.671875 2.335938 -23.742188 2.335938 -18.617188 C 2.335938 -15.246094 2.269531 -11.289062 2.207031 -7.394531 C 2.140625 -5.707031 2.140625 -2.789062 2.140625 -2.789062 C 2.140625 0.128906 4.28125 0.648438 5.902344 0.648438 Z M 5.902344 0.648438 "/></g></g></g><g fill="#000000" fill-opacity="1"><g transform="translate(664.988696, 365.674133)"><g/></g></g><g fill="#000000" fill-opacity="1"><g transform="translate(679.25921, 365.674133)"><g><path d="M 5.449219 0.582031 C 7.980469 0.582031 8.757812 -1.039062 8.757812 -3.242188 L 8.757812 -13.234375 C 8.757812 -15.375 9.730469 -15.308594 11.15625 -15.375 C 17.191406 -15.375 21.40625 -20.175781 21.40625 -28.089844 C 21.40625 -36.003906 18.941406 -46.511719 9.859375 -46.511719 C 4.929688 -46.511719 1.945312 -46.382812 1.945312 -42.292969 C 1.945312 -40.023438 2.207031 -36.519531 2.207031 -34.445312 C 2.269531 -28.671875 2.335938 -23.742188 2.335938 -18.617188 C 2.335938 -15.246094 2.269531 -11.742188 2.207031 -7.847656 C 2.140625 -6.164062 2.140625 -3.242188 2.140625 -3.242188 C 2.140625 -1.039062 2.917969 0.582031 5.449219 0.582031 Z M 11.417969 -22.769531 C 9.40625 -22.769531 8.628906 -24 8.628906 -25.753906 L 8.5625 -36.003906 C 8.5625 -39.179688 8.628906 -40.671875 10.183594 -40.671875 C 12.585938 -40.671875 14.984375 -36.066406 14.984375 -30.230469 C 14.984375 -25.753906 13.558594 -22.769531 11.417969 -22.769531 Z M 11.417969 -22.769531 "/></g></g></g><g fill="#000000" fill-opacity="1"><g transform="translate(703.194746, 365.674133)"><g><path d="M 5.902344 0.648438 C 7.460938 0.648438 9.277344 0 11.871094 0 L 16.476562 0 C 17.96875 0 19.980469 -0.195312 19.980469 -2.140625 C 19.980469 -5.644531 15.503906 -5.902344 12.714844 -5.902344 C 9.859375 -5.902344 8.496094 -5.707031 8.496094 -7.980469 L 8.496094 -24.648438 L 8.757812 -34.445312 C 8.820312 -36.976562 9.015625 -40.152344 9.015625 -42.75 C 9.015625 -44.433594 8.691406 -45.863281 5.253906 -45.863281 C 2.074219 -45.863281 1.945312 -44.046875 1.945312 -41.96875 C 1.945312 -39.570312 2.207031 -36.714844 2.207031 -34.445312 C 2.269531 -28.671875 2.335938 -23.742188 2.335938 -18.617188 C 2.335938 -15.246094 2.269531 -11.289062 2.207031 -7.394531 C 2.140625 -5.707031 2.140625 -2.789062 2.140625 -2.789062 C 2.140625 0.128906 4.28125 0.648438 5.902344 0.648438 Z M 5.902344 0.648438 "/></g></g></g><g fill="#000000" fill-opacity="1"><g transform="translate(723.822122, 365.674133)"><g><path d="M 3.566406 0.648438 C 5.96875 0.648438 6.941406 0.324219 7.523438 -1.75 C 7.914062 -3.179688 8.109375 -4.152344 8.433594 -5.058594 C 8.886719 -6.355469 9.796875 -7.460938 12.195312 -7.460938 C 14.59375 -7.460938 15.503906 -6.355469 15.957031 -5.058594 C 16.28125 -4.152344 16.476562 -3.179688 16.867188 -1.75 C 17.449219 0.324219 18.421875 0.648438 20.824219 0.648438 C 22.640625 0.648438 23.351562 -0.257812 23.351562 -1.425781 C 23.351562 -1.816406 23.289062 -2.207031 23.15625 -2.660156 C 22.507812 -4.800781 17.710938 -29.90625 16.605469 -36.519531 C 16.347656 -38.144531 15.828125 -41.515625 15.828125 -43.265625 C 15.828125 -45.019531 14.53125 -46.121094 12.195312 -46.121094 C 9.859375 -46.121094 8.5625 -45.019531 8.5625 -43.265625 C 8.5625 -41.515625 8.042969 -38.144531 7.785156 -36.519531 C 6.679688 -29.90625 1.882812 -4.800781 1.234375 -2.660156 C 1.101562 -2.207031 1.039062 -1.816406 1.039062 -1.425781 C 1.039062 -0.257812 1.75 0.648438 3.566406 0.648438 Z M 12.195312 -12.84375 C 10.960938 -12.84375 9.730469 -12.972656 9.925781 -14.660156 C 10.183594 -16.671875 11.613281 -29.710938 12.195312 -29.710938 C 12.777344 -29.710938 14.207031 -16.671875 14.464844 -14.660156 C 14.660156 -12.972656 13.492188 -12.84375 12.195312 -12.84375 Z M 12.195312 -12.84375 "/></g></g></g><g fill="#000000" fill-opacity="1"><g transform="translate(749.119838, 365.674133)"><g><path d="M 26.855469 -14.140625 L 26.855469 -21.796875 L 26.984375 -34.445312 C 26.984375 -36.976562 27.246094 -40.152344 27.246094 -42.75 C 27.246094 -44.433594 26.921875 -45.863281 23.484375 -45.863281 C 20.304688 -45.863281 20.175781 -44.046875 20.175781 -41.96875 C 20.175781 -39.570312 20.433594 -36.714844 20.433594 -34.445312 C 20.5 -28.996094 20.691406 -22.964844 20.691406 -18.035156 C 20.691406 -17.386719 20.367188 -17.058594 20.042969 -17.058594 C 19.71875 -17.058594 19.394531 -17.320312 19.199219 -17.839844 C 16.023438 -26.984375 11.09375 -42.101562 10.378906 -43.785156 C 9.40625 -46.121094 7.847656 -45.863281 5.253906 -45.863281 L 5.058594 -45.863281 C 2.074219 -45.796875 1.945312 -43.980469 1.945312 -41.96875 C 1.945312 -39.570312 2.207031 -36.714844 2.207031 -34.445312 C 2.269531 -28.671875 2.335938 -23.742188 2.335938 -18.617188 C 2.335938 -15.246094 2.269531 -11.742188 2.207031 -7.847656 C 2.140625 -6.164062 2.140625 -3.242188 2.140625 -3.242188 C 2.140625 -1.039062 2.917969 0.582031 5.449219 0.582031 C 8.628906 0.582031 8.820312 -1.039062 8.820312 -3.242188 C 8.820312 -3.242188 8.820312 -6.164062 8.757812 -7.847656 C 8.691406 -10.054688 8.691406 -12.128906 8.628906 -14.140625 L 8.628906 -24.519531 C 8.691406 -25.167969 9.082031 -25.492188 9.535156 -25.492188 C 9.925781 -25.492188 10.3125 -25.234375 10.507812 -24.714844 L 17.386719 -3.503906 C 18.359375 -0.582031 20.042969 0.582031 23.675781 0.582031 C 26.855469 0.582031 27.050781 -1.039062 27.050781 -3.242188 C 27.050781 -3.242188 27.050781 -6.164062 26.984375 -7.847656 C 26.921875 -10.054688 26.921875 -12.128906 26.855469 -14.140625 Z M 26.855469 -14.140625 "/></g></g></g><g fill="#000000" fill-opacity="1"><g transform="translate(778.309516, 365.674133)"><g><path d="M 13.363281 0.648438 C 15.503906 0.648438 16.152344 -0.519531 16.152344 -3.179688 L 15.957031 -24.648438 C 15.957031 -26.53125 16.152344 -34.445312 16.152344 -36.910156 C 16.152344 -38.402344 16.542969 -39.117188 18.226562 -39.375 C 19.460938 -39.570312 20.238281 -39.441406 22.445312 -39.894531 C 24.648438 -40.347656 25.429688 -42.292969 25.429688 -43.332031 C 25.429688 -44.371094 24.390625 -45.601562 22.769531 -45.601562 C 17.386719 -45.601562 10.25 -45.667969 3.179688 -45.667969 C 1.945312 -45.667969 0.648438 -44.5 0.648438 -42.878906 C 0.648438 -41.257812 0.257812 -39.765625 4.152344 -39.765625 C 8.042969 -39.765625 9.601562 -39.765625 9.601562 -36.195312 L 9.664062 -35.09375 C 9.988281 -29.320312 9.796875 -23.742188 9.796875 -18.617188 C 9.796875 -15.246094 9.730469 -11.289062 9.664062 -7.394531 C 9.601562 -5.707031 9.601562 -2.789062 9.601562 -2.789062 C 9.601562 0.128906 11.222656 0.648438 13.363281 0.648438 Z M 13.363281 0.648438 "/></g></g></g><g fill="#000000" fill-opacity="1"><g transform="translate(804.385628, 365.674133)"><g><path d="M 5.449219 0.582031 C 8.628906 0.582031 8.820312 -1.039062 8.820312 -3.242188 C 8.820312 -3.242188 8.820312 -6.164062 8.757812 -7.847656 C 8.691406 -10.054688 8.691406 -12.128906 8.628906 -14.140625 L 8.691406 -21.796875 L 8.757812 -34.445312 C 8.757812 -36.976562 9.015625 -40.152344 9.015625 -42.75 C 9.015625 -44.433594 8.691406 -45.863281 5.253906 -45.863281 C 2.074219 -45.863281 1.945312 -44.046875 1.945312 -41.96875 C 1.945312 -39.570312 2.207031 -36.714844 2.207031 -34.445312 C 2.269531 -28.671875 2.335938 -23.742188 2.335938 -18.617188 C 2.335938 -15.246094 2.269531 -11.742188 2.207031 -7.847656 C 2.140625 -6.164062 2.140625 -3.242188 2.140625 -3.242188 C 2.140625 -1.039062 2.917969 0.582031 5.449219 0.582031 Z M 5.449219 0.582031 "/></g></g></g><g fill="#000000" fill-opacity="1"><g transform="translate(815.347981, 365.674133)"><g><path d="M 26.855469 -14.140625 L 26.855469 -21.796875 L 26.984375 -34.445312 C 26.984375 -36.976562 27.246094 -40.152344 27.246094 -42.75 C 27.246094 -44.433594 26.921875 -45.863281 23.484375 -45.863281 C 20.304688 -45.863281 20.175781 -44.046875 20.175781 -41.96875 C 20.175781 -39.570312 20.433594 -36.714844 20.433594 -34.445312 C 20.5 -28.996094 20.691406 -22.964844 20.691406 -18.035156 C 20.691406 -17.386719 20.367188 -17.058594 20.042969 -17.058594 C 19.71875 -17.058594 19.394531 -17.320312 19.199219 -17.839844 C 16.023438 -26.984375 11.09375 -42.101562 10.378906 -43.785156 C 9.40625 -46.121094 7.847656 -45.863281 5.253906 -45.863281 L 5.058594 -45.863281 C 2.074219 -45.796875 1.945312 -43.980469 1.945312 -41.96875 C 1.945312 -39.570312 2.207031 -36.714844 2.207031 -34.445312 C 2.269531 -28.671875 2.335938 -23.742188 2.335938 -18.617188 C 2.335938 -15.246094 2.269531 -11.742188 2.207031 -7.847656 C 2.140625 -6.164062 2.140625 -3.242188 2.140625 -3.242188 C 2.140625 -1.039062 2.917969 0.582031 5.449219 0.582031 C 8.628906 0.582031 8.820312 -1.039062 8.820312 -3.242188 C 8.820312 -3.242188 8.820312 -6.164062 8.757812 -7.847656 C 8.691406 -10.054688 8.691406 -12.128906 8.628906 -14.140625 L 8.628906 -24.519531 C 8.691406 -25.167969 9.082031 -25.492188 9.535156 -25.492188 C 9.925781 -25.492188 10.3125 -25.234375 10.507812 -24.714844 L 17.386719 -3.503906 C 18.359375 -0.582031 20.042969 0.582031 23.675781 0.582031 C 26.855469 0.582031 27.050781 -1.039062 27.050781 -3.242188 C 27.050781 -3.242188 27.050781 -6.164062 26.984375 -7.847656 C 26.921875 -10.054688 26.921875 -12.128906 26.855469 -14.140625 Z M 26.855469 -14.140625 "/></g></g></g><g fill="#000000" fill-opacity="1"><g transform="translate(844.537659, 365.674133)"><g><path d="M 13.101562 0.453125 C 20.433594 0.453125 23.742188 -6.292969 23.742188 -17.902344 C 23.742188 -21.925781 21.472656 -22.574219 16.867188 -22.574219 C 13.492188 -22.574219 11.546875 -22.445312 11.546875 -19.265625 C 11.546875 -17.386719 12.261719 -16.28125 14.917969 -16.28125 C 16.734375 -16.28125 17.449219 -15.894531 17.449219 -13.945312 C 17.449219 -8.886719 15.699219 -5.449219 13.101562 -5.449219 C 10.183594 -5.449219 8.238281 -12.84375 8.238281 -23.808594 C 8.238281 -33.667969 10.574219 -40.347656 14.078125 -40.347656 C 16.28125 -40.347656 17.773438 -36.003906 17.773438 -29.582031 C 18.035156 -28.152344 18.746094 -27.050781 20.953125 -27.050781 C 23.15625 -27.050781 24.261719 -28.089844 24.261719 -30.035156 C 24.261719 -39.765625 20.109375 -46.25 13.945312 -46.25 C 6.746094 -46.25 1.945312 -37.039062 1.945312 -23.222656 C 1.945312 -8.367188 6.097656 0.453125 13.101562 0.453125 Z M 13.101562 0.453125 "/></g></g></g><g fill="#000000" fill-opacity="1"><g transform="translate(392.993718, 211.161338)"><g><path d="M 55.078125 -38.15625 C 55.484375 -45.84375 55.523438 -53.425781 55.203125 -60.90625 C 54.878906 -68.382812 54.878906 -75.960938 55.203125 -83.640625 C 53.921875 -83.640625 52.378906 -83.617188 50.578125 -83.578125 C 48.773438 -83.535156 47.015625 -83.472656 45.296875 -83.390625 C 43.578125 -83.316406 41.976562 -83.238281 40.5 -83.15625 C 39.019531 -83.082031 38 -83.082031 37.4375 -83.15625 C 36.71875 -82.195312 35.976562 -80.675781 35.21875 -78.59375 C 34.457031 -76.519531 33.773438 -74.421875 33.171875 -72.296875 C 32.578125 -70.179688 32.019531 -68.320312 31.5 -66.71875 C 30.976562 -65.113281 30.597656 -64.351562 30.359375 -64.4375 C 30.117188 -64.4375 29.878906 -64.554688 29.640625 -64.796875 C 29.003906 -65.753906 28.382812 -67.070312 27.78125 -68.75 C 27.175781 -70.4375 26.550781 -72.195312 25.90625 -74.03125 C 25.269531 -75.875 24.59375 -77.613281 23.875 -79.25 C 23.15625 -80.894531 22.4375 -82.117188 21.71875 -82.921875 L 21.59375 -82.921875 C 20.238281 -82.835938 18.835938 -82.816406 17.390625 -82.859375 C 15.953125 -82.898438 14.515625 -82.941406 13.078125 -82.984375 C 11.640625 -83.023438 10.238281 -83.003906 8.875 -82.921875 C 7.519531 -82.835938 6.320312 -82.632812 5.28125 -82.3125 C 5.195312 -71.4375 5.132812 -61.914062 5.09375 -53.75 C 5.0625 -45.59375 5.023438 -38.554688 4.984375 -32.640625 C 4.941406 -26.722656 4.921875 -21.765625 4.921875 -17.765625 C 4.921875 -13.765625 4.941406 -10.539062 4.984375 -8.09375 C 5.023438 -5.65625 5.082031 -3.835938 5.15625 -2.640625 C 5.238281 -1.441406 5.320312 -0.679688 5.40625 -0.359375 C 5.476562 -0.117188 5.597656 0 5.765625 0 C 8.316406 0 11.113281 0.0351562 14.15625 0.109375 C 17.195312 0.191406 20 0.0351562 22.5625 -0.359375 C 22.082031 -7.796875 21.738281 -15.351562 21.53125 -23.03125 C 21.332031 -30.71875 21.554688 -38.320312 22.203125 -45.84375 C 22.203125 -45.84375 22.34375 -45.441406 22.625 -44.640625 C 22.90625 -43.835938 23.242188 -42.835938 23.640625 -41.640625 C 24.035156 -40.441406 24.515625 -39.117188 25.078125 -37.671875 C 25.640625 -36.234375 26.179688 -34.875 26.703125 -33.59375 C 27.222656 -32.320312 27.742188 -31.265625 28.265625 -30.421875 C 28.785156 -29.578125 29.242188 -29.15625 29.640625 -29.15625 C 29.960938 -29.15625 30.441406 -29.914062 31.078125 -31.4375 C 31.722656 -32.957031 32.40625 -34.71875 33.125 -36.71875 C 33.84375 -38.71875 34.5625 -40.65625 35.28125 -42.53125 C 36 -44.414062 36.640625 -45.800781 37.203125 -46.6875 C 37.597656 -43.320312 37.894531 -39.640625 38.09375 -35.640625 C 38.300781 -31.640625 38.421875 -27.554688 38.453125 -23.390625 C 38.492188 -19.234375 38.535156 -15.15625 38.578125 -11.15625 C 38.617188 -7.15625 38.71875 -3.4375 38.875 0 C 39.832031 0 40.972656 -0.0195312 42.296875 -0.0625 C 43.617188 -0.101562 45 -0.125 46.4375 -0.125 C 47.875 -0.125 49.3125 -0.125 50.75 -0.125 C 52.195312 -0.125 53.519531 -0.0390625 54.71875 0.125 Z M 55.078125 -38.15625 "/></g></g></g><g fill="#000000" fill-opacity="1"><g transform="translate(453.113751, 211.161338)"><g><path d="M 43.4375 -42.125 C 43.113281 -43.476562 42.671875 -45.316406 42.109375 -47.640625 C 41.554688 -49.960938 40.957031 -52.519531 40.3125 -55.3125 C 39.675781 -58.113281 39.015625 -61.035156 38.328125 -64.078125 C 37.648438 -67.117188 37.007812 -69.976562 36.40625 -72.65625 C 35.8125 -75.34375 35.253906 -77.742188 34.734375 -79.859375 C 34.210938 -81.984375 33.832031 -83.5625 33.59375 -84.59375 C 30.957031 -84.351562 28.816406 -84.210938 27.171875 -84.171875 C 25.535156 -84.140625 24.195312 -84.125 23.15625 -84.125 C 22.113281 -84.125 21.273438 -84.125 20.640625 -84.125 C 20.003906 -84.125 19.40625 -84.082031 18.84375 -84 C 16.914062 -77.601562 15.148438 -71.160156 13.546875 -64.671875 C 11.953125 -58.191406 10.472656 -51.953125 9.109375 -45.953125 C 7.753906 -39.953125 6.578125 -34.289062 5.578125 -28.96875 C 4.578125 -23.65625 3.71875 -18.957031 3 -14.875 C 2.28125 -10.800781 1.71875 -7.484375 1.3125 -4.921875 C 0.914062 -2.359375 0.640625 -0.796875 0.484375 -0.234375 C 0.554688 -0.160156 0.632812 -0.125 0.71875 -0.125 C 6.15625 -0.195312 10.15625 -0.15625 12.71875 0 C 15.28125 0.15625 16.878906 0.15625 17.515625 0 C 17.597656 0 17.660156 -0.0195312 17.703125 -0.0625 C 17.742188 -0.101562 17.800781 -0.125 17.875 -0.125 C 18.59375 -1.476562 19.148438 -3.035156 19.546875 -4.796875 C 19.953125 -6.554688 20.332031 -8.375 20.6875 -10.25 C 21.050781 -12.132812 21.410156 -13.9375 21.765625 -15.65625 C 22.128906 -17.375 22.59375 -18.875 23.15625 -20.15625 C 24.039062 -20.15625 24.742188 -20.175781 25.265625 -20.21875 C 25.785156 -20.257812 26.265625 -20.28125 26.703125 -20.28125 C 27.140625 -20.28125 27.640625 -20.28125 28.203125 -20.28125 C 28.765625 -20.28125 29.5625 -20.203125 30.59375 -20.046875 C 31.15625 -18.835938 31.675781 -17.394531 32.15625 -15.71875 C 32.632812 -14.039062 33.09375 -12.28125 33.53125 -10.4375 C 33.976562 -8.601562 34.421875 -6.804688 34.859375 -5.046875 C 35.296875 -3.285156 35.753906 -1.765625 36.234375 -0.484375 L 36.359375 -0.484375 C 38.921875 0.078125 41.640625 0.414062 44.515625 0.53125 C 47.398438 0.65625 50.039062 0.476562 52.4375 0 L 52.4375 -0.125 Z M 31.203125 -34.3125 C 29.679688 -34.3125 28.160156 -34.289062 26.640625 -34.25 C 25.117188 -34.21875 23.675781 -34.238281 22.3125 -34.3125 C 22.875 -38.394531 23.375 -42.195312 23.8125 -45.71875 C 24.257812 -49.238281 24.660156 -52.15625 25.015625 -54.46875 C 25.378906 -56.789062 25.78125 -58.332031 26.21875 -59.09375 C 26.65625 -59.851562 27.09375 -59.550781 27.53125 -58.1875 C 27.976562 -56.832031 28.5 -54.234375 29.09375 -50.390625 C 29.695312 -46.554688 30.398438 -41.195312 31.203125 -34.3125 Z M 31.203125 -34.3125 "/></g></g></g><g fill="#000000" fill-opacity="1"><g transform="translate(505.193774, 211.161338)"><g><path d="M 61.921875 -0.359375 C 60.722656 -3.640625 59.242188 -6.816406 57.484375 -9.890625 C 55.722656 -12.972656 53.878906 -15.992188 51.953125 -18.953125 C 50.035156 -21.921875 48.078125 -24.863281 46.078125 -27.78125 C 44.078125 -30.695312 42.238281 -33.632812 40.5625 -36.59375 L 40.5625 -36.71875 L 41.15625 -36.71875 C 45 -36.957031 48.179688 -38.035156 50.703125 -39.953125 C 53.222656 -41.878906 55.242188 -44.28125 56.765625 -47.15625 C 59.242188 -51.320312 60.421875 -55.625 60.296875 -60.0625 C 60.179688 -64.5 59.082031 -68.554688 57 -72.234375 C 54.914062 -75.921875 51.992188 -79.003906 48.234375 -81.484375 C 44.472656 -83.960938 40.234375 -85.320312 35.515625 -85.5625 C 29.679688 -86.195312 24.082031 -86.234375 18.71875 -85.671875 C 13.363281 -85.117188 8.441406 -84.519531 3.953125 -83.875 C 4.117188 -82.832031 4.257812 -80.851562 4.375 -77.9375 C 4.5 -75.019531 4.597656 -71.5 4.671875 -67.375 C 4.753906 -63.257812 4.851562 -58.738281 4.96875 -53.8125 C 5.09375 -48.894531 5.175781 -43.9375 5.21875 -38.9375 C 5.257812 -33.9375 5.28125 -29.097656 5.28125 -24.421875 C 5.28125 -19.742188 5.28125 -15.601562 5.28125 -12 C 5.28125 -8.394531 5.238281 -5.492188 5.15625 -3.296875 C 5.082031 -1.097656 4.960938 0 4.796875 0 C 5.203125 -0.0820312 6.265625 -0.0820312 7.984375 0 C 9.703125 0.0820312 11.640625 0.101562 13.796875 0.0625 C 15.960938 0.0195312 18.144531 -0.078125 20.34375 -0.234375 C 22.539062 -0.398438 24.320312 -0.757812 25.6875 -1.3125 C 25.601562 -2.832031 25.476562 -4.875 25.3125 -7.4375 C 25.15625 -10 25.015625 -12.695312 24.890625 -15.53125 C 24.773438 -18.375 24.71875 -21.132812 24.71875 -23.8125 C 24.71875 -26.5 24.835938 -28.757812 25.078125 -30.59375 L 25.3125 -30.234375 C 27 -28.160156 28.679688 -25.757812 30.359375 -23.03125 C 32.035156 -20.3125 33.59375 -17.550781 35.03125 -14.75 C 36.476562 -11.957031 37.800781 -9.28125 39 -6.71875 C 40.195312 -4.15625 41.195312 -1.957031 42 -0.125 L 42.125 -0.125 C 45.71875 0.113281 49.234375 0.132812 52.671875 -0.0625 C 56.117188 -0.257812 59.242188 -0.359375 62.046875 -0.359375 Z M 21.484375 -67.078125 C 24.285156 -68.203125 27.046875 -68.820312 29.765625 -68.9375 C 32.484375 -69.0625 34.722656 -68.320312 36.484375 -66.71875 C 37.597656 -65.84375 38.394531 -64.660156 38.875 -63.171875 C 39.351562 -61.691406 39.515625 -60.210938 39.359375 -58.734375 C 39.203125 -57.253906 38.703125 -55.894531 37.859375 -54.65625 C 37.015625 -53.414062 35.832031 -52.632812 34.3125 -52.3125 C 32.394531 -52 30.351562 -51.878906 28.1875 -51.953125 C 26.03125 -52.035156 24.035156 -52.15625 22.203125 -52.3125 L 22.078125 -52.3125 C 21.921875 -53.195312 21.820312 -54.28125 21.78125 -55.5625 C 21.738281 -56.84375 21.71875 -58.160156 21.71875 -59.515625 C 21.71875 -60.878906 21.695312 -62.21875 21.65625 -63.53125 C 21.613281 -64.851562 21.554688 -66.035156 21.484375 -67.078125 Z M 21.484375 -67.078125 "/></g></g></g><g fill="#000000" fill-opacity="1"><g transform="translate(567.353809, 211.161338)"><g><path d="M 23.15625 -65.046875 C 23.800781 -65.679688 24.703125 -66.117188 25.859375 -66.359375 C 27.015625 -66.597656 28.113281 -66.796875 29.15625 -66.953125 C 31.476562 -67.035156 33.175781 -66.554688 34.25 -65.515625 C 35.332031 -64.472656 36.070312 -63.132812 36.46875 -61.5 C 36.875 -59.863281 37.097656 -58.082031 37.140625 -56.15625 C 37.179688 -54.238281 37.320312 -52.519531 37.5625 -51 C 40.601562 -50.4375 43.539062 -50.054688 46.375 -49.859375 C 49.21875 -49.660156 52.117188 -49.878906 55.078125 -50.515625 C 56.359375 -54.203125 56.835938 -57.800781 56.515625 -61.3125 C 56.203125 -64.832031 55.285156 -68.09375 53.765625 -71.09375 C 52.242188 -74.09375 50.203125 -76.753906 47.640625 -79.078125 C 45.078125 -81.398438 42.210938 -83.257812 39.046875 -84.65625 C 35.890625 -86.0625 32.507812 -86.882812 28.90625 -87.125 C 25.3125 -87.363281 21.675781 -86.882812 18 -85.6875 C 16.875 -85.363281 15.789062 -84.976562 14.75 -84.53125 C 13.71875 -84.09375 12.757812 -83.554688 11.875 -82.921875 C 10.351562 -81.554688 9.050781 -79.992188 7.96875 -78.234375 C 6.894531 -76.472656 6 -74.554688 5.28125 -72.484375 C 4.800781 -71.285156 4.421875 -69.984375 4.140625 -68.578125 C 3.859375 -67.179688 3.796875 -65.800781 3.953125 -64.4375 C 3.878906 -57.957031 3.820312 -52.253906 3.78125 -47.328125 C 3.738281 -42.410156 3.738281 -38.007812 3.78125 -34.125 C 3.820312 -30.25 3.878906 -26.75 3.953125 -23.625 C 4.035156 -20.507812 4.15625 -17.515625 4.3125 -14.640625 C 4.632812 -11.273438 5.695312 -8.472656 7.5 -6.234375 C 9.300781 -3.992188 11.519531 -2.253906 14.15625 -1.015625 C 16.800781 0.222656 19.640625 1.019531 22.671875 1.375 C 25.710938 1.738281 28.675781 1.71875 31.5625 1.3125 C 35.957031 1.238281 39.894531 0.144531 43.375 -1.96875 C 46.851562 -4.09375 49.671875 -6.796875 51.828125 -10.078125 C 53.992188 -13.359375 55.394531 -17.054688 56.03125 -21.171875 C 56.675781 -25.296875 56.316406 -29.4375 54.953125 -33.59375 C 53.835938 -33.914062 52.578125 -34.113281 51.171875 -34.1875 C 49.773438 -34.269531 48.359375 -34.3125 46.921875 -34.3125 C 45.484375 -34.3125 44.0625 -34.269531 42.65625 -34.1875 C 41.257812 -34.113281 40 -34.15625 38.875 -34.3125 C 38.476562 -32.3125 38.335938 -30.289062 38.453125 -28.25 C 38.578125 -26.21875 38.195312 -24.28125 37.3125 -22.4375 C 36.519531 -20.84375 35.34375 -19.703125 33.78125 -19.015625 C 32.21875 -18.335938 30.554688 -18.078125 28.796875 -18.234375 C 26.472656 -18.878906 24.8125 -20.300781 23.8125 -22.5 C 22.8125 -24.695312 22.191406 -26.957031 21.953125 -29.28125 C 21.710938 -32.082031 21.59375 -35.378906 21.59375 -39.171875 C 21.59375 -42.972656 21.632812 -46.632812 21.71875 -50.15625 C 21.800781 -53.675781 21.898438 -56.71875 22.015625 -59.28125 C 22.140625 -61.84375 22.28125 -63.242188 22.4375 -63.484375 C 22.519531 -63.640625 22.617188 -63.894531 22.734375 -64.25 C 22.859375 -64.613281 23 -64.878906 23.15625 -65.046875 Z M 23.15625 -65.046875 "/></g></g></g><g fill="#000000" fill-opacity="1"><g transform="translate(625.913842, 211.161338)"><g><path d="M 53.046875 -84.71875 C 51.835938 -84.800781 50.492188 -84.859375 49.015625 -84.890625 C 47.535156 -84.929688 46.035156 -84.890625 44.515625 -84.765625 C 42.992188 -84.648438 41.535156 -84.472656 40.140625 -84.234375 C 38.742188 -83.992188 37.5625 -83.71875 36.59375 -83.40625 C 36.832031 -77.644531 36.929688 -72.363281 36.890625 -67.5625 C 36.859375 -62.757812 36.601562 -57.597656 36.125 -52.078125 L 36 -52.078125 C 34 -51.921875 31.835938 -51.738281 29.515625 -51.53125 C 27.203125 -51.332031 25.046875 -51.472656 23.046875 -51.953125 L 22.921875 -51.953125 C 21.960938 -57.078125 21.484375 -62.238281 21.484375 -67.4375 C 21.484375 -72.632812 21.125 -77.992188 20.40625 -83.515625 C 19.28125 -83.835938 18.078125 -84 16.796875 -84 C 15.515625 -84 14.210938 -83.957031 12.890625 -83.875 C 11.578125 -83.800781 10.257812 -83.722656 8.9375 -83.640625 C 7.613281 -83.554688 6.351562 -83.632812 5.15625 -83.875 L 4.796875 -83.875 L 4.796875 -83.765625 C 4.722656 -79.679688 4.664062 -75.097656 4.625 -70.015625 C 4.582031 -64.941406 4.597656 -59.660156 4.671875 -54.171875 C 4.753906 -48.691406 4.851562 -43.234375 4.96875 -37.796875 C 5.09375 -32.359375 5.234375 -27.21875 5.390625 -22.375 C 5.554688 -17.539062 5.738281 -13.179688 5.9375 -9.296875 C 6.132812 -5.421875 6.316406 -2.363281 6.484375 -0.125 C 7.203125 -0.519531 8.257812 -0.675781 9.65625 -0.59375 C 11.0625 -0.519531 12.5625 -0.398438 14.15625 -0.234375 C 15.757812 -0.078125 17.359375 0 18.953125 0 C 20.554688 0 21.835938 -0.28125 22.796875 -0.84375 C 23.203125 -3.40625 23.421875 -5.984375 23.453125 -8.578125 C 23.492188 -11.179688 23.472656 -13.84375 23.390625 -16.5625 C 23.316406 -19.28125 23.257812 -22 23.21875 -24.71875 C 23.175781 -27.4375 23.273438 -30.195312 23.515625 -33 C 25.835938 -33.5625 28.15625 -33.84375 30.46875 -33.84375 C 32.789062 -33.84375 35.113281 -33.640625 37.4375 -33.234375 L 37.5625 -33.125 C 37.882812 -30.5625 38.082031 -27.878906 38.15625 -25.078125 C 38.238281 -22.273438 38.300781 -19.472656 38.34375 -16.671875 C 38.382812 -13.878906 38.460938 -11.0625 38.578125 -8.21875 C 38.703125 -5.375 38.960938 -2.632812 39.359375 0 L 39.484375 0 C 40.441406 -0.0820312 41.617188 -0.125 43.015625 -0.125 C 44.421875 -0.125 45.863281 -0.125 47.34375 -0.125 C 48.820312 -0.125 50.335938 -0.160156 51.890625 -0.234375 C 53.453125 -0.316406 54.914062 -0.476562 56.28125 -0.71875 Z M 53.046875 -84.71875 "/></g></g></g><g fill="#000000" fill-opacity="1"><g transform="translate(685.793859, 211.161338)"><g/></g><g transform="translate(709.793858, 211.161338)"><g><path d="M 43.4375 -42.125 C 43.113281 -43.476562 42.671875 -45.316406 42.109375 -47.640625 C 41.554688 -49.960938 40.957031 -52.519531 40.3125 -55.3125 C 39.675781 -58.113281 39.015625 -61.035156 38.328125 -64.078125 C 37.648438 -67.117188 37.007812 -69.976562 36.40625 -72.65625 C 35.8125 -75.34375 35.253906 -77.742188 34.734375 -79.859375 C 34.210938 -81.984375 33.832031 -83.5625 33.59375 -84.59375 C 30.957031 -84.351562 28.816406 -84.210938 27.171875 -84.171875 C 25.535156 -84.140625 24.195312 -84.125 23.15625 -84.125 C 22.113281 -84.125 21.273438 -84.125 20.640625 -84.125 C 20.003906 -84.125 19.40625 -84.082031 18.84375 -84 C 16.914062 -77.601562 15.148438 -71.160156 13.546875 -64.671875 C 11.953125 -58.191406 10.472656 -51.953125 9.109375 -45.953125 C 7.753906 -39.953125 6.578125 -34.289062 5.578125 -28.96875 C 4.578125 -23.65625 3.71875 -18.957031 3 -14.875 C 2.28125 -10.800781 1.71875 -7.484375 1.3125 -4.921875 C 0.914062 -2.359375 0.640625 -0.796875 0.484375 -0.234375 C 0.554688 -0.160156 0.632812 -0.125 0.71875 -0.125 C 6.15625 -0.195312 10.15625 -0.15625 12.71875 0 C 15.28125 0.15625 16.878906 0.15625 17.515625 0 C 17.597656 0 17.660156 -0.0195312 17.703125 -0.0625 C 17.742188 -0.101562 17.800781 -0.125 17.875 -0.125 C 18.59375 -1.476562 19.148438 -3.035156 19.546875 -4.796875 C 19.953125 -6.554688 20.332031 -8.375 20.6875 -10.25 C 21.050781 -12.132812 21.410156 -13.9375 21.765625 -15.65625 C 22.128906 -17.375 22.59375 -18.875 23.15625 -20.15625 C 24.039062 -20.15625 24.742188 -20.175781 25.265625 -20.21875 C 25.785156 -20.257812 26.265625 -20.28125 26.703125 -20.28125 C 27.140625 -20.28125 27.640625 -20.28125 28.203125 -20.28125 C 28.765625 -20.28125 29.5625 -20.203125 30.59375 -20.046875 C 31.15625 -18.835938 31.675781 -17.394531 32.15625 -15.71875 C 32.632812 -14.039062 33.09375 -12.28125 33.53125 -10.4375 C 33.976562 -8.601562 34.421875 -6.804688 34.859375 -5.046875 C 35.296875 -3.285156 35.753906 -1.765625 36.234375 -0.484375 L 36.359375 -0.484375 C 38.921875 0.078125 41.640625 0.414062 44.515625 0.53125 C 47.398438 0.65625 50.039062 0.476562 52.4375 0 L 52.4375 -0.125 Z M 31.203125 -34.3125 C 29.679688 -34.3125 28.160156 -34.289062 26.640625 -34.25 C 25.117188 -34.21875 23.675781 -34.238281 22.3125 -34.3125 C 22.875 -38.394531 23.375 -42.195312 23.8125 -45.71875 C 24.257812 -49.238281 24.660156 -52.15625 25.015625 -54.46875 C 25.378906 -56.789062 25.78125 -58.332031 26.21875 -59.09375 C 26.65625 -59.851562 27.09375 -59.550781 27.53125 -58.1875 C 27.976562 -56.832031 28.5 -54.234375 29.09375 -50.390625 C 29.695312 -46.554688 30.398438 -41.195312 31.203125 -34.3125 Z M 31.203125 -34.3125 "/></g></g></g><g fill="#000000" fill-opacity="1"><g transform="translate(761.87388, 211.161338)"><g><path d="M 29.15625 -41.765625 C 29 -41.679688 28.921875 -41.640625 28.921875 -41.640625 C 28.835938 -41.640625 28.796875 -41.597656 28.796875 -41.515625 L 28.796875 -41.40625 C 28.960938 -39.957031 29.046875 -38.753906 29.046875 -37.796875 C 29.046875 -36.835938 29.023438 -35.894531 28.984375 -34.96875 C 28.941406 -34.050781 28.941406 -33.113281 28.984375 -32.15625 C 29.023438 -31.195312 29.125 -30.078125 29.28125 -28.796875 C 29.675781 -28.640625 30.253906 -28.539062 31.015625 -28.5 C 31.773438 -28.457031 32.613281 -28.457031 33.53125 -28.5 C 34.457031 -28.539062 35.335938 -28.582031 36.171875 -28.625 C 37.015625 -28.664062 37.675781 -28.644531 38.15625 -28.5625 C 38.394531 -28.476562 38.535156 -28.113281 38.578125 -27.46875 C 38.617188 -26.832031 38.617188 -26.113281 38.578125 -25.3125 C 38.535156 -24.519531 38.453125 -23.742188 38.328125 -22.984375 C 38.210938 -22.222656 38.117188 -21.679688 38.046875 -21.359375 C 37.722656 -20.242188 37.238281 -19.34375 36.59375 -18.65625 C 35.957031 -17.976562 35.195312 -17.441406 34.3125 -17.046875 C 33.195312 -16.640625 31.976562 -16.316406 30.65625 -16.078125 C 29.34375 -15.835938 28.082031 -15.796875 26.875 -15.953125 C 25.757812 -16.191406 24.84375 -16.554688 24.125 -17.046875 C 22.601562 -18.242188 21.601562 -19.878906 21.125 -21.953125 C 20.644531 -24.035156 20.320312 -25.957031 20.15625 -27.71875 C 19.914062 -30.675781 19.753906 -33.796875 19.671875 -37.078125 C 19.597656 -40.359375 19.640625 -43.535156 19.796875 -46.609375 C 19.960938 -49.691406 20.222656 -52.59375 20.578125 -55.3125 C 20.941406 -58.039062 21.398438 -60.363281 21.953125 -62.28125 C 22.117188 -62.914062 22.34375 -63.570312 22.625 -64.25 C 22.90625 -64.9375 23.125 -65.359375 23.28125 -65.515625 C 24.238281 -66.472656 25.359375 -66.953125 26.640625 -66.953125 C 27.921875 -66.953125 29.238281 -66.914062 30.59375 -66.84375 C 31.800781 -66.84375 32.84375 -66.460938 33.71875 -65.703125 C 34.601562 -64.941406 35.382812 -64.0625 36.0625 -63.0625 C 36.738281 -62.0625 37.296875 -60.976562 37.734375 -59.8125 C 38.179688 -58.65625 38.523438 -57.675781 38.765625 -56.875 C 39.960938 -56.71875 41 -56.597656 41.875 -56.515625 C 42.757812 -56.441406 43.617188 -56.40625 44.453125 -56.40625 C 45.296875 -56.40625 46.132812 -56.421875 46.96875 -56.453125 C 47.8125 -56.492188 48.835938 -56.515625 50.046875 -56.515625 C 51.316406 -56.597656 52.234375 -56.640625 52.796875 -56.640625 C 53.359375 -56.640625 53.71875 -56.757812 53.875 -57 L 54 -57.71875 C 54.5625 -62.601562 54.117188 -66.820312 52.671875 -70.375 C 51.234375 -73.9375 49.070312 -76.796875 46.1875 -78.953125 C 43.3125 -81.117188 39.875 -82.617188 35.875 -83.453125 C 31.875 -84.296875 27.675781 -84.4375 23.28125 -83.875 C 21.125 -83.5625 19.046875 -83.082031 17.046875 -82.4375 C 15.046875 -81.800781 13.242188 -80.800781 11.640625 -79.4375 C 9.316406 -77.84375 7.65625 -75.800781 6.65625 -73.3125 C 5.65625 -70.832031 4.957031 -68.273438 4.5625 -65.640625 C 4.15625 -63.078125 3.875 -60.457031 3.71875 -57.78125 C 3.5625 -55.101562 3.441406 -52.484375 3.359375 -49.921875 C 3.273438 -46.960938 3.253906 -44.34375 3.296875 -42.0625 C 3.335938 -39.78125 3.414062 -37.617188 3.53125 -35.578125 C 3.65625 -33.535156 3.796875 -31.472656 3.953125 -29.390625 C 4.117188 -27.316406 4.320312 -25 4.5625 -22.4375 C 4.71875 -20.84375 4.9375 -19.265625 5.21875 -17.703125 C 5.5 -16.140625 5.757812 -14.921875 6 -14.046875 C 6.957031 -10.597656 8.273438 -7.710938 9.953125 -5.390625 C 11.640625 -3.078125 14.082031 -1.238281 17.28125 0.125 C 19.195312 0.914062 21.210938 1.429688 23.328125 1.671875 C 25.453125 1.921875 27.632812 1.941406 29.875 1.734375 C 32.113281 1.535156 34.3125 1.21875 36.46875 0.78125 C 38.632812 0.34375 40.71875 -0.15625 42.71875 -0.71875 C 45.757812 -1.84375 48.316406 -3.484375 50.390625 -5.640625 C 52.472656 -7.796875 53.71875 -10.914062 54.125 -15 C 54.914062 -19.320312 55.234375 -23.863281 55.078125 -28.625 C 54.921875 -33.382812 54.601562 -37.882812 54.125 -42.125 L 54 -42.234375 L 53.765625 -42.234375 C 52.960938 -42.234375 51.421875 -42.332031 49.140625 -42.53125 C 46.859375 -42.738281 44.394531 -42.878906 41.75 -42.953125 C 39.113281 -43.035156 36.613281 -43.015625 34.25 -42.890625 C 31.894531 -42.773438 30.195312 -42.398438 29.15625 -41.765625 Z M 29.15625 -41.765625 "/></g></g></g><g fill="#000000" fill-opacity="1"><g transform="translate(819.593916, 211.161338)"><g><path d="M 55.5625 -16.3125 C 50.125 -16.15625 44.84375 -16.21875 39.71875 -16.5 C 34.601562 -16.78125 29.40625 -16.921875 24.125 -16.921875 L 24 -17.046875 C 23.84375 -18.960938 23.703125 -21.359375 23.578125 -24.234375 C 23.460938 -27.117188 23.601562 -29.722656 24 -32.046875 C 24.394531 -32.359375 25.148438 -32.554688 26.265625 -32.640625 C 27.390625 -32.722656 28.648438 -32.765625 30.046875 -32.765625 C 31.453125 -32.765625 32.914062 -32.78125 34.4375 -32.8125 C 35.957031 -32.851562 37.316406 -33.035156 38.515625 -33.359375 C 38.441406 -36.316406 38.484375 -39.15625 38.640625 -41.875 C 38.796875 -44.59375 38.675781 -47.316406 38.28125 -50.046875 L 38.28125 -50.15625 C 35.800781 -50.238281 33.320312 -50.28125 30.84375 -50.28125 C 28.363281 -50.28125 25.921875 -50.359375 23.515625 -50.515625 L 23.40625 -50.640625 C 22.84375 -52.796875 22.703125 -55.09375 22.984375 -57.53125 C 23.265625 -59.976562 23.363281 -62.363281 23.28125 -64.6875 L 23.40625 -64.796875 L 23.765625 -64.796875 C 26.398438 -65.035156 29.035156 -65.15625 31.671875 -65.15625 C 34.316406 -65.15625 36.957031 -65.132812 39.59375 -65.09375 C 42.238281 -65.0625 44.859375 -65.101562 47.453125 -65.21875 C 50.054688 -65.34375 52.640625 -65.679688 55.203125 -66.234375 L 55.203125 -66.359375 C 55.203125 -69.160156 55.300781 -72 55.5 -74.875 C 55.695312 -77.757812 55.597656 -80.601562 55.203125 -83.40625 C 55.203125 -83.476562 54.398438 -83.554688 52.796875 -83.640625 C 51.203125 -83.722656 49.082031 -83.765625 46.4375 -83.765625 C 43.800781 -83.765625 40.757812 -83.722656 37.3125 -83.640625 C 33.875 -83.554688 30.316406 -83.472656 26.640625 -83.390625 C 22.960938 -83.316406 19.300781 -83.21875 15.65625 -83.09375 C 12.019531 -82.976562 8.640625 -82.84375 5.515625 -82.6875 C 5.117188 -75.800781 4.878906 -68.957031 4.796875 -62.15625 C 4.722656 -55.351562 4.722656 -48.550781 4.796875 -41.75 C 4.878906 -34.957031 5 -28.140625 5.15625 -21.296875 C 5.320312 -14.460938 5.40625 -7.5625 5.40625 -0.59375 C 13.164062 0.0390625 21.265625 0.21875 29.703125 -0.0625 C 38.140625 -0.34375 46.4375 -0.441406 54.59375 -0.359375 C 55.238281 -2.753906 55.597656 -5.332031 55.671875 -8.09375 C 55.753906 -10.851562 55.71875 -13.515625 55.5625 -16.078125 Z M 55.5625 -16.3125 "/></g></g></g><g fill="#000000" fill-opacity="1"><g transform="translate(877.31393, 211.161338)"><g><path d="M 50.875 0.59375 C 52.238281 0.59375 53.195312 0.515625 53.75 0.359375 C 54.3125 0.203125 54.675781 0.0820312 54.84375 0 L 54.84375 -2.40625 C 54.84375 -4 54.820312 -5.59375 54.78125 -7.1875 C 54.738281 -8.789062 54.71875 -10.394531 54.71875 -12 C 54.71875 -14.238281 54.738281 -16.4375 54.78125 -18.59375 C 54.820312 -20.757812 54.84375 -23 54.84375 -25.3125 C 54.84375 -28.757812 54.84375 -32.203125 54.84375 -35.640625 C 54.84375 -39.078125 54.800781 -42.476562 54.71875 -45.84375 L 54.71875 -84.484375 C 52.394531 -84.960938 49.753906 -85.203125 46.796875 -85.203125 C 43.753906 -85.203125 40.875 -84.960938 38.15625 -84.484375 C 38.082031 -82.484375 38.023438 -80.617188 37.984375 -78.890625 C 37.941406 -77.171875 37.921875 -75.472656 37.921875 -73.796875 C 37.921875 -70.921875 37.976562 -68.101562 38.09375 -65.34375 C 38.21875 -62.582031 38.28125 -59.601562 38.28125 -56.40625 C 38.28125 -55.039062 38.195312 -53.640625 38.03125 -52.203125 C 37.875 -50.765625 37.675781 -49.960938 37.4375 -49.796875 C 37.351562 -49.796875 37.070312 -50.253906 36.59375 -51.171875 C 36.113281 -52.097656 35.535156 -53.21875 34.859375 -54.53125 C 34.179688 -55.851562 33.441406 -57.332031 32.640625 -58.96875 C 31.835938 -60.613281 31.078125 -62.175781 30.359375 -63.65625 C 29.640625 -65.132812 29 -66.429688 28.4375 -67.546875 C 27.875 -68.671875 27.515625 -69.4375 27.359375 -69.84375 C 26.640625 -71.519531 26.019531 -72.894531 25.5 -73.96875 C 24.976562 -75.050781 24.5 -76.03125 24.0625 -76.90625 C 23.625 -77.789062 23.160156 -78.710938 22.671875 -79.671875 C 22.191406 -80.640625 21.675781 -81.84375 21.125 -83.28125 C 21.125 -83.4375 20.703125 -83.59375 19.859375 -83.75 C 19.015625 -83.914062 18.03125 -84.054688 16.90625 -84.171875 C 15.789062 -84.296875 14.671875 -84.378906 13.546875 -84.421875 C 12.429688 -84.460938 11.632812 -84.484375 11.15625 -84.484375 C 10.195312 -84.484375 9.253906 -84.441406 8.328125 -84.359375 C 7.410156 -84.273438 6.554688 -84.15625 5.765625 -84 C 5.359375 -78.875 5.078125 -73.613281 4.921875 -68.21875 C 4.765625 -62.820312 4.6875 -57.363281 4.6875 -51.84375 C 4.6875 -44.320312 4.742188 -37.117188 4.859375 -30.234375 C 4.984375 -23.359375 5.046875 -16.117188 5.046875 -8.515625 L 5.046875 -0.125 C 6.878906 -0.125 8.773438 -0.00390625 10.734375 0.234375 C 12.703125 0.472656 14.644531 0.59375 16.5625 0.59375 C 17.4375 0.59375 18.3125 0.550781 19.1875 0.46875 C 20.070312 0.394531 20.957031 0.238281 21.84375 0 C 21.757812 -1.363281 21.71875 -2.90625 21.71875 -4.625 C 21.71875 -6.34375 21.71875 -8.117188 21.71875 -9.953125 C 21.71875 -13.316406 21.738281 -16.796875 21.78125 -20.390625 C 21.820312 -23.992188 21.878906 -27.273438 21.953125 -30.234375 C 22.035156 -33.203125 22.132812 -35.644531 22.25 -37.5625 C 22.375 -39.476562 22.476562 -40.4375 22.5625 -40.4375 C 22.71875 -40.4375 22.9375 -40.054688 23.21875 -39.296875 C 23.5 -38.535156 23.800781 -37.71875 24.125 -36.84375 L 25.3125 -33.234375 C 27.15625 -28.117188 29.375 -22.78125 31.96875 -17.21875 C 34.570312 -11.65625 37.195312 -5.914062 39.84375 0 C 41.4375 0 43.273438 0.0976562 45.359375 0.296875 C 47.441406 0.492188 49.28125 0.59375 50.875 0.59375 Z M 50.875 0.59375 "/></g></g></g><g fill="#000000" fill-opacity="1"><g transform="translate(937.073967, 211.161338)"><g><path d="M 47.15625 -74.046875 C 45.71875 -76.359375 43.816406 -78.453125 41.453125 -80.328125 C 39.097656 -82.210938 36.640625 -83.476562 34.078125 -84.125 C 31.753906 -84.039062 29.375 -84.035156 26.9375 -84.109375 C 24.5 -84.191406 22.039062 -84.253906 19.5625 -84.296875 C 17.082031 -84.335938 14.617188 -84.257812 12.171875 -84.0625 C 9.734375 -83.863281 7.394531 -83.484375 5.15625 -82.921875 C 5.082031 -82.835938 5.023438 -82.753906 4.984375 -82.671875 C 4.941406 -82.597656 4.878906 -82.519531 4.796875 -82.4375 C 4.960938 -75.476562 4.984375 -68.457031 4.859375 -61.375 C 4.742188 -54.300781 4.6875 -47.28125 4.6875 -40.3125 C 4.6875 -33.351562 4.804688 -26.492188 5.046875 -19.734375 C 5.285156 -12.972656 5.84375 -6.4375 6.71875 -0.125 C 6.800781 -0.195312 6.84375 -0.234375 6.84375 -0.234375 C 11.882812 -0.234375 17.082031 -0.253906 22.4375 -0.296875 C 27.800781 -0.335938 33.125 -0.4375 38.40625 -0.59375 C 41.4375 -4.351562 44.332031 -8.351562 47.09375 -12.59375 C 49.851562 -16.832031 52.035156 -21.316406 53.640625 -26.046875 C 53.640625 -26.117188 53.660156 -26.15625 53.703125 -26.15625 C 53.742188 -26.15625 53.765625 -26.195312 53.765625 -26.28125 C 54.484375 -29.957031 54.898438 -33.695312 55.015625 -37.5 C 55.140625 -41.300781 55.28125 -45.082031 55.4375 -48.84375 C 55.351562 -50.125 55.25 -51.382812 55.125 -52.625 C 55.007812 -53.863281 54.753906 -55.125 54.359375 -56.40625 C 53.640625 -59.601562 52.695312 -62.660156 51.53125 -65.578125 C 50.375 -68.492188 48.914062 -71.316406 47.15625 -74.046875 Z M 36.125 -30.484375 C 35.644531 -29.765625 35.101562 -29.0625 34.5 -28.375 C 33.894531 -27.695312 33.195312 -27.117188 32.40625 -26.640625 C 32 -26.484375 31.632812 -26.300781 31.3125 -26.09375 C 31 -25.894531 30.640625 -25.835938 30.234375 -25.921875 C 28.796875 -25.765625 27.296875 -25.644531 25.734375 -25.5625 C 24.179688 -25.476562 22.960938 -25.835938 22.078125 -26.640625 C 21.921875 -29.359375 21.84375 -32.097656 21.84375 -34.859375 C 21.84375 -37.617188 21.878906 -40.335938 21.953125 -43.015625 C 22.035156 -45.703125 22.078125 -48.285156 22.078125 -50.765625 C 22.078125 -53.242188 22 -55.5625 21.84375 -57.71875 L 21.84375 -58.203125 L 22.203125 -58.203125 C 23.640625 -58.523438 25.15625 -58.664062 26.75 -58.625 C 28.351562 -58.582031 29.835938 -58.476562 31.203125 -58.3125 C 32.554688 -57.832031 33.671875 -57.132812 34.546875 -56.21875 C 35.429688 -55.300781 36.175781 -54.238281 36.78125 -53.03125 C 37.382812 -51.832031 37.84375 -50.570312 38.15625 -49.25 C 38.476562 -47.9375 38.757812 -46.679688 39 -45.484375 C 39.632812 -42.523438 39.648438 -39.800781 39.046875 -37.3125 C 38.453125 -34.832031 37.476562 -32.554688 36.125 -30.484375 Z M 36.125 -30.484375 "/></g></g></g><g fill="#000000" fill-opacity="1"><g transform="translate(994.914006, 211.161338)"><g><path d="M 43.4375 -42.125 C 43.113281 -43.476562 42.671875 -45.316406 42.109375 -47.640625 C 41.554688 -49.960938 40.957031 -52.519531 40.3125 -55.3125 C 39.675781 -58.113281 39.015625 -61.035156 38.328125 -64.078125 C 37.648438 -67.117188 37.007812 -69.976562 36.40625 -72.65625 C 35.8125 -75.34375 35.253906 -77.742188 34.734375 -79.859375 C 34.210938 -81.984375 33.832031 -83.5625 33.59375 -84.59375 C 30.957031 -84.351562 28.816406 -84.210938 27.171875 -84.171875 C 25.535156 -84.140625 24.195312 -84.125 23.15625 -84.125 C 22.113281 -84.125 21.273438 -84.125 20.640625 -84.125 C 20.003906 -84.125 19.40625 -84.082031 18.84375 -84 C 16.914062 -77.601562 15.148438 -71.160156 13.546875 -64.671875 C 11.953125 -58.191406 10.472656 -51.953125 9.109375 -45.953125 C 7.753906 -39.953125 6.578125 -34.289062 5.578125 -28.96875 C 4.578125 -23.65625 3.71875 -18.957031 3 -14.875 C 2.28125 -10.800781 1.71875 -7.484375 1.3125 -4.921875 C 0.914062 -2.359375 0.640625 -0.796875 0.484375 -0.234375 C 0.554688 -0.160156 0.632812 -0.125 0.71875 -0.125 C 6.15625 -0.195312 10.15625 -0.15625 12.71875 0 C 15.28125 0.15625 16.878906 0.15625 17.515625 0 C 17.597656 0 17.660156 -0.0195312 17.703125 -0.0625 C 17.742188 -0.101562 17.800781 -0.125 17.875 -0.125 C 18.59375 -1.476562 19.148438 -3.035156 19.546875 -4.796875 C 19.953125 -6.554688 20.332031 -8.375 20.6875 -10.25 C 21.050781 -12.132812 21.410156 -13.9375 21.765625 -15.65625 C 22.128906 -17.375 22.59375 -18.875 23.15625 -20.15625 C 24.039062 -20.15625 24.742188 -20.175781 25.265625 -20.21875 C 25.785156 -20.257812 26.265625 -20.28125 26.703125 -20.28125 C 27.140625 -20.28125 27.640625 -20.28125 28.203125 -20.28125 C 28.765625 -20.28125 29.5625 -20.203125 30.59375 -20.046875 C 31.15625 -18.835938 31.675781 -17.394531 32.15625 -15.71875 C 32.632812 -14.039062 33.09375 -12.28125 33.53125 -10.4375 C 33.976562 -8.601562 34.421875 -6.804688 34.859375 -5.046875 C 35.296875 -3.285156 35.753906 -1.765625 36.234375 -0.484375 L 36.359375 -0.484375 C 38.921875 0.078125 41.640625 0.414062 44.515625 0.53125 C 47.398438 0.65625 50.039062 0.476562 52.4375 0 L 52.4375 -0.125 Z M 31.203125 -34.3125 C 29.679688 -34.3125 28.160156 -34.289062 26.640625 -34.25 C 25.117188 -34.21875 23.675781 -34.238281 22.3125 -34.3125 C 22.875 -38.394531 23.375 -42.195312 23.8125 -45.71875 C 24.257812 -49.238281 24.660156 -52.15625 25.015625 -54.46875 C 25.378906 -56.789062 25.78125 -58.332031 26.21875 -59.09375 C 26.65625 -59.851562 27.09375 -59.550781 27.53125 -58.1875 C 27.976562 -56.832031 28.5 -54.234375 29.09375 -50.390625 C 29.695312 -46.554688 30.398438 -41.195312 31.203125 -34.3125 Z M 31.203125 -34.3125 "/></g></g></g></svg>